<?xml version="1.0" encoding="UTF-8" standalone="no"?>
<!-- Generator: Adobe Illustrator 25.1.0, SVG Export Plug-In . SVG Version: 6.00 Build 0)  -->

<svg
   version="1.1"
   id="_x2018_ëîé_x5F_1"
   x="0px"
   y="0px"
   viewBox="0 0 350 150"
   xml:space="preserve"
   sodipodi:docname="formation_jamoh.svg"
   width="350"
   height="150"
   inkscape:version="1.1 (c68e22c387, 2021-05-23)"
   xmlns:inkscape="http://www.inkscape.org/namespaces/inkscape"
   xmlns:sodipodi="http://sodipodi.sourceforge.net/DTD/sodipodi-0.dtd"
   xmlns="http://www.w3.org/2000/svg"
   xmlns:svg="http://www.w3.org/2000/svg"><defs
   id="defs579" /><sodipodi:namedview
   id="namedview577"
   pagecolor="#505050"
   bordercolor="#eeeeee"
   borderopacity="1"
   inkscape:pageshadow="0"
   inkscape:pageopacity="0"
   inkscape:pagecheckerboard="0"
   showgrid="false"
   inkscape:zoom="2.6472727"
   inkscape:cx="303.89767"
   inkscape:cy="84.048764"
   inkscape:window-width="1920"
   inkscape:window-height="1001"
   inkscape:window-x="-9"
   inkscape:window-y="-9"
   inkscape:window-maximized="1"
   inkscape:current-layer="g574"
   width="350px" />
<style
   type="text/css"
   id="style2">
	.st0{opacity:0.5;fill:#DCEAFF;}
	.st1{fill:#DFEBFA;}
	.st2{fill:#AFCDFB;}
	.st3{fill:#CEE1FD;}
	.st4{fill:#424140;}
	.st5{fill:#37387A;}
	.st6{opacity:0.57;fill:#5295BC;}
	.st7{fill:#77A4E5;}
	.st8{fill:#9FC1F4;}
	.st9{fill:#F5FBFF;}
	.st10{fill:#BDD1F9;}
	.st11{fill:#FFFFFF;}
	.st12{fill:#F99746;}
	.st13{fill:#BEC24A;}
	.st14{fill:#CD873E;}
	.st15{fill:#599C4F;}
	.st16{fill:#A9453D;}
	.st17{fill:#D39D4F;}
	.st18{fill:#5F9AA8;}
	.st19{fill:#3C3028;}
	.st20{fill:#325D3D;}
	.st21{opacity:0.6;}
	.st22{fill:#233862;}
	.st23{fill:#163560;}
	.st24{fill:#2A4E96;}
	.st25{fill:#DFEBFD;}
	.st26{fill:#F9DDBF;}
	.st27{fill:#ED7D2B;}
	.st28{fill:#F2CCAA;}
	.st29{fill:#1B3051;}
	.st30{fill:#1E3C68;}
	.st31{fill:#2B478B;}
	.st32{fill:#2E3552;}
</style>
<g
   id="g574"
   transform="matrix(0.81667069,0,0,1.0359114,87.51835,-132.8959)"
   inkscape:export-filename="C:\Users\Elvis Caleb\Desktop\image_service  jamoh\g574.png"
   inkscape:export-xdpi="96"
   inkscape:export-ydpi="96">
	<path
   class="st0"
   d="m 284.97457,270.34813 v 0 c -0.041,0.0364 -0.041,0.073 -0.0819,0.10952 -0.20471,0.25555 -0.40942,0.51111 -0.65506,0.80317 l -333.550417,-0.0731 c 0,0 -0.327534,-0.25557 -0.900714,-0.76667 -0.04095,-0.0365 -0.08189,-0.073 -0.08189,-0.073 -1.473894,-1.27777 -4.503565,-3.94284 -7.983593,-7.70313 0,0 0,0 0,0 -9.293721,-10.00313 -22.231238,-27.70938 -20.061334,-47.38706 0.614119,-5.54918 2.415547,-11.24437 5.854632,-16.97609 10.399142,-17.37769 41.514684,-29.09667 69.5186721,-29.35223 10.8494986,-0.10952 21.2076989,1.53333 29.7644729,5.22061 1.514835,0.65714 3.398144,1.16824 5.649927,1.49682 1.883309,0.29206 3.971325,0.4746 6.223108,0.51111 18.178027,0.43809 47.778732,-6.82695 65.301696,-25.15384 9.33466,-9.71105 23.62325,-16.09992 40.04079,-19.42212 0.77789,-0.14602 1.55578,-0.29206 2.29272,-0.43808 3.72568,-0.69365 7.57418,-1.20476 11.50456,-1.56984 0.696,-0.073 1.39201,-0.14604 2.12895,-0.18254 17.3592,-1.4238 35.90571,0.0364 52.97831,4.12538 2.25178,0.54761 4.46262,1.13174 6.63253,1.75236 32.05718,9.23646 57.03151,28.07446 54.82067,54.36004 -0.0819,1.02221 -0.20471,2.08094 -0.40942,3.13966 -0.32753,2.00792 -0.81883,4.08887 -1.47389,6.20631 -0.36848,1.24127 -0.81884,2.48253 -1.35107,3.7603 -13.22411,33.36807 39.63137,34.86489 13.83823,67.61234 z"
   id="path4"
   style="stroke-width:0.386612" />
	<g
   id="g8"
   transform="matrix(0.40941502,0,0,0.36507742,-107.65444,83.501499)">
		<path
   class="st1"
   d="m 959,511.8 v 0 l -634.1,0.1 5.5,-151 v -41 h 23.7 v -32 h 47.3 V 315 h 14.4 v -50.3 h 3.1 v -3.5 h 0.6 v 3.5 H 431 v -3.5 h 0.6 v 3.5 h 16.2 v -3.5 h 0.6 v 3.5 h 10.2 v -3.5 h 0.6 v 3.5 h 4.2 v 46.9 h 16 V 304 l 18.8,0.1 v -12.3 h 3.8 v -2.4 h 0.5 v 2.4 H 517 v 0 h 2.9 v -2.4 h 0.5 v 2.4 h 3.5 v 24.5 h 22.4 v 9 h 12.5 v -5.2 h 11.6 v -20.8 h 5.8 v -9.7 h 0.9 v 9.7 h 13.8 v -18.1 h 1.4 v 18.1 h 9.1 v -0.3 0 -2.3 0 -2.2 0 -3.5 0 -2.3 0 -3.7 0 -2.3 0 -3.6 0 -2.5 0 -3.6 0 -3.2 0 -3.6 0 -2.4 h 2.7 V 261 h 0.4 v 2.7 h 20.2 V 261 h 0.4 v 2.7 h 3.7 v 19 h 2.6 v 0 0 -3.6 0 -2.5 0 -3.6 0 -2.5 0 -3.6 0 0 h 24.5 v 0 h 4.2 c 0.2,0.1 0.4,0.2 0.7,0.3 v 24.2 h 4.5 v -3.5 h 51.6 V 315 h 15.8 v -50.3 h 3.4 v -3.5 h 0.6 v 3.5 h 12.5 v -3.5 h 0.6 v 3.5 h 17.6 v -3.5 h 0.6 v 3.5 h 11.1 v -3.5 h 0.6 v 3.5 h 4.6 v 46.9 h 17.4 V 304 l 20.6,0.1 v -12.3 h 4.1 v -2.4 h 0.5 v 2.4 h 15.9 v 0 h 3.2 v -2.4 h 0.5 v 2.4 h 3.8 v 24.5 h 24.5 v 9 h 13.6 v -5.2 H 901 v -20.8 h 6.3 v -9.7 h 1 v 9.7 h 15.1 v -18.1 h 1.5 v 18.1 h 7.4 c -0.8,5.5 -2,11.2 -3.6,17 -0.9,3.4 -2,6.8 -3.3,10.3 -32.5,91.4 96.6,95.5 33.6,185.2 z"
   id="path6" />
	</g>
	<path
   class="st2"
   d="m 219.5091,135.26948 v 135.07865 h -6.63252 V 133.51712 c 2.25178,0.54761 4.46262,1.13174 6.63252,1.75236 z"
   id="path10"
   style="stroke-width:0.386612" />
	<path
   class="st3"
   d="m 32.406441,175.61054 v 94.81061 h -82.57901 c -0.04095,-0.0364 -0.08189,-0.073 -0.08189,-0.073 -1.473895,-1.27778 -4.503566,-3.94284 -7.983594,-7.70314 0,0 0,0 0,0 -9.293721,-10.00312 -22.231235,-27.70938 -20.06134,-47.38705 0.614128,-5.54918 2.415556,-11.24438 5.854632,-16.9761 10.399149,-17.37768 41.51469,-29.09667 69.5186771,-29.35222 10.7266743,0.073 20.9620509,1.71586 29.4778819,5.2206 1.555777,0.62063 3.52097,1.13175 5.854635,1.46031 z"
   id="path12"
   style="stroke-width:0.386612" />
	<g
   id="g20"
   transform="matrix(0.40941502,0,0,0.36507742,-107.65444,83.501499)">
		<path
   class="st4"
   d="m 653.5,125.7 v 45.6 c 0,3.6 -1.1,6.5 -2.4,6.5 h -0.3 c -1.3,0 -2.4,-2.9 -2.4,-6.5 v -45 c 1.7,-0.3 3.4,-0.5 5.1,-0.6 z"
   id="path14" />
		<path
   class="st5"
   d="m 649.6,166.7 c -18.9,0 -34.1,12.9 -34.1,28.8 h 68.3 c -0.1,-15.9 -15.4,-28.8 -34.2,-28.8 z"
   id="path16" />
		<path
   class="st6"
   d="m 652.3,167.1 c -1,-0.2 -2,-0.3 -3,-0.3 -12.3,0 -22.2,12.8 -22.2,28.7 h 6 c 0,-14.5 8.3,-26.5 19.2,-28.4 z"
   id="path18" />
	</g>
	<g
   id="g58"
   transform="matrix(0.40941502,0,0,0.36507742,-107.65444,83.501499)">
		<g
   id="g30">
			<path
   class="st7"
   d="m 874.4,469.4 c 0,0 -9.1,-8.4 -0.6,-13.8 0,0 6.2,-3 11.3,-2.8 0,0 -7.2,9.6 -4.9,10.6 2.3,1 7,-11.2 7,-11.2 0,0 14.2,-1.1 18.7,0.7 0,0 -12.1,7.9 -9.6,8.4 2.6,0.5 15.6,-7.3 15.6,-7.3 0,0 13.2,1.8 12.5,8.2 -0.7,6.4 -5.2,8.4 -7.2,8.2 -2,-0.2 -13.7,-3.7 -13.9,-2.4 -0.3,1.3 6.8,5.6 11.7,5.8 0,0 -9.3,8.2 -15.5,5.8 -6.2,-2.4 -6.7,-6.1 -10.6,-7.5 -3.9,-1.4 -7.1,-1.4 -5.5,0 1.6,1.4 8.6,2.8 10.8,5.9 2.2,3.1 4.2,5.2 -2.2,4.4 -6.4,-0.8 -16.8,-4.5 -17.2,-8.8 -0.4,-4.2 -0.4,-4.2 -0.4,-4.2 z"
   id="path22" />
			<g
   id="g28">
				<path
   class="st7"
   d="m 918.1,462.3 c 0,0 -35.8,-1.1 -43.7,7.1 0,0 -1.7,4.2 -7.1,8 l -0.8,1.8 c 0,0 6.2,-5.2 8.4,-5.5 -0.1,0 -3.5,-10.2 43.2,-11.4 z"
   id="path24" />
				<path
   class="st7"
   d="m 867.3,477.4 c 0,0 -7.7,4.5 -8.2,12.6 l 1.4,0.1 c 0,0 2.5,-8.4 6.9,-11.6 4.4,-3.3 -0.1,-1.1 -0.1,-1.1 z"
   id="path26" />
			</g>
		</g>
		<g
   id="g40">
			<path
   class="st7"
   d="m 842.6,458.8 c 0,0 14.4,-6.4 7.7,-15.2 0,0 -5.4,-5.4 -11.2,-6.8 0,0 3.1,13 0,13.4 -3.1,0.3 -2.1,-14.7 -2.1,-14.7 0,0 -15.2,-5.8 -21.2,-5.4 0,0 9.4,12.7 6.4,12.4 -3.1,-0.3 -13.7,-13.2 -13.7,-13.2 0,0 -15.6,-2.3 -18.1,5.1 -2.5,7.4 1.5,11.1 3.9,11.5 2.3,0.5 17.1,0.3 16.8,1.8 -0.4,1.5 -10.4,4 -16,2.6 0,0 6.2,12.1 14.3,11.5 8.1,-0.6 10.6,-4.6 15.6,-4.9 5,-0.3 8.7,0.8 6.2,1.8 -2.5,1.1 -11,0.4 -15,3.1 -4,2.7 -7.3,4.4 0.2,5.7 7.5,1.2 21,0.5 23.7,-4.1 2.5,-4.6 2.5,-4.6 2.5,-4.6 z"
   id="path32" />
			<g
   id="g38">
				<path
   class="st7"
   d="m 797.5,436.7 c 0,0 40.5,10.4 45.1,22.1 0,0 -0.2,5.2 3.9,11.2 v 2.3 c 0,0 -4.2,-7.8 -6.6,-8.9 0,0 9.1,-10.2 -42.4,-26.7 z"
   id="path34" />
				<path
   class="st7"
   d="m 846.5,470 c 0,0 6.2,7.5 2.7,16.7 l -1.6,-0.3 c 0,0 1.6,-10.1 -1.7,-15.2 -3.3,-5.1 0.6,-1.2 0.6,-1.2 z"
   id="path36" />
			</g>
		</g>
		<g
   id="g50">
			<path
   class="st8"
   d="m 865.6,449.9 c 0,0 -19,-8.5 -10.2,-20 0,0 7.1,-7.1 14.7,-8.9 0,0 -4.1,17.2 0,17.6 4.1,0.4 2.8,-19.4 2.8,-19.4 0,0 20.1,-7.7 27.9,-7.1 0,0 -12.4,16.8 -8.4,16.4 4.1,-0.4 18,-17.4 18,-17.4 0,0 20.6,-3 23.9,6.7 3.3,9.7 -2,14.6 -5.1,15.2 -3.1,0.6 -22.6,0.4 -22.1,2.4 0.5,2 13.7,5.3 21.1,3.4 0,0 -8.1,16 -18.8,15.2 -10.7,-0.8 -14,-6.1 -20.6,-6.5 -6.6,-0.4 -11.4,1 -8.1,2.4 3.3,1.4 14.5,0.5 19.8,4.1 5.3,3.6 9.7,5.8 -0.3,7.5 -9.9,1.6 -27.7,0.6 -31.2,-5.5 -3.4,-6.1 -3.4,-6.1 -3.4,-6.1 z"
   id="path42" />
			<g
   id="g48">
				<path
   class="st8"
   d="m 925,420.8 c 0,0 -53.3,13.8 -59.4,29.1 0,0 0.3,6.9 -5.1,14.8 v 3 c 0,0 5.6,-10.3 8.6,-11.7 0.1,0 -11.9,-13.4 55.9,-35.2 z"
   id="path44" />
				<path
   class="st8"
   d="m 860.5,464.7 c 0,0 -8.2,9.9 -3.5,22.1 l 2.1,-0.5 c 0,0 -2.1,-13.3 2.2,-20 4.3,-6.7 -0.8,-1.6 -0.8,-1.6 z"
   id="path46" />
			</g>
		</g>
		<path
   class="st8"
   d="m 865,513 c 20.6,0 37.3,-13.3 37.3,-29.7 h -74.6 c 0,16.4 16.7,29.7 37.3,29.7 z"
   id="path52" />
		<path
   class="st2"
   d="m 874.2,512.7 c -1.5,0.2 -3.1,0.2 -4.6,0.2 -20.6,0 -37.3,-13.3 -37.3,-29.7 h 9.3 c -0.1,15.2 14.1,27.7 32.6,29.5 z"
   id="path54" />
		<rect
   x="826.40002"
   y="483.29999"
   class="st8"
   width="76.699997"
   height="0.89999998"
   id="rect56" />
	</g>
	<g
   id="g250"
   transform="matrix(0.40941502,0,0,0.36507742,-107.65444,83.501499)">
		<g
   id="g62">
			<path
   class="st7"
   d="m 691.3,511.5 -36.7,-121.2 2.6,-4.8 36.3,126 c 0.1,0.3 -0.2,0.6 -0.6,0.6 h -0.6 c -0.5,0 -0.9,-0.2 -1,-0.6 z"
   id="path60" />
		</g>
		<g
   id="g248">
			<g
   id="g66">
				<path
   class="st7"
   d="m 525.8,512.1 v 0 c -0.8,0 -1.3,-0.5 -1.2,-1.1 l 10.8,-52.1 h 4.6 l -12.9,52.4 c -0.1,0.5 -0.6,0.8 -1.3,0.8 z"
   id="path64" />
			</g>
			<g
   id="g70">
				<path
   class="st7"
   d="m 629.4,512.1 v 0 c -0.8,0 -1.3,-0.5 -1.2,-1.1 L 639,458.9 h 4.6 l -12.9,52.4 c -0.1,0.5 -0.7,0.8 -1.3,0.8 z"
   id="path68" />
			</g>
			<polygon
   class="st9"
   points="525.5,459 552.3,325.5 681.2,325.5 654.5,459 "
   id="polygon72" />
			<rect
   x="516"
   y="458"
   class="st7"
   width="148.10001"
   height="3.9000001"
   id="rect74" />
			<g
   id="g82">
				<path
   class="st10"
   d="m 603.3,353.5 c -0.1,1.1 -0.3,2.1 -0.6,3.1 -2.7,9.5 -13.3,16.8 -25.4,16.9 -13.3,0 -23.3,-8.9 -22.3,-19.9 1,-11 12.6,-19.9 26,-20 2.8,0 5.4,0.4 7.9,1.1 1.1,0.3 2.1,0.7 3.1,1.2 2.2,1 4.1,2.2 5.7,3.7 0.9,0.8 1.7,1.7 2.4,2.7 0.4,0.6 0.8,1.1 1.1,1.7 0.9,1.7 1.6,3.4 1.9,5.3 0.2,0.9 0.2,1.9 0.2,2.9 0.1,0.4 0.1,0.8 0,1.3 z"
   id="path76" />
				<path
   class="st11"
   d="m 601.3,343.9 -22.1,9.5 c 0,0 9.1,-12.8 12.9,-17.7 2.2,1 4.1,2.2 5.7,3.7 0.9,0.8 1.7,1.7 2.4,2.7 0.4,0.7 0.8,1.3 1.1,1.8 z"
   id="path78" />
				<path
   class="st12"
   d="m 603.6,341.5 -20.2,8.7 c 0,0 8.3,-11.7 11.7,-16.1 2,0.9 3.7,2 5.2,3.4 0.8,0.8 1.6,1.6 2.2,2.5 0.4,0.5 0.8,1 1.1,1.5 z"
   id="path80" />
			</g>
			<g
   id="g108">
				<g
   id="g86">
					<path
   class="st10"
   d="M 644.2,448.8 H 538 L 548.7,400 H 654.9 Z M 539,448.3 h 104.7 l 10.5,-47.8 H 549.5 Z"
   id="path84" />
				</g>
				<g
   id="g96">
					<path
   class="st12"
   d="m 637.9,442.1 h -94.1 c 0,0 16.7,-7.1 21.3,-6.8 4.6,0.4 11.2,3.3 15.4,3.4 4.2,0.1 8.8,-10 13.5,-9.5 4.7,0.5 6.5,9.4 8.9,8.6 2.4,-0.9 9.8,-1.3 14,0 4.2,1.3 10.4,-4 14.1,-3.8 3.7,0.1 6.9,8.1 6.9,8.1 z"
   id="path88" />
					<g
   id="g94">
						<polygon
   class="st12"
   points="548.4,427.8 548.6,427 566.6,427 566.4,427.8 "
   id="polygon90" />
						<polygon
   class="st12"
   points="548.1,429.4 548.2,428.7 566.2,428.7 566,429.4 "
   id="polygon92" />
					</g>
				</g>
				<g
   id="g106">
					<path
   class="st10"
   d="m 549.2,417.7 h 94.1 c 0,0 -13.6,-7.1 -18.3,-6.8 -4.7,0.4 -12.6,3.3 -16.9,3.4 -4.3,0.1 -4.4,-10 -9.3,-9.5 -4.9,0.5 -10.6,9.4 -12.7,8.6 -2.1,-0.9 -9.2,-1.3 -14,0 -4.8,1.3 -8.6,-4 -12.4,-3.8 -3.8,0.1 -10.5,8.1 -10.5,8.1 z"
   id="path98" />
					<g
   id="g104">
						<polygon
   class="st10"
   points="553.5,404.7 553.7,404 571.7,404 571.5,404.7 "
   id="polygon100" />
						<polygon
   class="st10"
   points="553.1,406.4 553.3,405.6 571.3,405.6 571.1,406.4 "
   id="polygon102" />
					</g>
				</g>
			</g>
			<g
   id="g122">
				<polygon
   class="st10"
   points="551.1,393.2 554.7,377.8 558.8,377.8 555.3,393.2 "
   id="polygon110" />
				<polygon
   class="st10"
   points="556.8,393.2 559.5,381.3 563.7,381.3 560.9,393.2 "
   id="polygon112" />
				<polygon
   class="st10"
   points="562.4,393.2 565.3,380.8 569.4,380.8 566.5,393.2 "
   id="polygon114" />
				<polygon
   class="st10"
   points="568,393.2 570.2,383.8 574.3,383.8 572.1,393.2 "
   id="polygon116" />
				<polygon
   class="st10"
   points="573.6,393.2 576,383.1 580.1,383.1 577.8,393.2 "
   id="polygon118" />
				<polygon
   class="st10"
   points="579.3,393.2 581.1,385.4 585.2,385.4 583.4,393.2 "
   id="polygon120" />
			</g>
			<g
   id="g136">
				<polygon
   class="st13"
   points="606.4,393.2 610,377.8 614.1,377.8 610.5,393.2 "
   id="polygon124" />
				<polygon
   class="st13"
   points="612,393.2 614.8,381.3 618.9,381.3 616.1,393.2 "
   id="polygon126" />
				<polygon
   class="st13"
   points="617.6,393.2 620.5,380.8 624.6,380.8 621.7,393.2 "
   id="polygon128" />
				<polygon
   class="st13"
   points="623.2,393.2 625.4,383.8 629.6,383.8 627.4,393.2 "
   id="polygon130" />
				<polygon
   class="st13"
   points="628.9,393.2 631.2,383.1 635.4,383.1 633,393.2 "
   id="polygon132" />
				<polygon
   class="st13"
   points="634.5,393.2 636.3,385.4 640.5,385.4 638.6,393.2 "
   id="polygon134" />
			</g>
			<g
   id="g210">
				<g
   id="g146">
					<polygon
   class="st10"
   points="616.9,342.9 617.3,341.4 630.7,341.4 630.4,342.9 "
   id="polygon138" />
					<polygon
   class="st10"
   points="632,342.9 632.4,341.4 647.2,341.4 646.9,342.9 "
   id="polygon140" />
					<polygon
   class="st10"
   points="648,342.9 648.3,341.4 657.8,341.4 657.4,342.9 "
   id="polygon142" />
					<polygon
   class="st10"
   points="659,342.9 659.3,341.4 666.6,341.4 666.3,342.9 "
   id="polygon144" />
				</g>
				<g
   id="g156">
					<polygon
   class="st10"
   points="615.5,349.2 615.8,347.7 629.2,347.7 628.9,349.2 "
   id="polygon148" />
					<polygon
   class="st10"
   points="630.5,349.2 630.9,347.7 645.7,347.7 645.4,349.2 "
   id="polygon150" />
					<polygon
   class="st10"
   points="646.5,349.2 646.9,347.7 656.3,347.7 656,349.2 "
   id="polygon152" />
					<polygon
   class="st10"
   points="657.5,349.2 657.8,347.7 665.1,347.7 664.8,349.2 "
   id="polygon154" />
				</g>
				<g
   id="g164">
					<polygon
   class="st10"
   points="617.7,339.5 618.1,338 638.7,338 638.4,339.5 "
   id="polygon158" />
					<polygon
   class="st10"
   points="640.3,339.5 640.7,338 652.6,338 652.2,339.5 "
   id="polygon160" />
					<polygon
   class="st10"
   points="653.9,339.5 654.2,338 667.4,338 667.1,339.5 "
   id="polygon162" />
				</g>
				<g
   id="g172">
					<polygon
   class="st10"
   points="616.2,346.1 616.5,344.7 637.1,344.7 636.8,346.1 "
   id="polygon166" />
					<polygon
   class="st10"
   points="638.8,346.1 639.1,344.7 651,344.7 650.6,346.1 "
   id="polygon168" />
					<polygon
   class="st10"
   points="652.3,346.1 652.7,344.7 665.9,344.7 665.5,346.1 "
   id="polygon170" />
				</g>
				<g
   id="g182">
					<polygon
   class="st10"
   points="614,355.4 614.3,354 627.8,354 627.4,355.4 "
   id="polygon174" />
					<polygon
   class="st10"
   points="629.1,355.4 629.4,354 644.3,354 643.9,355.4 "
   id="polygon176" />
					<polygon
   class="st10"
   points="645,355.4 645.4,354 654.8,354 654.5,355.4 "
   id="polygon178" />
					<polygon
   class="st10"
   points="656,355.4 656.4,354 663.7,354 663.3,355.4 "
   id="polygon180" />
				</g>
				<g
   id="g190">
					<polygon
   class="st10"
   points="614.7,352.4 615,350.9 635.7,350.9 635.3,352.4 "
   id="polygon184" />
					<polygon
   class="st10"
   points="637.3,352.4 637.6,350.9 649.5,350.9 649.2,352.4 "
   id="polygon186" />
					<polygon
   class="st10"
   points="650.8,352.4 651.2,350.9 664.4,350.9 664.1,352.4 "
   id="polygon188" />
				</g>
				<g
   id="g200">
					<polygon
   class="st10"
   points="612.6,361.3 612.9,359.8 626.4,359.8 626,361.3 "
   id="polygon192" />
					<polygon
   class="st10"
   points="627.7,361.3 628,359.8 642.9,359.8 642.5,361.3 "
   id="polygon194" />
					<polygon
   class="st10"
   points="643.6,361.3 644,359.8 653.5,359.8 653.1,361.3 "
   id="polygon196" />
					<polygon
   class="st10"
   points="654.6,361.3 655,359.8 662.3,359.8 661.9,361.3 "
   id="polygon198" />
				</g>
				<g
   id="g208">
					<polygon
   class="st10"
   points="613.3,358.3 613.7,356.8 634.3,356.8 633.9,358.3 "
   id="polygon202" />
					<polygon
   class="st10"
   points="635.9,358.3 636.2,356.8 648.1,356.8 647.8,358.3 "
   id="polygon204" />
					<polygon
   class="st10"
   points="649.5,358.3 649.8,356.8 663,356.8 662.7,358.3 "
   id="polygon206" />
				</g>
			</g>
			<g
   id="g228">
				<polygon
   class="st10"
   points="588.9,380.1 589,379.4 595.6,379.4 595.5,380.1 "
   id="polygon212" />
				<polygon
   class="st10"
   points="596.3,380.1 596.4,379.4 603.7,379.4 603.5,380.1 "
   id="polygon214" />
				<polygon
   class="st10"
   points="588.2,383.2 588.3,382.5 594.9,382.5 594.7,383.2 "
   id="polygon216" />
				<polygon
   class="st10"
   points="595.5,383.2 595.7,382.5 603,382.5 602.8,383.2 "
   id="polygon218" />
				<polygon
   class="st10"
   points="589.3,378.4 589.4,377.7 599.5,377.7 599.4,378.4 "
   id="polygon220" />
				<polygon
   class="st10"
   points="600.3,378.4 600.5,377.7 606.3,377.7 606.1,378.4 "
   id="polygon222" />
				<polygon
   class="st10"
   points="588.5,381.7 588.7,381 598.8,381 598.6,381.7 "
   id="polygon224" />
				<polygon
   class="st10"
   points="599.6,381.7 599.7,381 605.5,381 605.4,381.7 "
   id="polygon226" />
			</g>
			<g
   id="g246">
				<polygon
   class="st10"
   points="641.6,380.1 641.7,379.4 648.3,379.4 648.2,380.1 "
   id="polygon230" />
				<polygon
   class="st10"
   points="649,380.1 649.1,379.4 656.4,379.4 656.2,380.1 "
   id="polygon232" />
				<polygon
   class="st10"
   points="640.9,383.2 641,382.5 647.6,382.5 647.4,383.2 "
   id="polygon234" />
				<polygon
   class="st10"
   points="648.2,383.2 648.4,382.5 655.7,382.5 655.5,383.2 "
   id="polygon236" />
				<polygon
   class="st10"
   points="642,378.4 642.1,377.7 652.2,377.7 652.1,378.4 "
   id="polygon238" />
				<polygon
   class="st10"
   points="653,378.4 653.2,377.7 659,377.7 658.8,378.4 "
   id="polygon240" />
				<polygon
   class="st10"
   points="641.2,381.7 641.4,381 651.5,381 651.3,381.7 "
   id="polygon242" />
				<polygon
   class="st10"
   points="652.3,381.7 652.4,381 658.2,381 658.1,381.7 "
   id="polygon244" />
			</g>
		</g>
	</g>
	<g
   id="g312"
   transform="matrix(0.40941502,0,0,0.36507742,-107.65444,83.501499)">
		<g
   id="g256">
			<path
   class="st14"
   d="m 683.2,510.2 c -0.2,2.5 -4.7,2.5 -9.7,2.1 -5,-0.5 -3.7,0.6 -10.8,0.6 -7.1,0.1 -9.5,-1.8 -9.8,-2.6 -0.3,-0.7 3.1,-1.3 6.7,-2 0.5,-0.1 0.9,-0.2 1.4,-0.3 4.1,-0.8 6.8,-3.3 10.3,-5.4 3.3,-2 7.6,-9.3 7.6,-9.3 l 9.6,-0.3 c 0,0 -4.1,6.6 -5.6,9.4 -0.9,1.7 -0.5,3.7 -0.1,5.3 0.2,0.7 0.4,1.6 0.4,2.5 z"
   id="path252" />
			<path
   class="st15"
   d="m 673.4,512.2 c -5,-0.5 -3.7,0.6 -10.8,0.6 -7.1,0.1 -9.5,-1.8 -9.8,-2.6 -0.3,-0.7 3.1,-1.3 6.7,-2 v 0.1 c 0,0 4.5,1.9 10.4,1.5 4.7,-0.4 9.6,-2 12.8,-2.2 0.2,0.9 0.4,1.7 0.3,2.6 -0.1,2.5 -4.5,2.5 -9.6,2 z"
   id="path254" />
		</g>
		<g
   id="g262">
			<path
   class="st14"
   d="m 749.8,510.7 c -0.2,2.5 -4.7,2.5 -9.7,2.1 -5,-0.5 -3.7,0.6 -10.8,0.6 -7.1,0.1 -9.5,-1.8 -9.8,-2.6 -0.3,-0.7 3.1,-1.3 6.7,-2 0.5,-0.1 0.9,-0.2 1.4,-0.3 4.1,-0.8 6.8,-3.3 10.3,-5.4 3.3,-2 0,-14 0,-14 l 10.6,-0.8 c 0,0 -0.5,10.1 -0.5,14.7 0,1.8 1,3.6 1.4,5.1 0.2,0.8 0.4,1.7 0.4,2.6 z"
   id="path258" />
			<path
   class="st15"
   d="m 740,512.8 c -5,-0.5 -3.7,0.6 -10.8,0.6 -7.1,0.1 -9.5,-1.8 -9.8,-2.6 -0.3,-0.7 3.1,-1.3 6.7,-2 v 0.1 c 0,0 4.5,1.9 10.4,1.5 4.7,-0.4 9.6,-2 12.8,-2.2 0.2,0.9 0.4,1.7 0.3,2.6 -0.1,2.4 -4.5,2.4 -9.6,2 z"
   id="path260" />
		</g>
		<path
   class="st16"
   d="m 718.8,303.5 c -1.8,-6 0.8,-8.8 3.2,-10.3 1.1,-2.2 2.4,-3.8 3.7,-4.4 2.4,-1.1 5.3,-1.2 7.3,-1.1 -0.5,-0.4 -1.5,-0.6 -1.5,-0.6 1.3,-0.1 4,0.8 4,0.8 17.4,-5.3 20.2,15.1 19.8,19.8 -0.4,4.7 -0.3,10.3 8.8,14.1 17.3,7.1 -5.7,34 -5.7,34 0.4,-3.8 -21.8,-24.1 -33.4,-30.2 -2.8,-3.3 -3.8,-9.2 -3.9,-9.6 0.5,4.6 1.5,7.2 2.4,8.7 -5.3,-3.7 -6.1,-13 -4.7,-21.2 z"
   id="path264" />
		<path
   class="st14"
   d="m 725.7,326.1 c -0.1,0 5.6,2.4 9.9,1.4 4,-0.9 6.6,-5 6.6,-5 -1.7,-0.3 -2.2,-2.1 -2.1,-10.1 l -0.8,0.1 -12.9,2 c 0,0 0.3,3.2 0.3,6.3 -0.1,2.6 -0.3,5 -1,5.3 z"
   id="path266" />
		<path
   class="st17"
   d="m 726.3,314.6 c 0,0 0.3,3.2 0.3,6.3 7.2,-0.2 11,-5.4 12.6,-8.3 z"
   id="path268" />
		<path
   class="st4"
   d="m 673.9,497.3 c -0.6,1.6 0.8,3.2 2.9,3.3 l 5,0.2 5.3,0.1 c 1.3,0 2.6,-0.4 3.4,-1.3 4.3,-4.2 17.3,-18 25.3,-38.1 0.2,-0.6 0.5,-1.1 0.7,-1.7 5.2,-12.2 16.1,-27.5 21.8,-41.3 0.9,-2.2 1.7,-4.3 2.5,-6.2 0.2,-0.6 0.5,-1.2 0.7,-1.9 4.2,-11.7 5.4,-19.4 6.6,-27.5 l -41.4,0.3 c 0,-0.1 -8.7,53.8 -32.8,114.1 z"
   id="path270" />
		<path
   class="st11"
   d="m 712.5,364.2 c 0.1,15.7 -2.9,22.4 -2.9,22.4 0,0 17.7,7.2 38.7,1.9 0.2,-0.1 15.1,-3.4 15.1,-3.4 -0.4,-0.6 -3.3,-11.1 -3.6,-11.7 -4.4,-7.6 -5.7,-10.8 -6.2,-13.1 -1,-4.4 -1,-8.9 -0.5,-13.1 1.3,-11.3 5.1,-20.6 5.1,-20.6 -5.7,-1 -11.1,-2.9 -17.1,-4.6 -1.4,1.4 -5.6,2.8 -9.2,2.7 -4.2,-0.1 -5.6,-1.5 -5.3,-3.1 -4.5,2 -8,3.9 -8,3.9 -3.8,5.3 -11.5,10.4 -12.1,18.4 -0.1,1.9 6,19.9 6,20.3 z"
   id="path272" />
		<path
   class="st18"
   d="m 748.1,366 c 1.8,2 5.3,14.4 13.9,16 -4.4,-8.8 -7.8,-12.7 -8.3,-15.4 -1,-5.1 -1,-10.3 -0.5,-15.3 -2.9,-4 -5,-6.8 -5,-6.8 -0.2,-0.7 -4.6,-11.4 -6,-1.8 -1.5,9.6 3.9,21 5.9,23.3 z"
   id="path274" />
		<path
   class="st14"
   d="m 723.9,317.5 c 0,0 17.1,0.2 17.1,-8.2 0,-8.5 2.2,-14.1 -8.7,-14.6 -10.9,-0.5 -13,2.7 -13.9,5.6 -0.8,2.7 1.1,16.9 5.5,17.2 z"
   id="path276" />
		<path
   class="st16"
   d="m 724.5,294.4 c 0,0 4.7,9.9 11.8,11.4 7.2,1.5 10.3,-0.1 10.3,-0.1 0,0 -5.5,-3.5 -6.6,-9.6 0,0.1 -11.9,-6.5 -15.5,-1.7 z"
   id="path278" />
		<path
   class="st16"
   d="m 725.7,295.2 c 0,0 -3.5,2.2 -4.3,4.4 -0.9,2.2 -1.2,6.6 -2.9,6.4 0,0 -3.5,-6.7 0.4,-10.6 4.2,-4 6.8,-0.2 6.8,-0.2 z"
   id="path280" />
		<polygon
   class="st14"
   points="689,394.7 693.6,396.1 706.9,378.8 697.1,375.1 "
   id="polygon282" />
		<path
   class="st15"
   d="m 718.8,324.2 c 0,0 -9.5,3 -12.2,7.7 -2.7,4.7 -6.9,36.1 -8.6,39.3 -1.7,3.2 -2.9,5.8 -2.9,5.8 0,0 4.8,3.2 9.6,3.5 4.8,0.2 14.1,-56.3 14.1,-56.3 z"
   id="path284" />
		<path
   class="st15"
   d="m 726.6,321.5 c 0,0 -9.9,19.4 -10.2,23.4 -0.3,3.9 -1.2,64.3 -1.2,64.3 0,0 0.6,2.8 -6.1,1.6 -6.7,-1.2 -8.4,-2.3 -8.4,-2.3 0,0 6.4,-37.2 4.6,-50.2 -1.7,-12.9 13.4,-34.1 13.4,-34.1 z"
   id="path286" />
		<path
   class="st19"
   d="m 681.8,500.8 5.8,0.1 c 1,0 2,-0.3 2.7,-1 3.9,-3.7 17.4,-17.8 25.6,-38.4 0.2,-0.6 0.5,-1.1 0.7,-1.7 5.2,-12.2 16.1,-27.5 21.8,-41.3 0.9,-2.2 1.7,-4.3 2.5,-6.2 0.2,-0.6 0.5,-1.2 0.7,-1.9 l -6.1,-3.7 c 0,0 -18.3,23.6 -23.9,45.8 -5,19.3 -24.7,42.5 -29.8,48.3 z"
   id="path288" />
		<path
   class="st4"
   d="m 734.8,454.6 c -0.1,10.2 0.5,33 2.1,44.1 0.1,1 1.2,1.8 2.5,1.8 h 4.3 c 1.8,0 3.2,0 4.1,0 0.8,0 1.5,-0.5 1.6,-1.1 4.3,-17.4 7.4,-31.8 9.6,-44.3 1.9,-10.5 3.6,-19.4 4.8,-27.1 1.3,-7.8 2.2,-14.3 2.5,-19.8 0,-0.9 0.1,-1.7 0.1,-2.5 0,-0.8 0,-1.6 0,-2.4 l -35.7,-2.8 c 0.5,18.9 4.2,47.8 4.1,54.1 z"
   id="path290" />
		<path
   class="st19"
   d="m 743.7,500.5 c 1.6,0 2.9,0 3.8,0 1,0 1.8,-0.6 1.9,-1.3 4.3,-17.3 7.3,-31.7 9.6,-44.1 1.9,-10.5 3.6,-19.4 4.8,-27.1 1.3,-7.8 2.2,-14.3 2.5,-19.8 l -13.1,6.1 c 0,0 8.4,2.4 5.2,20.2 -3.2,17.8 -10.3,63.4 -14.7,66 z"
   id="path292" />
		<path
   class="st15"
   d="m 742,408 c 0,0 2.5,7.2 11.2,6.3 8.7,-0.9 21.1,-5.1 21.1,-5.1 0,0 -3.7,-9.4 -8.3,-21.7 -5.6,-14.9 -12.5,-34.1 -15.8,-46.2 -0.9,-3.4 -1.5,-6.2 -1.8,-8.3 l -7.2,-11.2 c 0,0 -10.8,19.3 -11.4,24.1 -0.6,5 12.2,62.1 12.2,62.1 z"
   id="path294" />
		<path
   class="st14"
   d="m 750.7,345.3 -9.5,-23.4 c 0,0 12,2.8 18.1,5.3 0,0 3.8,3.9 6.1,12.8 0,0 2.5,21.5 -3,29.4 0,0 -17.4,2.8 -45.3,-4.9 v -5.1 c 0,0 30.5,1.3 36.7,1.8 z"
   id="path296" />
		<path
   class="st20"
   d="m 742.4,356.2 c 0.4,7.9 2.7,23.1 23.4,31.3 0.1,0 0.1,0 0.2,0.1 -5.6,-14.9 -12.5,-34.1 -15.8,-46.2 -3.8,4.5 -8,10.5 -7.8,14.8 z"
   id="path298" />
		<path
   class="st15"
   d="m 741.2,321.9 c 0,0 17.7,1 21.9,8.5 4.3,7.6 5.6,32.7 0.2,40.1 0,0 -7.5,1.7 -20.7,-0.3 -0.2,0 -0.3,0 -0.5,-0.1 0,0 -4.2,-8.2 -0.4,-9.8 0,0 11.1,0.5 10,-2.5 -1.2,-2.8 -10.5,-35.9 -10.5,-35.9 z"
   id="path300" />
		<g
   id="g306">
			<path
   class="st16"
   d="m 696.8,362.6 0.5,1.3 29,-7.2 c 0,0 0.4,-0.4 0.2,-0.8 -0.2,-0.5 -0.7,-0.5 -0.7,-0.5 z"
   id="path302" />
			<polygon
   class="st16"
   points="694.7,363.8 696.8,362.6 697.4,363.9 "
   id="polygon304" />
		</g>
		<path
   class="st14"
   d="m 690.1,394.1 c 0,0 -7.4,3.2 -8.3,5.7 -1,2.5 -0.3,7.6 0.9,7.6 1.2,-0.1 2.9,-5.6 3.9,-5.9 1,-0.4 2.3,-1.5 2.3,-0.7 0,0.8 -1,2.4 -0.5,2.6 0.5,0.2 2,-2.2 3.1,-2.6 1.1,-0.5 1.5,-4.3 2.5,-5.3 1,-1 -3.9,-1.4 -3.9,-1.4 z"
   id="path308" />
		<path
   class="st14"
   d="m 717,359.4 c 0,0 -6.6,-3.2 -9.3,-2.7 -2.8,0.5 -9.8,4.6 -6.4,5.4 3.4,0.9 6.1,0 7.4,0.6 1.3,0.6 2.3,1.8 8.3,1.8 6.1,0 0,-5.1 0,-5.1 z"
   id="path310" />
	</g>
	<g
   id="g402"
   transform="matrix(0.40941502,0,0,0.36507742,-107.65444,83.501499)">
		<g
   class="st21"
   id="g332">
			<g
   id="g316">
				<path
   class="st7"
   d="m 398.4,512.1 h -0.1 c -0.6,0 -1.2,-0.4 -1.1,-0.9 l 1.7,-59.6 5.1,-0.5 -4.3,60.1 c -0.1,0.5 -0.7,0.9 -1.3,0.9 z"
   id="path314" />
			</g>
			<g
   id="g320">
				<path
   class="st7"
   d="m 368.7,512.1 h -0.1 c -0.6,0 -1.2,-0.4 -1.1,-0.9 l 1.7,-59.6 5.1,-0.5 -4.3,60.1 c -0.1,0.5 -0.6,0.9 -1.3,0.9 z"
   id="path318" />
			</g>
			<g
   id="g324">
				<path
   class="st7"
   d="m 450.6,512.1 h 0.1 c 0.6,0 1.2,-0.4 1.1,-0.9 l -1.7,-59.6 -5.1,-0.5 4.3,60.1 c 0.1,0.5 0.6,0.9 1.3,0.9 z"
   id="path322" />
			</g>
			<path
   class="st7"
   d="M 365.4,447.9 V 407 c 0,-7.2 7.3,-13 16.3,-13 h 37 c 9,0 16.3,5.8 16.3,13 v 42.4 z"
   id="path326" />
			<path
   class="st7"
   d="m 441.6,454.3 h -69.8 c -3.6,0 -6.5,-2.9 -6.5,-6.5 v 0 h 76.3 z"
   id="path328" />
			<path
   class="st7"
   d="m 450.6,454.3 h -54.8 c -1.8,0 -3.2,-1.4 -3.2,-3.2 v 0 c 0,-1.8 1.4,-3.2 3.2,-3.2 h 54.8 c 1.8,0 3.2,1.4 3.2,3.2 v 0 c 0,1.8 -1.4,3.2 -3.2,3.2 z"
   id="path330" />
		</g>
		<g
   id="g400">
			<path
   class="st14"
   d="m 490.6,488.3 c 0.5,2.1 4.2,1.7 8.3,0.9 4.1,-0.8 3.1,0.2 9,-0.4 5.8,-0.5 7.6,-2.3 7.8,-2.9 0.2,-0.6 -2.7,-0.8 -5.8,-1.1 -0.4,0 -0.8,-0.1 -1.2,-0.1 -3.5,-0.3 -6.1,-2.1 -9.2,-3.6 -3,-1.4 -7.5,-7.1 -7.5,-7.1 l -8,0.5 c 0,0 4.2,5.1 5.8,7.3 1,1.3 0.9,3 0.8,4.4 -0.1,0.7 -0.2,1.4 0,2.1 z"
   id="path334" />
			<path
   class="st22"
   d="m 498.9,489.3 c 4.1,-0.8 3.1,0.2 9,-0.4 5.8,-0.5 7.6,-2.3 7.8,-2.9 0.2,-0.6 -2.7,-0.8 -5.8,-1.1 v 0 c 0,0 -3.5,2 -8.4,2.1 -4,0.1 -8.2,-0.8 -10.9,-0.8 -0.1,0.7 -0.1,1.5 0.1,2.2 0.4,2 4.1,1.7 8.2,0.9 z"
   id="path336" />
			<path
   class="st14"
   d="m 421.7,497.5 c -1.6,1.7 1.2,3.6 4.6,5.6 3.5,1.9 1.9,2 6.3,5.1 4.4,3.2 7.2,3.1 7.9,2.7 0.7,-0.3 -1,-2.2 -2.8,-4.2 -0.2,-0.3 -0.4,-0.5 -0.7,-0.8 -2,-2.3 -2,-5 -2.7,-7.9 -0.7,-2.7 4.9,-12.7 4.9,-12.7 l -9,-0.9 c 0,0 -1.2,6 -2.2,8.5 -0.6,1.4 -3.1,2.4 -4.4,3.2 -0.6,0.4 -1.3,0.8 -1.9,1.4 z"
   id="path338" />
			<path
   class="st22"
   d="m 426.3,503.1 c 3.5,1.9 1.9,2 6.3,5.1 4.4,3.2 7.2,3.1 7.9,2.7 0.7,-0.3 -1,-2.2 -2.8,-4.2 h -0.1 c 0,0 -4.2,-0.8 -7.5,-3.6 -2.7,-2.3 -4.6,-5.4 -6.5,-7 -0.7,0.4 -1.5,0.9 -2,1.5 -1.5,1.6 1.3,3.6 4.7,5.5 z"
   id="path340" />
			<path
   class="st23"
   d="m 458.3,446.4 -8.2,17.6 -10.7,22.9 c 0,0 -2.9,0.2 -5.7,-0.4 -2.6,-0.6 -5.5,-2.1 -5.5,-2.1 0,0 3,-24.6 8.5,-38.7 1.4,-3.6 3,-6.6 4.8,-8.2 8.6,-8.2 16.8,8.9 16.8,8.9 z"
   id="path342" />
			<path
   class="st24"
   d="m 450,418.5 c -5.4,-1.4 -21.5,-0.6 -36.9,1.8 l -2.4,-3.3 -33.2,-2.1 c 0,0 -11,19.4 -5,31.7 0.9,1.8 2.6,3 5.6,3 0,0 0.5,0 0.5,0 0,0 19.8,0 26.2,0 16.5,0 34.9,-9 37.3,-9.4 3.9,-0.6 5.5,5.6 9.4,12.1 3.9,6.5 36.7,28.9 36.7,28.9 0,0 5,0 7.1,-0.6 2.2,-0.7 3.1,-1.5 3.1,-1.5 0,0 -36.3,-57.5 -48.4,-60.6 z"
   id="path344" />
			<path
   class="st22"
   d="m 399.1,337 c -4.7,-0.9 -11,0.2 -12.1,0.3 -12.6,1.2 -15.4,16.8 -14.5,21.1 1.7,8 -3.1,10.3 -8.9,16.7 -11.6,12.9 -3.6,23.5 5.9,26.2 5.7,1.6 13.4,-2.7 13.4,-2.7 0.1,0 20.1,-15.1 29.9,-22.5 16.5,-5.4 -1.8,-36.9 -13.7,-39.1 z"
   id="path346" />
			<path
   class="st14"
   d="m 401.8,373.8 c 0.1,0 -5.1,2.7 -9.4,2.1 -4,-0.5 -8.2,-4.7 -8.1,-4.7 1.6,-0.4 3,-1.9 2,-9.6 l 0.8,0.1 12.7,1 c 0,0 0.1,3.2 0.5,6.1 0.3,2.4 0.8,4.8 1.5,5 z"
   id="path348" />
			<path
   class="st17"
   d="m 399.8,362.7 c 0,0 0.1,3.2 0.5,6.1 -7,0.4 -11.3,-4.4 -13.2,-7.1 z"
   id="path350" />
			<path
   class="st14"
   d="m 402.5,365.3 c 0,0 -16.5,1.5 -17.5,-6.7 -1,-8.2 -3.9,-13.5 6.6,-14.8 10.5,-1.3 12.9,1.6 14.1,4.3 1.2,2.6 1,16.6 -3.2,17.2 z"
   id="path352" />
			<path
   class="st22"
   d="m 403.7,343.9 c 0,0 -8,9.1 -14.7,11.1 -6.8,2 -10,0.7 -10,0.7 0,0 3.2,-3.5 4.3,-8.4 0.3,-1.4 1.6,-2.6 3.3,-3.1 4.9,-1.4 14.2,-3.5 17.1,-0.3 z"
   id="path354" />
			<path
   class="st22"
   d="m 397.1,344.5 c 0,0 4.3,1.9 6,3.7 1.6,1.7 3.4,6.1 3.1,8.1 0,0 2.7,-9.3 -1.6,-12.7 -4.5,-3.6 -7.5,0.9 -7.5,0.9 z"
   id="path356" />
			<path
   class="st11"
   d="m 414.5,395.5 c -0.5,26.5 -0.1,21 -3.8,23.5 -0.9,0.6 -3.3,1 -6.6,1.1 -10.2,0.5 -28.2,-0.8 -28.8,-2.3 -2.4,-5.2 -0.7,-6.8 -2.7,-14.8 -0.2,-0.8 -0.5,-1.8 -0.8,-2.8 -1.6,-5.5 -3.2,-7.3 2.6,-16.1 5.3,-8 11,-14.3 11.5,-14.1 13.9,6.6 14.8,0.9 14.8,0.9 0,0 14,11.7 13.8,24.6 z"
   id="path358" />
			<path
   class="st24"
   d="m 450.1,463.9 -10.9,23.9 c 0,0 -3.9,1 -6.8,0.7 -2.9,-0.3 -4.5,-1.6 -4.5,-1.6 0,0 3.3,-27.2 8.9,-41.3 z"
   id="path360" />
			<path
   class="st11"
   d="m 400.7,371 c 0,0 14.3,1.9 16,6.8 1.7,4.9 14,32 14,32 0,0 -9.7,2.8 -13,0.2 -3.4,-2.7 -11.7,-24.8 -11.7,-24.8 z"
   id="path362" />
			<path
   class="st25"
   d="m 404.1,420.2 c -10.2,0.5 -28.2,-0.8 -28.8,-2.3 -2.4,-5.2 -0.7,-6.8 -2.7,-14.8 l 4.8,-8.7 c 0,0 -0.7,9.9 3.9,13.2 4.6,3.2 18.7,6.2 20.9,9 1,1.2 1.7,2.5 1.9,3.6 z"
   id="path364" />
			<g
   id="g372">
				<path
   class="st14"
   d="m 404.9,414.5 c 0,0 3,2.1 3.9,2.3 0.9,0.2 1.4,0 1.4,0 l -2.2,-2.1 z"
   id="path366" />
				<path
   class="st14"
   d="m 403.7,412 7.7,1.6 c 0,0 -0.2,0.4 -1.1,0.5 -0.9,0.1 -3.2,-0.2 -3.2,-0.2 z"
   id="path368" />
				<path
   class="st14"
   d="m 390.7,415.4 c 0,0 11,-3.9 13.1,-3.4 2.1,0.5 7.4,2.7 8.2,3.7 0.8,0.9 -4.3,-0.1 -5.9,-0.2 -1,-0.1 -3.5,1.1 -4.7,1.6 -5.1,2.3 -8.6,2.1 -8.6,2.1 z"
   id="path370" />
			</g>
			<path
   class="st11"
   d="m 385.9,370.1 c 0,0 -15.6,2.3 -18.4,5.8 -6.3,7.5 -19.7,38.5 -12.2,42.7 8.4,4.7 38.4,1.2 38.4,1.2 0,0 1,-3.7 -0.4,-5.5 -1.4,-1.8 -23.9,-4.7 -25,-5.5 -1,-0.8 10.3,-12.8 9.1,-15.1 -3.9,-7.4 8.5,-23.6 8.5,-23.6 z"
   id="path374" />
			<g
   id="g384">
				<path
   class="st14"
   d="m 447.4,414.1 c 0,0 10.9,2.3 12,3.7 1.1,1.3 3.3,5.5 3.2,6.5 -0.1,1.1 -3.1,-2.1 -4.2,-2.9 -0.7,-0.5 -3.3,-0.8 -4.6,-1 -3.2,-0.4 -4.8,-1.6 -6,-2.2 -0.8,-0.4 -1.8,-0.3 -1.8,-0.3 z"
   id="path376" />
				<path
   class="st14"
   d="m 458.4,420.1 c 0,0 0.7,3 1.2,3.5 0.5,0.5 1,0.6 1,0.6 l -0.1,-2.5 z"
   id="path378" />
				<path
   class="st14"
   d="m 459.4,417.8 4.4,4.8 c 0,0 -0.5,0.2 -1.2,-0.1 -0.7,-0.3 -2.2,-1.6 -2.2,-1.6 z"
   id="path380" />
				<path
   class="st14"
   d="m 447.8,418.2 c 0,0 1,2 3,2.7 2,0.7 3.5,1.8 3.8,1.4 0.3,-0.4 -1.5,-2.4 -1.5,-2.4 z"
   id="path382" />
			</g>
			<path
   class="st11"
   d="m 427.8,403.5 22.9,11.5 c 0,0 -2.4,2.6 -3.2,2.8 -4.2,1.2 -23.3,0.1 -29.8,-7.8 z"
   id="path386" />
			<g
   id="g398">
				<path
   class="st26"
   d="m 418.7,416 c 1.4,0 14.8,-0.7 14.8,-0.7 0,0 -0.4,1.9 0.4,2.9 l -13.1,2 -2.7,-0.6 z"
   id="path388" />
				<g
   id="g396">
					<path
   class="st12"
   d="m 396.3,417.7 22.4,-1.7 c 0,0 -0.8,3.3 2.1,4.2 l -24.7,1.4 c 0,0 -2,-2.2 0.2,-3.9 z"
   id="path390" />
					<path
   class="st12"
   d="m 433.5,415.5 -15.1,0.9 c 0,0 0.1,-0.4 0.4,-0.4 0.3,0 15,-0.9 15,-0.9 l -0.1,0.3 z"
   id="path392" />
					<polygon
   class="st12"
   points="434.2,418.1 434.1,417.9 419.8,420 420.8,420.2 "
   id="polygon394" />
				</g>
			</g>
		</g>
	</g>
	<g
   id="g472"
   transform="matrix(0.40941502,0,0,0.36507742,-107.65444,83.501499)">
		<g
   id="g422">
			<g
   id="g406">
				<path
   class="st7"
   d="m 265.6,512 h -0.1 c -0.7,0 -1.3,-0.5 -1.3,-1 l 1.9,-66.6 5.6,-0.5 -4.7,67.1 c -0.1,0.6 -0.7,1 -1.4,1 z"
   id="path404" />
			</g>
			<g
   id="g410">
				<path
   class="st7"
   d="m 232.7,512 h -0.1 c -0.7,0 -1.3,-0.5 -1.3,-1 l 1.9,-66.6 5.6,-0.5 -4.8,67.1 c 0,0.6 -0.6,1 -1.3,1 z"
   id="path408" />
			</g>
			<g
   id="g414">
				<path
   class="st7"
   d="m 323.5,512 h 0.1 c 0.7,0 1.3,-0.5 1.3,-1 l -1.9,-66.6 -5.6,-0.5 4.8,67.1 c 0,0.6 0.6,1 1.3,1 z"
   id="path412" />
			</g>
			<path
   class="st7"
   d="m 228.9,440.3 v -45.6 c 0,-8 8.1,-14.5 18.1,-14.5 h 41 c 10,0 18.1,6.5 18.1,14.5 V 442 Z"
   id="path416" />
			<path
   class="st7"
   d="m 313.6,447.5 h -77.5 c -4,0 -7.2,-3.2 -7.2,-7.2 v 0 h 84.7 z"
   id="path418" />
			<path
   class="st7"
   d="m 323.5,447.5 h -60.8 c -2,0 -3.6,-1.6 -3.6,-3.6 v 0 c 0,-2 1.6,-3.6 3.6,-3.6 h 60.8 c 2,0 3.6,1.6 3.6,3.6 v 0 c 0.1,2 -1.6,3.6 -3.6,3.6 z"
   id="path420" />
		</g>
		<g
   id="g470">
			<path
   class="st26"
   d="m 290.9,363.2 c 0,0 -3.4,2.3 -4.2,8.4 -0.6,4.6 3.4,40.2 6.4,43 8.5,8 19,4.6 23.2,5.8 l 3.9,-2.8 c 0,0 -13.8,-8.1 -14.8,-10.7 -4,-10.2 -1.5,-39.8 -14.5,-43.7 z"
   id="path424" />
			<path
   class="st23"
   d="m 288.4,334.2 c 0,0 0.2,-6.5 -10.6,-7.8 -10.8,-1.3 -13.8,0.7 -15.6,2.9 -1.8,2.2 -5.3,11.2 -4.9,14.7 0.3,3.6 12.7,8 12.5,10.1 -0.3,2.1 18.6,-19.9 18.6,-19.9 z"
   id="path426" />
			<path
   class="st14"
   d="m 338.5,506.4 c -0.4,2.2 3.4,2.9 7.8,3.2 4.4,0.3 3,1 9,2.1 6,1.1 8.5,-0.2 8.9,-0.9 0.4,-0.6 -2.3,-1.6 -5.3,-2.7 -0.4,-0.1 -0.7,-0.3 -1.1,-0.4 -3.3,-1.3 -5.1,-3.8 -7.6,-6.1 -2.4,-2.2 -4.4,-9.2 -4.4,-9.2 l -8.1,-1.7 c 0,0 2,6.3 2.7,8.9 0.4,1.6 -0.4,3.3 -1,4.6 -0.4,0.7 -0.7,1.4 -0.9,2.2 z"
   id="path428" />
			<path
   class="st22"
   d="m 346.4,509.6 c 4.4,0.3 3,1 9,2.1 6,1.1 8.5,-0.2 8.9,-0.9 0.4,-0.6 -2.3,-1.6 -5.3,-2.7 v 0 c 0,0 -4.3,1 -9.1,-0.2 -4,-1 -7.7,-3 -10.4,-3.7 -0.4,0.7 -0.7,1.4 -0.9,2.2 -0.4,2.2 3.4,2.9 7.8,3.2 z"
   id="path430" />
			<path
   class="st27"
   d="m 277.7,416.5 c 0,0 54.4,4.5 63.3,11.1 9,6.6 7.4,68.4 7.4,68.4 -1.4,1.2 -2.4,1.1 -4.6,1 -2.1,-0.1 -6.4,-1.6 -6.4,-1.6 0,0 -11.6,-30.3 -11.8,-37.3 -0.1,-7 -2,-18.9 -5.7,-19.6 -3.7,-0.7 -47.7,3.2 -52.5,-7.8 -4.8,-11.1 3.2,-20.2 3.2,-20.2 z"
   id="path432" />
			<path
   class="st26"
   d="m 252.3,427.6 c 2.3,1.3 6.5,3.2 13.6,3.4 12.6,0.4 28.3,-0.8 31.4,-3.2 0.8,-0.6 1.2,-1.6 1.3,-2.9 0.3,-3.8 -2,-10.2 -3.5,-15.4 -1,-3.4 -1.7,-6.3 -1.1,-7.9 1.7,-4.6 7,-13.9 7.5,-17 0.5,-3.1 -4.1,-19.5 -10.5,-21.5 -6.4,-2 -30.9,0 -30.9,0 -9.6,1.5 -10,17.8 -6.8,31.6 0.1,0.4 0.2,0.7 0.3,1.1 3.3,14.2 -7.9,28.3 -1.3,31.8 z"
   id="path434" />
			<g
   id="g446">
				<path
   class="st14"
   d="m 283.9,366.2 c -0.2,0.9 -3.2,2.3 -9.8,1 -6.3,-1.3 -7,-2.9 -7,-4 0,-1.3 2.7,-3 2.7,-10.8 l 0.8,0.1 12.7,2 c 0,0 -0.3,3.2 -0.3,6.2 -0.1,2.4 1.2,4 0.9,5.5 z"
   id="path436" />
				<path
   class="st17"
   d="m 283.2,354.5 c 0,0 -0.3,3.2 -0.3,6.2 -7.1,-0.2 -10.8,-5.3 -12.4,-8.2 z"
   id="path438" />
				<path
   class="st14"
   d="m 285.6,357.3 c 0,0 -16.8,0.2 -16.8,-8.1 0,-8.3 -2.2,-13.9 8.5,-14.4 10.7,-0.5 12.8,2.7 13.6,5.5 0.8,2.8 -1,16.7 -5.3,17 z"
   id="path440" />
				<path
   class="st23"
   d="m 284.9,334.6 c 0,0 -4.6,9.8 -11.6,11.2 -7,1.4 -10.1,-0.1 -10.1,-0.1 0,0 5.4,-3.4 6.5,-9.4 0,0.1 11.8,-6.3 15.2,-1.7 z"
   id="path442" />
				<path
   class="st23"
   d="m 283.8,335.4 c 0,0 3.4,2.2 4.3,4.3 0.8,2.1 1.2,6.5 2.8,6.3 0,0 3.5,-6.6 -0.4,-10.4 -4.2,-3.9 -6.7,-0.2 -6.7,-0.2 z"
   id="path444" />
			</g>
			<path
   class="st14"
   d="m 297.7,508.2 c 0,2.2 3.8,2.5 8.2,2.4 4.4,-0.1 3.2,0.7 9.3,1.2 6.1,0.5 8.4,-1 8.8,-1.7 0.3,-0.6 -2.6,-1.3 -5.6,-2.2 -0.4,-0.1 -0.8,-0.2 -1.2,-0.3 -3.5,-1 -5.6,-3.3 -8.4,-5.4 -2.7,-2 3.2,-11.6 3.2,-11.6 l -7.8,-3.1 c 0,0 -1.5,6.9 -3.4,12.9 -0.5,1.6 -2.1,4.1 -2.6,5.5 -0.2,0.8 -0.5,1.5 -0.5,2.3 z"
   id="path448" />
			<path
   class="st28"
   d="m 252.6,426 c 2.3,1.3 6.2,4.8 13.2,5 11.6,-2.1 24.8,-4.6 32.7,-6 0.3,-3.8 -2,-10.2 -3.5,-15.4 -9.2,2.2 -22.8,-5.4 -27.4,-8.4 -4.8,-3.2 -4.7,-13.7 -4.7,-13.7 l -9.7,7.3 c 0.1,0.4 0.2,0.7 0.3,1.1 3.4,14.1 -7.5,26.6 -0.9,30.1 z"
   id="path450" />
			<path
   class="st22"
   d="m 305.9,510.6 c 4.4,-0.1 3.2,0.7 9.3,1.2 6.1,0.5 8.4,-1 8.8,-1.7 0.3,-0.6 -2.6,-1.3 -5.6,-2.2 v 0 c 0,0 -4.1,1.4 -9.1,0.7 -4.1,-0.6 -8.1,-2.3 -10.9,-2.8 -0.3,0.7 -0.5,1.5 -0.5,2.3 -0.2,2.3 3.6,2.6 8,2.5 z"
   id="path452" />
			<path
   class="st12"
   d="m 265.9,419.1 c 13.8,-0.3 55,2.3 62.9,7.1 9.7,5.9 -18.1,69.2 -18.1,69.2 0,0 -3.2,0.2 -4.3,0.2 -4.4,-0.4 -6.2,-1.5 -6.2,-1.5 0,0 0.1,-37.3 3.4,-44.4 3,-6.6 4.8,-8.9 1.1,-9.3 -3.8,-0.4 -50.8,4.4 -54.7,-6.9 -3.1,-8.8 1.5,-17 1.5,-17 0,0 1.7,2.9 14.4,2.6 z"
   id="path454" />
			<path
   class="st26"
   d="m 260,363.2 c 0,0 -9.6,0.6 -10.3,6.7 -0.6,4.6 -4.7,37.1 -1.7,39.9 8.5,8 36.6,9.6 40.8,10.9 l 1.1,-3.8 c 0,0 -30.1,-12.1 -29.6,-14.8 0.4,-2.7 8.9,-40 -0.3,-38.9 z"
   id="path456" />
			<path
   class="st23"
   d="m 267.4,329.7 c 0,0 0.7,-3.5 -5.4,-4.4 -6.1,-0.9 -6.2,9.4 -6.8,11.8 -0.6,2.4 1,4 3.3,4.1 2.3,0.2 8.9,-11.5 8.9,-11.5 z"
   id="path458" />
			<g
   id="g464">
				<path
   class="st14"
   d="m 290.2,416.8 c 0,0 8.6,-1.9 10.6,-1.5 2,0.5 9,4.1 8,5.1 -1,1 -7.1,-0.6 -10,-0.3 -2.8,0.3 -5,1.4 -7.1,1.2 -2,-0.2 -4.2,-0.9 -4.2,-0.9 z"
   id="path460" />
				<path
   class="st14"
   d="m 290.2,416.8 c 0,0 4.2,-1.7 5.4,-2.7 0.2,-0.1 0.4,-0.1 0.5,0 0.3,0.4 0.6,1.2 -0.9,1.9 -2,1.2 -5,0.8 -5,0.8 z"
   id="path462" />
			</g>
			<g
   id="g468">
				<path
   class="st14"
   d="m 320.2,417.6 c 0,0 8.9,0.4 10.6,1.3 1.7,1 6.9,6.3 5.5,6.9 -1.3,0.7 -6.5,-2.4 -9.3,-2.9 -2.8,-0.4 -5.3,0 -7.2,-0.7 -1.8,-0.8 -3.6,-1.9 -3.6,-1.9 z"
   id="path466" />
			</g>
		</g>
	</g>
	<g
   id="g522"
   transform="matrix(0.40941502,0,0,0.36507742,-107.65444,83.501499)">
		<g
   id="g500">
			<path
   class="st29"
   d="M 259.2,512.6 H 223 c -1.7,-1.7 -1.1,-7.9 -0.8,-10 0.1,-0.4 0.1,-0.6 0.1,-0.6 0,0 12.4,-7.9 14,-1.8 0.1,0.2 0.1,0.4 0.2,0.6 2.1,5.6 11.7,8.2 17.3,8.9 3.5,0.4 4.9,1.9 5.4,2.9 z"
   id="path474" />
			<path
   class="st22"
   d="m 160.5,419 c 1.3,0 62,9.1 72,19 5,4.9 5.8,62 5.8,62 0,0 -6.2,6.1 -19.6,2.6 0,0 -9.8,-39.1 -9.1,-50.9 0.2,-3.3 -41.4,-0.5 -49.1,-2 -7.6,-1.6 -26.2,-14.8 -22.1,-21.2 4,-6.6 22.1,-9.5 22.1,-9.5 z"
   id="path476" />
			<path
   class="st14"
   d="m 204.4,416.3 c 0,0 3.9,2.7 7.9,3.4 2.3,0.4 4.5,0.9 5.8,1.4 3.6,1.3 10.4,7.2 9.8,7.8 -2,1.9 -10.2,-3 -11.8,-2.7 -1.6,0.3 2.6,3.2 0.9,4 -0.9,0.4 -2.5,-2 -4,-2.4 -2,-0.5 -3.4,-2.9 -4,-3.1 -1.2,-0.3 -6.2,-3.9 -6.2,-3.9 z"
   id="path478" />
			<path
   class="st30"
   d="M 275.2,512.6 H 239 c -1.7,-1.7 -1.1,-7.9 -0.8,-10 0.1,-0.4 0.1,-0.6 0.1,-0.6 0,0 12.4,-7.9 14,-1.8 0.1,0.2 0.1,0.4 0.2,0.6 2.1,5.6 11.7,8.2 17.3,8.9 3.5,0.4 4.9,1.9 5.4,2.9 z"
   id="path480" />
			<path
   class="st31"
   d="m 178.3,419 c 1.3,0 62,9.1 72,19 5,4.9 5.8,62 5.8,62 0,0 -6.2,6.1 -19.6,2.6 0,0 -9.8,-39.1 -9.1,-50.9 0.2,-3.3 -41.4,-0.5 -49.1,-2 -7.6,-1.6 -26.2,-14.8 -22.1,-21.2 4.1,-6.6 22.1,-9.5 22.1,-9.5 z"
   id="path482" />
			<path
   class="st14"
   d="m 174.5,360.3 c -4.4,-0.3 -8.9,-1.2 -12.9,-2.2 -4.9,-1.3 -8.9,-3.1 -6.4,-6.7 2.4,-3.3 6.2,-10.7 5.9,-16.9 l 9.2,5.9 6.2,4 c 0,0 0,2.4 -0.7,6.5 -0.1,0.8 -0.3,1.6 -0.4,2.4 -0.1,0.7 0.3,1.4 1,1.8 0,0 0.1,0 0.1,0.1 3.3,1.5 1.7,5.3 -2,5.1 z"
   id="path484" />
			<path
   class="st17"
   d="m 176.7,343.4 c 0,0 0.3,0.9 -0.2,4 -5.6,-0.7 -10.8,-4.3 -10.8,-4.3 2.8,-0.6 3.9,-3.1 6,-2.8 z"
   id="path486" />
			<path
   class="st14"
   d="m 181.8,344.1 c 0,0 -21.4,2.8 -23.4,-7.8 -2,-10.7 -6.1,-17.5 7.5,-19.7 13.6,-2.3 17,1.5 18.8,4.9 1.7,3.4 2.6,21.6 -2.9,22.6 z"
   id="path488" />
			<path
   class="st31"
   d="m 187.8,316.7 c 0.9,2.6 -1.5,5.7 -5.7,6.7 -6.1,1.5 -4.8,7.5 -7.5,7.4 -2.8,-0.1 -3.9,-3.4 -6.3,-0.8 -2.1,2.3 1.8,5 1.5,6.3 -0.5,2.2 -4.7,6.6 -8.5,6.4 -3.8,-0.2 -11,-14.7 -9.6,-19.2 1.4,-4.5 7.2,-9.2 12.6,-9.9 5.4,-0.7 12.9,1.2 14.7,1.2 1.6,0.1 8.3,0.5 8.8,1.9 z"
   id="path490" />
			<path
   class="st11"
   d="m 193.1,415.8 c -0.4,2.5 -1,4.1 -2,4.7 -3.2,1.7 -7.4,3.8 -12.2,5.9 -16.8,7.4 -39.7,14.6 -44.4,2 -5.5,-14.8 -1.9,-42.5 3.5,-59.8 3.1,-9.9 11.7,-20.3 17.4,-20.3 9.9,0 24,2.1 29.8,13.3 2.2,4.4 5.5,19.5 7.1,33.3 1.1,8.3 1.5,16.1 0.8,20.9 z"
   id="path492" />
			<path
   class="st25"
   d="m 154.5,348.4 2.2,-4 c 0,0 19.8,1.6 23.2,10.7 0,0 -15.3,-6.5 -25.4,-6.7 z"
   id="path494" />
			<path
   class="st25"
   d="m 193.1,415.8 c -0.4,2.5 -1,4.1 -2,4.7 -3.2,1.7 -7.4,3.8 -12.2,5.9 -4.9,-2.4 -15.1,-8.1 -17.4,-14.8 -3.1,-8.8 -0.9,-19.6 -0.9,-19.6 z"
   id="path496" />
			<path
   class="st11"
   d="m 158.5,361.9 c 0,0 1.7,37.7 4.4,45.2 4.6,12.7 46.5,17.3 46.5,17.3 0,0 2.5,-2.2 1.4,-5.9 0,0 -25.1,-15.7 -25.8,-18.7 -0.7,-3 5.5,-23.3 -1.6,-30.7 -7.1,-7.4 -20.1,-13.8 -24.9,-7.2 z"
   id="path498" />
		</g>
		<g
   id="g520">
			<g
   id="g504">
				<path
   class="st7"
   d="m 106,512.3 h -0.1 c -1.1,0 -2,-0.8 -1.9,-1.6 l 7.5,-59.9 6.6,0.5 -10.8,60.2 c -0.2,0.4 -0.7,0.8 -1.3,0.8 z"
   id="path502" />
			</g>
			<g
   id="g508">
				<path
   class="st7"
   d="m 144.7,512.3 h -0.1 c -1.1,0 -2,-0.8 -1.9,-1.6 l 7.5,-59.9 6.6,0.5 -10.8,60.1 c -0.1,0.5 -0.7,0.9 -1.3,0.9 z"
   id="path506" />
			</g>
			<g
   id="g512">
				<path
   class="st7"
   d="m 217.5,512.3 h 0.1 c 1.1,0 2,-0.8 1.9,-1.6 l -7.5,-59.9 -6.6,0.5 10.8,60.2 c 0.1,0.4 0.6,0.8 1.3,0.8 z"
   id="path510" />
			</g>
			<path
   class="st7"
   d="m 108.1,442.3 -7.1,-50 c -0.9,-7.2 2.1,-14.3 15.2,-14.8 l 23,-1.1 c 13.6,-0.4 19.8,8.6 21.5,15.5 l 13.6,55 z"
   id="path514" />
			<path
   class="st7"
   d="m 113,451.6 h 99.8 c 2.6,0 4.8,-2.2 4.8,-4.8 v 0 c 0,-2.6 -2.2,-4.8 -4.8,-4.8 H 108.2 v 4.8 c 0,2.7 2.2,4.8 4.8,4.8 z"
   id="path516" />
			<path
   class="st7"
   d="m 113,451.6 h 56.4 c 2.6,0 4.8,-2.2 4.8,-4.8 v 0 c 0,-2.6 -2.2,-4.8 -4.8,-4.8 h -61.2 v 4.8 c 0,2.7 2.2,4.8 4.8,4.8 z"
   id="path518" />
		</g>
	</g>
	<path
   class="st32"
   d="M 284.09512,271.44336 H -75.902715 c -0.317458,0 -0.595239,-0.25555 -0.595239,-0.54762 v 0 c 0,-0.29205 0.277781,-0.54761 0.595239,-0.54761 H 284.09512 c 0.31746,0 0.59523,0.25556 0.59523,0.54761 v 0 c 0,0.32857 -0.27777,0.54762 -0.59523,0.54762 z"
   id="path524"
   style="stroke-width:0.38062" />
	<g
   id="g572"
   transform="matrix(0.40941502,0,0,0.36507742,-107.65444,83.501499)">
		<path
   class="st7"
   d="m 263.1,290.3 h -22.3 c -5.2,0 -9.5,-4.3 -9.5,-9.5 V 268 c 0,-5.2 4.3,-9.5 9.5,-9.5 h 22.3 c 5.2,0 9.5,4.3 9.5,9.5 v 12.9 c 0,5.2 -4.3,9.4 -9.5,9.4 z"
   id="path526" />
		<path
   class="st25"
   d="m 262.2,289 h -20.3 c -4.8,0 -8.6,-3.9 -8.6,-8.6 v -11.8 c 0,-4.8 3.9,-8.6 8.6,-8.6 h 20.3 c 4.8,0 8.6,3.9 8.6,8.6 v 11.8 c 0,4.7 -3.9,8.6 -8.6,8.6 z"
   id="path528" />
		<g
   id="g558">
			<g
   id="g544">
				<ellipse
   class="st7"
   cx="252"
   cy="262.79999"
   rx="0.89999998"
   ry="0.69999999"
   id="ellipse530" />
				<path
   class="st7"
   d="m 258,263.7 c 0.2,-0.3 0.7,-0.4 1.2,-0.3 0.4,0.2 0.6,0.6 0.3,0.9 -0.2,0.3 -0.7,0.4 -1.2,0.3 -0.3,-0.1 -0.5,-0.5 -0.3,-0.9 z"
   id="path532" />
				<path
   class="st7"
   d="m 263.9,267.5 c 0.4,-0.2 0.9,-0.1 1.2,0.2 0.3,0.3 0.1,0.7 -0.3,0.9 -0.4,0.2 -0.9,0.1 -1.2,-0.2 -0.2,-0.3 -0.1,-0.7 0.3,-0.9 z"
   id="path534" />
				<path
   class="st7"
   d="m 266.9,273.3 c 0.5,0 0.9,0.3 0.9,0.7 0,0.4 -0.4,0.7 -0.9,0.7 -0.5,0 -0.9,-0.3 -0.9,-0.7 0,-0.4 0.4,-0.7 0.9,-0.7 z"
   id="path536" />
				<ellipse
   class="st7"
   cx="264.79999"
   cy="280.39999"
   rx="0.89999998"
   ry="0.69999999"
   id="ellipse538" />
				<path
   class="st7"
   d="m 260,284.2 c 0.3,0.3 0.3,0.7 0,1 -0.3,0.3 -0.9,0.3 -1.2,0 -0.3,-0.3 -0.3,-0.7 0,-1 0.3,-0.2 0.9,-0.2 1.2,0 z"
   id="path540" />
				<ellipse
   class="st7"
   cx="252"
   cy="286.39999"
   rx="0.89999998"
   ry="0.69999999"
   id="ellipse542" />
			</g>
			<g
   id="g556">
				<path
   class="st7"
   d="m 246,263.7 c -0.2,-0.3 -0.7,-0.4 -1.2,-0.3 -0.4,0.2 -0.6,0.6 -0.3,0.9 0.2,0.3 0.7,0.4 1.2,0.3 0.3,-0.1 0.5,-0.5 0.3,-0.9 z"
   id="path546" />
				<path
   class="st7"
   d="m 240.1,267.5 c -0.4,-0.2 -0.9,-0.1 -1.2,0.2 -0.3,0.3 -0.1,0.7 0.3,0.9 0.4,0.2 0.9,0.1 1.2,-0.2 0.2,-0.3 0.1,-0.7 -0.3,-0.9 z"
   id="path548" />
				<path
   class="st7"
   d="m 237.1,273.3 c -0.5,0 -0.9,0.3 -0.9,0.7 0,0.4 0.4,0.7 0.9,0.7 0.5,0 0.9,-0.3 0.9,-0.7 0,-0.4 -0.4,-0.7 -0.9,-0.7 z"
   id="path550" />
				<ellipse
   class="st7"
   cx="239.2"
   cy="280.39999"
   rx="0.89999998"
   ry="0.69999999"
   id="ellipse552" />
				<path
   class="st7"
   d="m 244,284.2 c -0.3,0.3 -0.3,0.7 0,1 0.3,0.3 0.9,0.3 1.2,0 0.3,-0.3 0.3,-0.7 0,-1 -0.3,-0.2 -0.9,-0.2 -1.2,0 z"
   id="path554" />
			</g>
		</g>
		<g
   id="g570">
			<path
   class="st7"
   d="m 251.8,273.9 c 0,-0.4 0.4,-0.7 0.9,-0.7 0.5,0 0.9,0.3 0.9,0.7 0,0.4 -0.4,0.7 -0.9,0.7 -0.5,0 -0.9,-0.3 -0.9,-0.7 z"
   id="path560" />
			<g
   id="g564">
				<rect
   x="252.5"
   y="265.39999"
   class="st7"
   width="0.2"
   height="8.5"
   id="rect562" />
			</g>
			<g
   id="g568">
				<polygon
   class="st7"
   points="252.3,273.7 258,270.2 258.4,270.6 252.7,274.1 "
   id="polygon566" />
			</g>
		</g>
	</g>
</g>
</svg>
