<?xml version="1.0" encoding="UTF-8" standalone="no"?>
<!-- Generator: Adobe Illustrator 25.1.0, SVG Export Plug-In . SVG Version: 6.00 Build 0)  -->

<svg
   version="1.1"
   id="Calque_1"
   x="0px"
   y="0px"
   viewBox="0 0 350 150"
   xml:space="preserve"
   sodipodi:docname="jober.svg"
   inkscape:version="1.1 (c68e22c387, 2021-05-23)"
   inkscape:export-filename="C:\Users\Elvis Caleb\Desktop\les outils SVG\jober2.png"
   inkscape:export-xdpi="274.28571"
   inkscape:export-ydpi="274.28571"
   width="350"
   height="150"
   xmlns:inkscape="http://www.inkscape.org/namespaces/inkscape"
   xmlns:sodipodi="http://sodipodi.sourceforge.net/DTD/sodipodi-0.dtd"
   xmlns="http://www.w3.org/2000/svg"
   xmlns:svg="http://www.w3.org/2000/svg"><defs
   id="defs363"><inkscape:path-effect
     effect="spiro"
     id="path-effect24410"
     is_visible="true"
     lpeversion="1" /></defs><sodipodi:namedview
   id="namedview361"
   pagecolor="#505050"
   bordercolor="#eeeeee"
   borderopacity="1"
   inkscape:pageshadow="0"
   inkscape:pageopacity="0"
   inkscape:pagecheckerboard="0"
   showgrid="false"
   inkscape:zoom="9.1133333"
   inkscape:cx="156.80322"
   inkscape:cy="36.814192"
   inkscape:window-width="1920"
   inkscape:window-height="1001"
   inkscape:window-x="-9"
   inkscape:window-y="-9"
   inkscape:window-maximized="1"
   inkscape:current-layer="Calque_1"
   width="1e-05in"
   units="px" />
<style
   type="text/css"
   id="style2">
	.st0{fill:#ECF6F8;}
	.st1{opacity:0.6;fill:#9EBEE5;}
	.st2{opacity:0.3;fill:#9EBEE5;}
	.st3{fill:#5184C0;}
	.st4{fill:#3C8F7C;}
	.st5{fill:#9AD1C5;}
	.st6{fill:#56BAA3;}
	.st7{fill:#3E907C;}
	.st8{fill:#E6A03A;}
	.st9{fill:#E9AF55;}
	.st10{fill:#F7CC7F;}
	.st11{fill:#0F2E35;}
	.st12{opacity:0.8;fill:#FFFFFF;}
	.st13{fill:#183442;}
	.st14{fill:#EEA886;}
	.st15{fill:#8B674E;}
	.st16{fill:#4B4040;}
	.st17{fill:#C9C3C4;}
	.st18{fill:#D08D6C;}
	.st19{fill:#39546A;}
	.st20{fill:#DB9C7C;}
	.st21{fill:#EEA987;}
	.st22{fill:#C88E72;}
	.st23{fill:#EE722E;}
	.st24{fill:#D16022;}
	.st25{fill:#D9C9BE;}
</style>
<path
   class="st0"
   d="m 107.68999,3.4070477 c 35.78665,-1.9520624 70.30919,-10.0385896 95.35511,9.7835703 16.98041,13.438841 1.83358,51.77552 21.2582,61.355971 15.16499,7.479553 31.24292,-15.816224 48.15452,-15.965258 8.77538,-0.07733 11.14403,0.03442 25.12962,7.842671 13.98559,7.91099 23.12175,80.571038 17.36298,80.571038 l -251.468651,0.49092 -2.570881,0.10274 c 0,0 -24.013446,-29.27729 -29.034509,-46.98718 C 29.471294,92.118495 29.653753,82.676636 31.903686,74.151232 33.797765,66.974223 37.608292,60.005008 42.872599,54.767771 51.712587,45.973241 65.638213,44.098379 75.529661,36.503327 87.732182,27.133744 71.903332,5.3591101 107.68999,3.4070477 Z"
   id="path4"
   sodipodi:nodetypes="saaaccccaaaas"
   style="stroke-width:1.02788" /><g
   id="g10501"
   transform="matrix(1.0283521,0,0,1.0274012,-84.769429,71.183644)"><rect
     x="239.6136"
     y="-1.0326978"
     class="st1"
     width="15.9"
     height="65.400002"
     id="rect14" /><rect
     x="321.23682"
     y="-46.760277"
     class="st1"
     width="15.9"
     height="114.2"
     id="rect6" /><rect
     x="294.98654"
     y="-14.154863"
     class="st1"
     width="15.9"
     height="79.300003"
     id="rect8" /><rect
     x="350.32056"
     y="-23.377031"
     class="st1"
     width="15.9"
     height="89.400002"
     id="rect10" /><rect
     x="265.76385"
     y="-28.6327"
     class="st1"
     width="15.9"
     height="92.900002"
     id="rect12" /></g><g
   id="g26"
   transform="matrix(1.0283521,0,0,1.0274012,8.2592608,0.05388692)">
		<rect
   x="115.4"
   y="89.900002"
   class="st2"
   width="15.9"
   height="50.299999"
   id="rect24" /><rect
   x="182.10001"
   y="52.400002"
   class="st2"
   width="15.9"
   height="87.800003"
   id="rect16" />
		<rect
   x="159.8"
   y="79.199997"
   class="st2"
   width="15.9"
   height="61"
   id="rect18" />
		<rect
   x="204.60001"
   y="71.400002"
   class="st2"
   width="15.9"
   height="68.800003"
   id="rect20" />
		<rect
   x="137.60001"
   y="68.699997"
   class="st2"
   width="15.9"
   height="71.5"
   id="rect22" />
		
	</g><polygon
   class="st3"
   points="224,37.6 227.1,40.7 228.3,27 215.6,35.9 220.5,36.1 190.2,85.5 173.4,62.2 149.7,113.5 134.4,93.4 115.4,118.3 116.6,122.8 134.4,99.6 150.5,120.8 174.2,69.7 190.4,92.3 "
   id="polygon28"
   transform="matrix(1.0283521,0,0,1.0274012,39.441665,-14.968945)" /><path
   class="st19"
   d="m 134.64374,109.36938 c 0,-2.87672 4.73041,-27.73984 4.73041,-28.767241 0.10284,-0.821921 1.02836,-6.267147 1.4397,-10.376752 0.20567,-1.746582 0.41134,-3.801385 0.41134,-3.801385 0,0 5.96444,-1.130141 12.34022,-1.335621 3.70207,-0.10274 8.53533,0 11.82605,1.335621 0.10284,0.719181 0.61701,3.801385 0.71985,4.212345 1.23402,7.602769 0.71985,17.568561 0.92552,23.938449 0.3085,7.294554 0,14.178144 -0.10284,16.232944 0,0.82192 -0.82268,26.81517 -0.82268,26.81517 0,0 -5.03893,1.23288 -7.50697,0 v -0.41096 l -0.92552,-13.86991 v -0.71919 c -0.41134,-6.1644 -0.82268,-12.22607 -0.82268,-13.25347 0,-3.80139 -2.98222,-25.479557 -3.90774,-25.582297 -0.92551,-0.10274 -6.58145,21.472687 -7.6098,27.226137 0,0 -3.59924,20.75351 -6.06728,27.12339 -7.09563,1.64384 -8.12398,-0.71918 -8.12398,-0.71918 0,0 3.4964,-25.17133 3.4964,-28.04805 z"
   id="path306"
   style="fill:#39546a;fill-opacity:1;stroke-width:1.02788" /><g
   id="g42"
   transform="matrix(1.0283521,0,0,1.0274012,23.067531,1.8004658)">
		<path
   class="st4"
   d="M 100.9,107.2 C 82.7,93.8 67.4,76.4 55.8,56.1 c -8.3,6.2 -16.7,12.4 -25,18.6 13.4,23.6 31.1,43.7 52.1,59.2 6,-8.9 12,-17.8 18,-26.7 z"
   id="path30" />
		<path
   class="st5"
   d="m 51.8,60.9 c -5.2,3.9 -10.4,7.8 -15.6,11.8 1.2,2.1 0.8,5 -1.1,6.5 11.8,19.3 26.5,36 43.7,49.6 1.4,-2 4.1,-2.3 6,-0.9 3.8,-5.5 7.6,-11 11.4,-16.5 -1.8,-1.3 -2,-4 -0.6,-6 -15,-12 -28,-26.7 -38.3,-43.6 -1.9,1.5 -4.3,1.1 -5.5,-0.9 z"
   id="path32" />
		<g
   id="g40">
			<path
   class="st6"
   d="m 72.8,105 c 3.9,-4.6 3.9,-11.5 0.2,-15.6 -3.7,-4.1 -10,-4.3 -14.3,-0.1 -4.3,4.1 -4.8,11.5 -0.6,16.1 4.1,4.5 10.8,4.2 14.7,-0.4 z"
   id="path34" />
			<path
   class="st7"
   d="m 72.6,91.8 c -0.5,0.5 -1,1 -1.5,1.5 1.2,2 0.9,4 -0.3,5.4 -1.3,1.3 -2.7,1.5 -4.9,0.3 -1.6,-0.8 -2.3,-1.1 -2.8,-0.6 -0.4,0.4 -0.5,1.1 0.3,2.2 0.5,0.5 0.9,0.9 1.4,1.2 0.6,0.3 0.7,1.1 0.4,1.7 v 0 c -0.3,0.6 -1,0.8 -1.6,0.4 -0.4,-0.3 -0.9,-0.7 -1.4,-1.2 -0.4,0.4 -0.8,0.9 -1.3,1.3 -0.4,-0.5 -0.9,-1 -1.3,-1.6 0.5,-0.5 0.9,-0.9 1.4,-1.4 -1.1,-2 -0.9,-4 0.4,-5.2 1.4,-1.4 3.1,-1 5,0.1 1.3,0.8 2.1,0.9 2.6,0.3 0.6,-0.6 0.4,-1.5 -0.3,-2.3 -0.5,-0.6 -1.1,-1 -1.6,-1.4 -0.6,-0.3 -0.7,-1.1 -0.3,-1.7 0,0 0,0 0,-0.1 0.3,-0.5 1,-0.7 1.5,-0.4 0.6,0.4 1.2,0.9 1.8,1.5 0.5,-0.5 0.9,-0.9 1.4,-1.4 0.2,0.5 0.6,0.9 1.1,1.4 z"
   id="path36" />
			<path
   class="st6"
   d="m 87.2,117 c -4.2,-3.3 -8.1,-6.8 -12,-10.5 -0.7,0.8 -1.3,1.6 -2,2.4 3.9,3.7 7.9,7.3 12.2,10.6 0.6,-0.9 1.2,-1.7 1.8,-2.5 z"
   id="path38" />
		</g>
	</g><g
   id="g54"
   transform="matrix(1.0283521,0,0,1.0274012,23.067531,1.8004658)">
		<path
   class="st4"
   d="M 97.2,101.8 C 74.3,99.1 51.8,92.1 31,80.9 c -4,8.6 -7.9,17.2 -11.9,25.8 24.1,12.9 50,21 76.5,24.2 0.5,-9.7 1,-19.4 1.6,-29.1 z"
   id="path44" />
		<path
   class="st5"
   d="m 30.2,86.5 c -2.4,5.4 -4.9,10.8 -7.3,16.1 2.2,1.2 3.3,3.6 2.5,5.6 20.4,10.1 42,17 64.1,20.2 0.2,-2.2 2.3,-3.6 4.7,-3.3 0.4,-6 0.7,-12.1 1.1,-18.1 -2.2,-0.3 -3.9,-2.3 -3.7,-4.5 -19.4,-2.9 -38.4,-8.9 -56.3,-17.8 -0.7,2.1 -3.1,2.9 -5.1,1.8 z"
   id="path46" />
		<g
   id="g52">
			<path
   class="st6"
   d="m 71.7,112.3 c 0.9,-5.4 -2.7,-10.8 -8.1,-12.5 -5.3,-1.6 -10.9,1 -12.5,6.1 -1.6,5.2 1.9,11.2 7.9,13 6.1,2 11.7,-1.2 12.7,-6.6 z"
   id="path48" />
			<path
   class="st7"
   d="m 64.5,102 c -0.2,0.6 -0.3,1.2 -0.5,1.8 2.1,1.1 2.9,2.8 2.5,4.4 -0.4,1.6 -1.6,2.4 -4.1,2.4 -1.8,0 -2.6,0.2 -2.8,0.8 -0.1,0.5 0.1,1.1 1.4,1.6 0.7,0.2 1.3,0.3 1.8,0.3 0.7,0 1.2,0.6 1.2,1.2 v 0 c 0,0.6 -0.5,1.1 -1.1,1 -0.5,0 -1.1,-0.1 -1.9,-0.3 -0.1,0.5 -0.3,1.1 -0.4,1.6 -0.7,-0.2 -1.3,-0.4 -2,-0.7 0.2,-0.6 0.3,-1.1 0.5,-1.7 -2,-1.1 -2.9,-2.8 -2.4,-4.3 0.5,-1.7 2.2,-2.1 4.4,-2.1 1.5,0 2.3,-0.2 2.4,-0.9 0.2,-0.7 -0.5,-1.4 -1.5,-1.7 -0.7,-0.2 -1.5,-0.4 -2.1,-0.4 -0.7,0 -1.2,-0.6 -1.2,-1.2 0,0 0,0 0,-0.1 0,-0.6 0.5,-1 1.1,-1 0.7,0 1.5,0.2 2.3,0.4 0.2,-0.6 0.3,-1.1 0.5,-1.7 0.7,0.2 1.3,0.4 1.9,0.6 z"
   id="path50" />
		</g>
	</g><g
   id="g68"
   transform="matrix(1.0283521,0,0,1.0274012,23.067531,1.8004658)">
		<path
   class="st4"
   d="m 91.2,106.6 c -18,6.6 -37.9,9.6 -58.5,8.9 1.4,8.1 2.7,16.3 4.1,24.4 23.9,0.8 46.9,-2.6 67.7,-10.3 -4.4,-7.6 -8.9,-15.3 -13.3,-23 z"
   id="path56" />
		<path
   class="st5"
   d="m 34.9,120.1 c 0.9,5.1 1.8,10.2 2.7,15.3 2.2,0.1 4.2,1.6 4.6,3.4 19.9,0.1 39,-2.8 56.7,-8.6 -0.9,-1.7 -0.1,-3.7 1.8,-4.3 -2.7,-4.8 -5.4,-9.6 -8.2,-14.4 -1.8,0.6 -3.9,-0.3 -4.9,-2.1 -15.5,5.1 -32.4,7.7 -49.8,7.6 0.4,1.7 -0.9,3.1 -2.9,3.1 z"
   id="path58" />
		<g
   id="g66">
			<path
   class="st6"
   d="m 77.9,124.4 c -2,-4.5 -7.4,-7.3 -12.1,-6.6 -4.7,0.8 -7.5,4.9 -6,9.5 1.4,4.6 6.9,7.9 12.2,7.1 5.3,-0.9 7.9,-5.5 5.9,-10 z"
   id="path60" />
			<path
   class="st7"
   d="m 67.5,119.1 c 0.2,0.5 0.4,1.1 0.6,1.6 2,0 3.5,1.1 4,2.5 0.5,1.4 0,2.4 -1.8,3.4 -1.3,0.7 -1.8,1.1 -1.6,1.6 0.1,0.4 0.7,0.8 1.8,0.7 0.6,-0.1 1.1,-0.2 1.5,-0.4 0.5,-0.2 1.2,0 1.5,0.5 v 0 c 0.3,0.5 0.2,1 -0.3,1.2 -0.4,0.2 -0.9,0.3 -1.5,0.4 0.2,0.5 0.3,0.9 0.5,1.4 -0.6,0.1 -1.2,0.2 -1.8,0.2 -0.2,-0.5 -0.3,-1 -0.5,-1.5 -2,-0.1 -3.5,-1.1 -3.9,-2.4 -0.5,-1.5 0.5,-2.5 2.2,-3.3 1.1,-0.6 1.5,-1 1.3,-1.6 -0.2,-0.6 -1,-0.9 -2,-0.7 -0.7,0.1 -1.2,0.3 -1.7,0.5 -0.5,0.2 -1.2,0 -1.5,-0.5 0,0 0,0 0,-0.1 -0.3,-0.5 -0.2,-1 0.3,-1.2 0.5,-0.2 1.2,-0.5 1.9,-0.6 -0.2,-0.5 -0.3,-1 -0.5,-1.5 0.4,-0.1 0.9,-0.1 1.5,-0.2 z"
   id="path62" />
			<path
   class="st6"
   d="m 93.1,119.8 c -4.3,1.4 -8.7,2.6 -13.1,3.7 0.3,0.8 0.7,1.5 1,2.3 4.5,-1.1 8.9,-2.3 13.3,-3.7 -0.4,-0.8 -0.8,-1.6 -1.2,-2.3 z"
   id="path64" />
		</g>
	</g><g
   id="g100"
   transform="matrix(1.0283521,0,0,1.0274012,18.234276,-14.432474)">
		<path
   class="st8"
   d="m 57.1,127.1 v 6 c 0,1 11.6,1.7 26,1.7 14.3,0 26,-0.8 26,-1.7 v -6 z"
   id="path86" />
		<g
   id="g94">
			<path
   class="st9"
   d="m 75.9,134.8 v -7.6 H 57.1 v 6 c 0,0.7 7.9,1.4 18.8,1.6 z"
   id="path88" />
			<path
   class="st9"
   d="m 76.8,134.8 c 2,0 4.1,0.1 6.3,0.1 3.2,0 6.3,0 9.2,-0.1 v -7.6 H 76.8 Z"
   id="path90" />
			<path
   class="st9"
   d="m 93.3,134.7 c 9.2,-0.3 15.7,-0.9 15.7,-1.6 v -6 H 93.3 Z"
   id="path92" />
		</g>
		<ellipse
   class="st8"
   cx="83.099998"
   cy="127.1"
   rx="26"
   ry="1.7"
   id="ellipse96" />
		<path
   class="st10"
   d="m 104.4,127.1 c 0,0.7 -9.6,1.2 -21.4,1.2 -11.8,0 -21.4,-0.5 -21.4,-1.2 0,-0.7 9.6,-1.2 21.4,-1.2 11.9,0 21.4,0.5 21.4,1.2 z"
   id="path98" />
	</g><g
   id="g116"
   transform="matrix(1.0283521,0,0,1.0274012,13.503857,7.8621326)">
		<path
   class="st8"
   d="m 60.1,120.7 v 6 c 0,1 11.6,1.7 26,1.7 14.3,0 26,-0.8 26,-1.7 v -6 z"
   id="path102" />
		<g
   id="g110">
			<path
   class="st9"
   d="m 78.8,128.3 v -7.6 H 60.1 v 6 c 0,0.7 7.9,1.4 18.7,1.6 z"
   id="path104" />
			<path
   class="st9"
   d="m 79.7,128.3 c 2,0 4.1,0.1 6.3,0.1 3.2,0 6.3,0 9.2,-0.1 v -7.6 H 79.7 Z"
   id="path106" />
			<path
   class="st9"
   d="m 96.2,128.2 c 9.2,-0.3 15.7,-0.9 15.7,-1.6 v -6 H 96.2 Z"
   id="path108" />
		</g>
		<ellipse
   class="st8"
   cx="86"
   cy="120.6"
   rx="26"
   ry="1.7"
   id="ellipse112" />
		<path
   class="st10"
   d="m 107.4,120.6 c 0,0.7 -9.6,1.2 -21.4,1.2 -11.8,0 -21.4,-0.5 -21.4,-1.2 0,-0.7 9.6,-1.2 21.4,-1.2 11.8,0 21.4,0.5 21.4,1.2 z"
   id="path114" />
	</g><g
   id="g148"
   transform="matrix(1.0283521,0,0,1.0274012,23.067531,1.8004658)">
		<path
   class="st8"
   d="m 238.8,132.9 v 5.7 c 0,0.9 -11.2,1.7 -25,1.7 -13.8,0 -25,-0.8 -25,-1.7 v -5.7 z"
   id="path134" />
		<g
   id="g142">
			<path
   class="st9"
   d="m 220.8,140.3 v -7.4 h 18.1 v 5.7 c -0.1,0.8 -7.7,1.5 -18.1,1.7 z"
   id="path136" />
			<path
   class="st9"
   d="m 219.9,140.3 c -1.9,0 -4,0 -6.1,0 -3.1,0 -6.1,0 -8.8,-0.1 v -7.3 h 14.9 z"
   id="path138" />
			<path
   class="st9"
   d="m 204,140.2 c -8.9,-0.3 -15.1,-0.9 -15.1,-1.5 V 133 H 204 Z"
   id="path140" />
		</g>
		<ellipse
   class="st8"
   cx="213.89999"
   cy="132.89999"
   rx="25"
   ry="1.7"
   id="ellipse144" />
		<path
   class="st10"
   d="m 193.3,132.9 c 0,0.6 9.2,1.2 20.6,1.2 11.4,0 20.6,-0.5 20.6,-1.2 0,-0.6 -9.2,-1.2 -20.6,-1.2 -11.4,0 -20.6,0.5 -20.6,1.2 z"
   id="path146" />
	</g><g
   id="g164"
   transform="matrix(1.0283521,0,0,1.0274012,23.067531,1.8004658)">
		<path
   class="st8"
   d="m 243.1,126.9 v 5.7 c 0,0.9 -11.2,1.7 -25,1.7 -13.8,0 -25,-0.8 -25,-1.7 v -5.7 z"
   id="path150" />
		<g
   id="g158">
			<path
   class="st9"
   d="m 225,134.2 v -7.4 h 18.1 v 5.7 c 0,0.9 -7.6,1.5 -18.1,1.7 z"
   id="path152" />
			<path
   class="st9"
   d="m 224.2,134.2 c -1.9,0 -4,0 -6.1,0 -3.1,0 -6.1,0 -8.8,-0.1 v -7.3 h 14.9 z"
   id="path154" />
			<path
   class="st9"
   d="m 208.3,134.2 c -8.9,-0.3 -15.1,-0.9 -15.1,-1.5 V 127 h 15.1 z"
   id="path156" />
		</g>
		<ellipse
   class="st8"
   cx="218.10001"
   cy="126.8"
   rx="25"
   ry="1.7"
   id="ellipse160" />
		<ellipse
   class="st10"
   cx="218.10001"
   cy="126.8"
   rx="20.6"
   ry="1.2"
   id="ellipse162" />
	</g><g
   id="g180"
   transform="matrix(1.0283521,0,0,1.0274012,23.067531,1.8004658)">
		<path
   class="st8"
   d="m 240.3,120.6 v 5.7 c 0,0.9 -11.2,1.7 -25,1.7 -13.8,0 -25,-0.8 -25,-1.7 v -5.7 z"
   id="path166" />
		<g
   id="g174">
			<path
   class="st9"
   d="m 222.2,128 v -7.4 h 18.1 v 5.7 c 0,0.8 -7.7,1.5 -18.1,1.7 z"
   id="path168" />
			<path
   class="st9"
   d="m 221.4,128 c -1.9,0 -4,0 -6.1,0 -3.1,0 -6.1,0 -8.8,-0.1 v -7.3 h 14.9 z"
   id="path170" />
			<path
   class="st9"
   d="m 205.5,127.9 c -8.9,-0.3 -15.1,-0.9 -15.1,-1.5 v -5.7 h 15.1 z"
   id="path172" />
		</g>
		<ellipse
   class="st8"
   cx="215.3"
   cy="120.6"
   rx="25"
   ry="1.7"
   id="ellipse176" />
		<ellipse
   class="st10"
   cx="215.3"
   cy="120.6"
   rx="20.6"
   ry="1.2"
   id="ellipse178" />
	</g><g
   id="g196"
   transform="matrix(1.0283521,0,0,1.0274012,23.067531,1.8004658)">
		<path
   class="st8"
   d="m 243.1,114.5 v 5.7 c 0,0.9 -11.2,1.7 -25,1.7 -13.8,0 -25,-0.8 -25,-1.7 v -5.7 z"
   id="path182" />
		<g
   id="g190">
			<path
   class="st9"
   d="m 225,121.8 v -7.4 h 18.1 v 5.7 c 0,0.9 -7.6,1.5 -18.1,1.7 z"
   id="path184" />
			<path
   class="st9"
   d="m 224.2,121.9 c -1.9,0 -4,0 -6.1,0 -3.1,0 -6.1,0 -8.8,-0.1 v -7.3 h 14.9 z"
   id="path186" />
			<path
   class="st9"
   d="m 208.3,121.8 c -8.9,-0.3 -15.1,-0.9 -15.1,-1.5 v -5.7 h 15.1 z"
   id="path188" />
		</g>
		<ellipse
   class="st8"
   cx="218.10001"
   cy="114.4"
   rx="25"
   ry="1.7"
   id="ellipse192" />
		<ellipse
   class="st10"
   cx="218.10001"
   cy="114.4"
   rx="20.6"
   ry="1.2"
   id="ellipse194" />
	</g><g
   id="g212"
   transform="matrix(1.0283521,0,0,1.0274012,23.067531,1.8004658)">
		<path
   class="st8"
   d="m 254.7,107.5 -1.5,4.8 c -0.2,0.8 -9.9,-1.1 -21.5,-4.2 -11.6,-3.1 -20.9,-6.2 -20.6,-7 l 1.5,-4.8 z"
   id="path198" />
		<g
   id="g206">
			<path
   class="st9"
   d="m 237.5,109.7 1.9,-6.2 15.3,4 -1.5,4.8 c -0.2,0.7 -6.8,-0.5 -15.7,-2.6 z"
   id="path200" />
			<path
   class="st9"
   d="m 236.8,109.5 c -1.6,-0.4 -3.4,-0.8 -5.1,-1.3 -2.6,-0.7 -5.1,-1.4 -7.4,-2.1 l 1.9,-6.2 12.6,3.3 z"
   id="path202" />
			<path
   class="st9"
   d="m 223.4,105.9 c -7.4,-2.2 -12.6,-4.1 -12.4,-4.7 l 1.5,-4.8 12.8,3.4 z"
   id="path204" />
		</g>
		<path
   class="st8"
   d="m 212.6,96.3 c -0.2,0.8 9,3.9 20.6,7 11.6,3.1 21.3,5 21.5,4.2 0.2,-0.8 -9,-3.9 -20.6,-7 -11.7,-3.1 -21.3,-5 -21.5,-4.2 z"
   id="path208" />
		<path
   class="st10"
   d="m 216.3,97.3 c -0.2,0.5 7.5,3 17.1,5.6 9.6,2.5 17.5,4.2 17.7,3.6 0.2,-0.5 -7.5,-3 -17.1,-5.6 -9.6,-2.6 -17.6,-4.2 -17.7,-3.6 z"
   id="path210" />
	</g><g
   id="g228"
   transform="matrix(1.0283521,0,0,1.0274012,23.067531,1.8004658)">
		<path
   class="st8"
   d="m 241.1,74.2 1.6,4.8 c 0.3,0.8 -8.9,4.1 -20.5,7.4 -11.6,3.3 -21.2,5.3 -21.4,4.5 l -1.6,-4.8 z"
   id="path214" />
		<g
   id="g222">
			<path
   class="st9"
   d="m 227.9,84.6 -2,-6.2 15.2,-4.3 1.6,4.8 c 0.2,0.7 -6,3.1 -14.8,5.7 z"
   id="path216" />
			<path
   class="st9"
   d="m 227.2,84.9 c -1.6,0.5 -3.3,1 -5.1,1.5 -2.6,0.7 -5.1,1.4 -7.5,2 l -2,-6.1 12.5,-3.6 z"
   id="path218" />
			<path
   class="st9"
   d="m 213.9,88.6 c -7.5,1.9 -12.9,2.9 -13.1,2.3 l -1.6,-4.8 12.7,-3.6 z"
   id="path220" />
		</g>
		<path
   class="st8"
   d="m 199.1,86 c 0.3,0.8 9.9,-1.3 21.4,-4.5 11.6,-3.3 20.8,-6.6 20.5,-7.4 -0.3,-0.8 -9.9,1.3 -21.4,4.5 -11.6,3.3 -20.7,6.6 -20.5,7.4 z"
   id="path224" />
		<path
   class="st10"
   d="m 202.8,85 c 0.2,0.5 8.1,-1.2 17.6,-3.9 9.5,-2.7 17.1,-5.3 16.9,-5.9 -0.2,-0.5 -8.1,1.2 -17.6,3.9 -9.5,2.7 -17.1,5.3 -16.9,5.9 z"
   id="path226" />
	</g><g
   id="g246"
   transform="matrix(1.0283521,0,0,1.0274012,23.067531,1.8004658)">
		
			<rect
   x="164.8"
   y="125.4"
   transform="rotate(180,186.6267,132.7277)"
   class="st6"
   width="43.700001"
   height="14.7"
   id="rect230" />
		<g
   id="g242">
			
				<rect
   x="164.8"
   y="127.5"
   transform="rotate(180,186.6267,128.4547)"
   class="st5"
   width="43.700001"
   height="1.9"
   id="rect232" />
			
				<rect
   x="164.8"
   y="131.2"
   transform="rotate(180,186.6267,132.1579)"
   class="st5"
   width="43.700001"
   height="1.9"
   id="rect234" />
			
				<rect
   x="164.8"
   y="134.89999"
   transform="rotate(180,186.6267,135.8612)"
   class="st5"
   width="43.700001"
   height="1.9"
   id="rect236" />
			
				<rect
   x="164.8"
   y="138.2"
   transform="rotate(180,186.6267,139.1484)"
   class="st5"
   width="43.700001"
   height="1.9"
   id="rect238" />
			
				<rect
   x="181"
   y="125.4"
   transform="rotate(180,185.5881,132.7277)"
   class="st10"
   width="9.1000004"
   height="14.7"
   id="rect240" />
		</g>
		
			<rect
   x="208"
   y="125.4"
   transform="rotate(180,211.26295,132.7277)"
   class="st4"
   width="6.5999999"
   height="14.7"
   id="rect244" />
	</g><rect
   x="54.003704"
   y="146.58009"
   class="st11"
   width="232.17265"
   height="1.6544905"
   id="rect248"
   style="stroke-width:0.600771" /><path
   class="st12"
   d="m 144.51592,31.800581 c -0.41135,-1.849322 -2.26238,-3.184944 -4.31908,-3.184944 -0.41134,0 -0.71985,0 -1.13119,0.10274 -1.02835,-2.054802 -3.29073,-3.493164 -5.96444,-3.493164 -0.71985,0 -1.33686,0.10274 -1.95387,0.308221 -1.43969,-2.157543 -4.01058,-3.595905 -6.88996,-3.595905 -3.4964,0 -6.47862,2.054803 -7.60981,4.931526 -0.82268,-0.41096 -1.7482,-0.61644 -2.67371,-0.61644 -3.08506,0 -5.5531,2.260282 -5.5531,5.137006 0,0.20548 0,0.30822 0,0.5137 h 36.09516 z"
   id="path250"
   style="stroke-width:1.02788" /><path
   class="st12"
   d="m 160.76388,52.245865 c -0.30851,-1.438361 -1.64536,-2.465762 -3.29073,-2.465762 -0.3085,0 -0.61701,0 -0.82268,0.10274 -0.82268,-1.541102 -2.46804,-2.671244 -4.52475,-2.671244 -0.51418,0 -1.02835,0.102741 -1.43969,0.205481 -1.02835,-1.643842 -2.98222,-2.773984 -5.2446,-2.773984 -2.67371,0 -4.93609,1.541102 -5.75877,3.698645 -0.61701,-0.308221 -1.33686,-0.513701 -2.0567,-0.513701 -2.36521,0 -4.21625,1.746582 -4.21625,3.904125 0,0.10274 0,0.20548 0,0.41096 h 27.35417 z"
   id="path252"
   style="stroke-width:1.02788" /><path
   class="st12"
   d="m 84.562987,49.369142 c 0.308505,-1.232881 1.439693,-2.157543 2.879386,-2.157543 0.20567,0 0.514176,0 0.719846,0.102741 0.719847,-1.335622 2.15954,-2.363023 3.907738,-2.363023 0.411341,0 0.925517,0.10274 1.336858,0.20548 0.925517,-1.438362 2.673715,-2.363023 4.627584,-2.363023 2.262371,0 4.319081,1.335622 5.038931,3.287684 0.51417,-0.30822 1.13118,-0.41096 1.74819,-0.41096 2.05671,0 3.70207,1.541101 3.70207,3.390424 0,0.10274 0,0.20548 0,0.30822 z"
   id="path254"
   style="stroke-width:1.02788" /><g
   id="g258"
   transform="matrix(1.0283521,0,0,1.0274012,40.960858,1.1840251)">
			<path
   class="st13"
   d="m 88.7,133.6 c 0,0 -0.8,1.8 -1.6,2.5 -0.7,0.7 -3.4,2 -3.4,4.1 0,2.3 4.6,1.7 6.4,1.6 1.8,-0.1 1.9,-1.3 2.7,-2.6 0.8,-1.3 1.5,-1.1 1.7,-2.1 0.1,-1 -0.6,-3.4 -0.6,-3.4 z"
   id="path256" />
		</g><g
   id="g262"
   transform="matrix(1.0283521,0,0,1.0274012,40.960858,1.1840251)">
			<path
   class="st14"
   d="m 142.3,37.3 c 0,0 -0.3,-2.6 -0.4,-3 -0.1,-0.4 0.3,-1.3 0.9,-2.4 0.6,-1.1 2,-2.3 2.2,-2.3 0.2,0 0.5,-0.2 1,0.1 0.5,0.2 0.8,0.8 0.8,0.8 0,0 0.8,0 1.1,0.6 0,0 0.7,0 0.9,0.8 0,0 0.8,0 1,0.5 0,0 -0.4,1 -0.5,1.4 0,0.4 -2.3,3.4 -3.6,5.2 0.1,0 -0.5,1.2 -3.4,-1.7 z"
   id="path260"
   style="fill:#a05a2c;fill-opacity:1" />
		</g><polygon
   class="st15"
   points="93.6,23.2 94.2,21.2 153.1,33.2 152.6,35.3 "
   id="polygon264"
   transform="matrix(1.0283521,0,0,1.0274012,40.960858,1.1840251)" /><g
   id="g268"
   transform="matrix(1.0283521,0,0,1.0274012,40.960858,1.1840251)">
			<path
   class="st16"
   d="m 154.5,34.4 c 0.9,-1.6 3.6,-4.5 8,-3.6 l 0.7,0.1 -2.7,10.1 -0.7,-0.1 c -4.4,-0.9 -5.4,-4.5 -5.4,-6.3 v -0.1 z m 6.9,-2.4 c -3.4,-0.3 -5.2,2.2 -5.6,2.8 0,0.3 0.1,1.2 0.5,2.1 0.6,1.3 1.6,2.2 3.1,2.6 z"
   id="path266" />
		</g><path
   class="st17"
   d="m 143.38473,25.225213 -1.85104,6.986329 c -13.1629,-2.671244 -18.20183,-11.095934 -18.20183,-11.095934 0,0 8.74099,-5.650706 21.9039,-2.876723 z"
   id="path270"
   style="stroke-width:1.02788" /><polygon
   class="st16"
   points="150.6,34.9 151.2,32.8 156.2,33.8 155.6,35.9 "
   id="polygon272"
   transform="matrix(1.0283521,0,0,1.0274012,40.960858,1.1840251)" /><g
   id="g276"
   transform="matrix(1.0283521,0,0,1.0274012,40.960858,1.1840251)">
			<path
   class="st18"
   d="m 144.4,34 c 0,0 0.9,1 0.9,1.4 0.1,0.4 3.2,-0.8 3.2,-0.8 0,0 -2.7,-1.5 -4.1,-0.6 z"
   id="path274"
   style="fill:#502d16" />
		</g><g
   id="g280"
   transform="matrix(1.0283521,0,0,1.0274012,40.960858,1.1840251)">
			<path
   class="st19"
   d="m 145.9,39.7 c 0,0 -9.1,12.4 -12.1,11.8 -1.4,-0.3 -5.6,-3.1 -7.4,-5.1 -1.9,-2.2 -4.2,-5.3 -5.6,-7.4 0,0 -6,-7.7 -0.9,-10.7 0,0 3.1,0.7 4.8,2.3 1.7,1.6 2.6,4.1 3.1,4.9 0.5,0.9 5.7,8.5 6.1,8.7 0.3,0.2 2.7,-1.6 4.2,-3.1 2.2,-2.2 4.1,-4.6 4.1,-4.6 z"
   id="path278" />
		</g><g
   id="g284"
   transform="matrix(1.0283521,0,0,1.0274012,40.960858,1.1840251)">
			<path
   class="st20"
   d="m 144.8,29.8 c 0,0 -1.4,2.8 -1,3.1 0.5,0.3 0.8,0.1 0.8,0.1 v 1.4 c 0,0 0.6,0.9 1.5,0.1 0,0 0.4,0.9 1.3,0 0,0 0.6,0.5 1.1,0.1 0.5,-0.4 1.3,-2.2 1.3,-2.2 0,0 0,-0.5 -0.9,-0.6 0,0 -0.2,-0.7 -1,-0.8 0,0 -0.2,-0.6 -1.1,-0.6 0,0 -0.7,-1.2 -1.8,-0.8 0,0 -0.1,0.1 -0.2,0.2 z"
   id="path282"
   style="fill:#a05a2c;fill-opacity:1" />
		</g><g
   id="g288"
   transform="matrix(1.0283521,0,0,1.0274012,40.960858,1.1840251)">
			<path
   class="st14"
   d="m 141.9,34.2 c 0,0 1.9,-1.3 3.2,-1.6 0.3,-0.1 0.6,-0.1 0.8,0.1 0.2,0.2 0.1,0.8 -0.7,1.4 -0.8,0.6 -1.5,1.7 -1.5,1.7 0,0 -0.9,0.4 -1.8,-1.6 z"
   id="path286"
   style="fill:#a05a2c;fill-opacity:1" />
		</g><g
   id="g292"
   transform="matrix(1.0283521,0,0,1.0274012,40.960858,1.1840251)">
			<path
   class="st19"
   d="m 91.6,62.5 c 0,0 -13.3,-12.2 -13.6,-15 -0.1,-1.3 1.7,-5.3 3.3,-7.4 0.5,-0.7 1.1,-1.4 1.6,-2.1 0,0 0,0 0,0 2.2,-2.7 4.5,-5 4.5,-5 0,0 5.7,-7.2 10.6,-3.9 0,0 0.1,2.5 -1,4.4 -1.2,2 -2.7,3.5 -3.5,4.2 -0.8,0.7 -7.5,8.2 -7.6,8.5 -0.1,0.3 2.1,4.1 3.3,5.7 1.8,2.3 5.5,7.7 5.5,7.7 z"
   id="path290" />
		</g><g
   id="g296"
   transform="matrix(1.0283521,0,0,1.0274012,40.960858,1.1840251)">
			<path
   class="st13"
   d="m 120.8,133.7 c 0,0 0.9,1.8 1.6,2.5 0.7,0.7 3.4,1.9 3.5,4 0,2.3 -4.5,1.7 -6.3,1.6 -1.8,-0.1 -1.9,-1.3 -2.7,-2.6 -0.8,-1.3 -1.5,-1.1 -1.7,-2.1 -0.2,-1 0.6,-3.4 0.6,-3.4 z"
   id="path294" />
		</g><g
   id="g300"
   transform="matrix(1.0283521,0,0,1.0274012,40.960858,1.1840251)">
			<path
   class="st13"
   d="m 121.1,132.9 -0.1,1.2 c 0,0 -2.5,0.9 -5.3,0.1 v -1.5 z"
   id="path298" />
		</g><g
   id="g304"
   transform="matrix(1.0283521,0,0,1.0274012,40.960858,1.1840251)">
			<path
   class="st13"
   d="m 94,132.9 -0.1,1.2 c 0,0 -2.3,0.6 -5.1,-0.2 V 132 Z"
   id="path302" />
		</g><g
   id="g84"
   transform="matrix(1.0283521,0,0,1.0274012,16.794583,2.3141664)">
		<path
   class="st8"
   d="m 61.5,133.5 v 6 c 0,1 11.6,1.7 26,1.7 14.3,0 26,-0.8 26,-1.7 v -6 z"
   id="path70" />
		<g
   id="g78">
			<path
   class="st9"
   d="m 80.3,141.1 v -7.6 H 61.5 v 6 c 0,0.7 8,1.4 18.8,1.6 z"
   id="path72" />
			<path
   class="st9"
   d="m 81.2,141.1 c 2,0 4.1,0.1 6.3,0.1 3.2,0 6.3,0 9.2,-0.1 v -7.6 H 81.2 Z"
   id="path74" />
			<path
   class="st9"
   d="m 97.7,141 c 9.2,-0.3 15.7,-0.9 15.7,-1.6 v -6 H 97.7 Z"
   id="path76" />
		</g>
		<ellipse
   class="st8"
   cx="87.5"
   cy="133.39999"
   rx="26"
   ry="1.7"
   id="ellipse80" />
		<path
   class="st10"
   d="m 108.9,133.4 c 0,0.7 -9.6,1.2 -21.4,1.2 -11.8,0 -21.4,-0.5 -21.4,-1.2 0,-0.7 9.6,-1.2 21.4,-1.2 11.8,0 21.4,0.5 21.4,1.2 z"
   id="path82" />
	</g><g
   id="g310"
   transform="matrix(1.0283521,0,0,1.0274012,40.960858,1.1840251)">
			<path
   class="st19"
   d="m 91.1,30.4 4,12.8 c 0.1,0.4 0.3,0.9 0.5,1.5 v 0 c 0,0 0,0 0,0 0.7,2.3 1.5,5.7 1.7,9.6 0.2,2.6 0,11 0,11 0,0 5.6,1.8 14.7,1.3 0,0 9.9,2.2 9.1,-3.1 -2.1,-14.1 0,-19.8 0.2,-21.3 0,0 1.1,-6.8 2.1,-12.5 -2.8,-0.9 -14.3,-4.5 -14.3,-4.5 l -6.4,0.1 c 0.1,0.1 -8.9,2.4 -11.6,5.1 z"
   id="path308" />
		</g><path
   class="st19"
   d="m 139.68266,48.341741 c 0,0 3.90774,-1.643842 5.2446,-7.089069 l 13.77991,-0.10274 c 0,0 4.11341,7.191809 6.37579,7.602769 0,0 -0.41134,7.91099 -0.20567,10.993193 0.3085,3.082204 1.13118,8.835651 1.13118,8.835651 0,0 -0.82268,5.342486 -25.09179,1.643842 0,0 0.30851,-12.739775 0.20567,-13.253476 0,-0.513701 -1.33685,-8.32195 -1.43969,-8.63017 z"
   id="path312"
   style="stroke-width:1.02788" /><path
   class="st19"
   d="m 144.92726,41.252672 c 0,0 -1.64537,-7.397288 -5.14176,-11.712374 0,0 0.3085,-0.30822 1.23402,-0.5137 0,0 3.8049,4.828786 5.34743,12.123334 1.54253,7.397289 -1.43969,0.10274 -1.43969,0.10274 z"
   id="path314"
   style="stroke-width:1.02788" /><path
   class="st19"
   d="m 158.5015,41.149932 c 0,0 0.92552,-6.678108 4.42192,-11.095933 0,0 -0.61701,-0.30822 -1.54253,-0.41096 0,0 -2.98222,4.109604 -4.31908,11.506893 -1.33686,7.294549 1.43969,0 1.43969,0 z"
   id="path316"
   style="stroke-width:1.02788" /><g
   id="g320"
   transform="matrix(1.0283521,0,0,1.0274012,40.960858,1.1840251)">
			<path
   class="st21"
   d="m 105.5,7 c 0,0 -6,0.9 -4.9,9.1 1,8.2 6.3,7.5 6.6,7.5 0.4,0 5.3,0.1 5.5,-10 0,0.1 0.1,-7.4 -7.2,-6.6 z"
   id="path318"
   style="fill:#a05a2c;fill-opacity:1" />
		</g><g
   id="g324"
   transform="matrix(1.0283521,0,0,1.0274012,40.960858,1.1840251)">
			<path
   class="st21"
   d="m 102.9,21.2 c 0,0 0.2,3.4 -0.2,4.1 -0.4,0.7 4.9,3.1 8.1,0.4 0,0 -0.8,-3.7 -0.6,-5 0.2,-1.2 -7.3,0.5 -7.3,0.5 z"
   id="path322"
   style="fill:#a05a2c;fill-opacity:1" />
		</g><g
   id="g328"
   transform="matrix(1.0283521,0,0,1.0274012,40.960858,1.1840251)">
			<path
   class="st21"
   d="m 100.4,13.8 c 0,0 -0.7,-0.6 -0.9,0 -0.2,0.6 1.1,3.4 1,3.5 0,0 0.1,0.2 0.3,0.1 0.1,-0.1 -0.4,-3.6 -0.4,-3.6 z"
   id="path326"
   style="fill:#a05a2c;fill-opacity:1" />
		</g><g
   id="g332"
   transform="matrix(1.0283521,0,0,1.0274012,40.960858,1.1840251)">
			<path
   class="st21"
   d="m 112.6,13.6 c 0,0 0.6,-0.6 0.9,0 0.3,0.6 -0.7,3.4 -0.8,3.6 0,0 -0.2,0.3 -0.4,0.2 -0.1,-0.2 0.3,-3.8 0.3,-3.8 z"
   id="path330"
   style="fill:#a05a2c;fill-opacity:1" />
		</g><g
   id="g336"
   transform="matrix(1.0283521,0,0,1.0274012,40.960858,1.1840251)">
			<path
   class="st19"
   d="m 100,13.1 c 0.2,1.1 0.4,2 0.4,2 l 0.9,1 c 0,0 -0.1,-2.2 0.1,-2.6 0.1,-0.1 0.1,-0.4 0.2,-0.6 0.1,-0.4 0.2,-0.9 0.3,-1 0.1,-0.3 5.1,-1.5 9.6,0.3 0,0 0,0.3 0,0.7 0,0.4 0.1,0.9 0.3,1 0.4,0.1 0.2,2.6 0.2,2.6 l 0.7,-0.7 c 0,0 0.2,-1.3 0.4,-2.8 0,0 0,0 0,0 0,-0.3 0.1,-0.7 0.1,-1 0.1,-1.5 -0.1,-4.2 -2.2,-5.7 -1.5,-0.6 -3.9,-0.7 -7.8,0.4 0,0 -0.5,-0.1 -1.1,-0.1 -2.6,2.2 -2.1,6.5 -2.1,6.5 z"
   id="path334"
   style="fill:#253642;fill-opacity:1" />
		</g><path
   class="st22"
   d="m 153.87392,24.300552 c 0,0 -1.02835,1.232882 -3.29073,1.130142 -2.26237,0 -3.29072,-1.130142 -3.29072,-1.130142 0,0 1.02835,1.952063 3.29072,1.952063 2.26238,0.10274 3.29073,-1.952063 3.29073,-1.952063 z"
   id="path338"
   style="fill:#502d16;stroke-width:1.02788" /><path
   class="st23"
   d="m 143.79607,14.642981 c 0,0 0.51417,-0.10274 1.54253,-0.205481 1.85103,-0.20548 5.24459,-0.41096 10.07785,-0.10274 0.51417,0 1.13118,0.10274 1.64536,0.10274 0,0 0,0 0,0 0,-0.10274 0.10284,-0.5137 0.10284,-1.027401 0.10283,-1.541102 0.3085,-4.3150849 -1.95387,-5.9589269 -0.92552,-0.7191808 -2.67372,-1.2328814 -4.52475,-1.2328814 -3.08506,0 -4.42192,0.7191808 -5.45027,1.746582 -2.36521,2.4657633 -1.43969,6.6781083 -1.43969,6.6781083 z"
   id="path340"
   style="fill:#ff6600;fill-opacity:1;stroke-width:1.02788" /><path
   class="st24"
   d="m 143.79607,14.642981 c 0,0 2.46804,0.924661 6.68429,0.821921 4.31908,-0.10274 6.58145,-0.924661 6.58145,-0.924661 0,0 -2.46804,-0.719181 -6.78712,-0.719181 -4.21625,0.10274 -6.47862,0.821921 -6.47862,0.821921 z"
   id="path342"
   style="fill:#ff9955;stroke-width:1.02788" /><path
   class="st23"
   d="m 134.64374,31.697841 c 3.49639,0.924661 3.59923,12.431555 3.59923,12.431555 0,0 0.92551,2.876723 1.33686,5.445226 0.20567,1.335622 0.41134,7.191809 0.61701,12.328815 v 0.513701 0.41096 c 0.10283,4.006865 -0.34039,8.422635 -0.34039,8.422635 0,0 3.93962,0.823976 12.98912,0.721236 0,0 9.56367,-0.616441 13.57425,-1.952062 0,0 -0.41135,-3.390424 -0.82269,-6.883589 -0.10283,-0.5137 -0.10283,-1.027401 -0.20567,-1.438361 -0.20567,-1.849323 -0.41134,-3.493164 -0.51417,-4.520566 -0.20567,-2.979463 0.82268,-12.637035 0.82268,-12.637035 -1.43969,-10.787713 1.33686,-13.356216 1.33686,-13.356216 -2.77655,-1.438361 -11.72322,-3.390424 -11.72322,-3.390424 -2.0567,7.70551 -4.62758,9.246611 -4.62758,9.246611 -3.70207,-3.287684 -5.5531,-9.452091 -5.5531,-9.452091 -6.06728,1.130141 -10.48919,4.109605 -10.48919,4.109605 z"
   id="path344"
   style="fill:#6c5353;stroke-width:1.02788"
   sodipodi:nodetypes="cccccccccccccccccc" /><path
   class="st25"
   d="m 166.00847,66.013042 c 0,0 -13.98558,2.568503 -25.60596,0.20548 V 64.78016 c 0,0 11.31187,2.157543 25.50313,-0.20548 z"
   id="path346"
   style="fill:#ff6600;fill-opacity:1;stroke-width:1.02788" /><path
   class="st25"
   d="m 140.29967,61.903437 v 0.513701 0.41096 0.513701 c 10.59203,2.054802 23.24076,0.20548 25.4003,-0.205481 -0.10284,-0.5137 -0.10284,-1.027401 -0.20567,-1.438361 -14.08843,2.363023 -25.19463,0.20548 -25.19463,0.20548 z"
   id="path348"
   style="fill:#ff6600;fill-opacity:1;stroke-width:1.02788" /><path
   class="st14"
   d="m 137.42029,62.417138 c 0,0 0.41134,0.41096 0.92551,0.41096 0.92552,0.10274 2.05671,-0.719181 2.87939,0.20548 0.82268,0.924661 -1.64536,4.109605 -2.36521,4.520566 -0.71985,0.30822 -2.26238,-0.513701 -3.70207,-2.568503 -1.43969,-2.054803 2.26238,-2.568503 2.26238,-2.568503 z"
   id="path350"
   style="fill:#a05a2c;stroke-width:1.02788" /><path
   class="st14"
   d="m 140.91668,62.828098 c 0,0 1.7482,0.719181 3.4964,1.746582 1.54253,0.924661 3.29073,2.157543 2.98222,2.568503 -0.41134,0.513701 -1.54253,-0.616441 -3.18789,-1.438362 -1.54253,-0.71918 -1.33686,-0.30822 -1.33686,-0.30822 0,0 0,-0.10274 1.43969,1.027401 1.54253,1.232882 3.1879,2.671243 2.87939,2.979464 -0.20567,0.20548 -0.20567,0.30822 -0.82268,-0.10274 0.3085,0.30822 0.3085,0.41096 0.20567,0.5137 -0.61701,0.719181 -3.18789,-0.719181 -4.21624,-1.232881 0.82268,0.41096 1.33685,0.821921 0.61701,1.027401 -0.71985,0.30822 -4.31908,-1.849322 -5.75877,-2.568503 -1.54253,-0.616441 3.70206,-4.212345 3.70206,-4.212345 z"
   id="path352"
   style="fill:#a05a2c;stroke-width:1.02788" /><path
   class="st19"
   d="m 138.3458,62.417138 c 0,0 -0.51417,1.643842 -3.18789,2.979463 0,0 -7.50697,-7.191808 -8.32965,-8.11647 l 6.58145,-1.952062 c 0,0.10274 3.39356,4.726046 4.93609,7.089069 z"
   id="path354"
   style="stroke-width:1.02788" />
<g
   id="g132"
   transform="matrix(1.0283521,0,0,1.0274012,22.861861,7.5539122)">
		<path
   class="st8"
   d="m 57.1,114.3 v 6 c 0,1 11.6,1.7 26,1.7 14.3,0 26,-0.8 26,-1.7 v -6 z"
   id="path118" />
		<g
   id="g126">
			<path
   class="st9"
   d="m 75.9,121.9 v -7.6 H 57.1 v 6 c 0,0.7 7.9,1.4 18.8,1.6 z"
   id="path120" />
			<path
   class="st9"
   d="m 76.8,121.9 c 2,0 4.1,0.1 6.3,0.1 3.2,0 6.3,0 9.2,-0.1 v -7.6 H 76.8 Z"
   id="path122" />
			<path
   class="st9"
   d="m 93.3,121.8 c 9.2,-0.3 15.7,-0.9 15.7,-1.6 v -6 H 93.3 Z"
   id="path124" />
		</g>
		<ellipse
   class="st8"
   cx="83.099998"
   cy="114.2"
   rx="26"
   ry="1.7"
   id="ellipse128" />
		<path
   class="st10"
   d="m 104.4,114.2 c 0,0.7 -9.6,1.2 -21.4,1.2 -11.8,0 -21.4,-0.5 -21.4,-1.2 0,-0.7 9.6,-1.2 21.4,-1.2 11.9,0 21.4,0.5 21.4,1.2 z"
   id="path130" />
	</g><g
   inkscape:label="Calque 1"
   id="layer1"
   transform="matrix(0.08119388,0,0,0.06740493,171.71604,34.134313)"
   inkscape:transform-center-x="-0.38586202"
   inkscape:transform-center-y="-0.11584152"><path
     style="fill:#ff6600;stroke:none;stroke-width:0.117127px;stroke-linecap:butt;stroke-linejoin:miter;stroke-opacity:1"
     d="m -151.15072,26.174343 -19.62705,17.232755 h 4.68868 l -0.0376,22.786848 24.90448,0.816079 5.22666,-9.300143 V 43.525943 l 4.90674,-0.11891 -7.52371,-6.536567 -0.10938,-6.774245 -5.77909,-0.11891 v 1.545006 l 0.21824,0.950761 z"
     id="path58-4"
     sodipodi:nodetypes="cccccccccccccc" /><rect
     style="fill:#cccccc;stroke:none;stroke-width:0.285716;stroke-linecap:round;stroke-linejoin:round;stroke-miterlimit:4;stroke-dasharray:none"
     id="rect2562-5"
     width="6.5822167"
     height="6.3944321"
     x="-150.19505"
     y="46.879948" /><rect
     style="fill:#cccccc;stroke:none;stroke-width:0.285716;stroke-linecap:round;stroke-linejoin:round;stroke-miterlimit:4;stroke-dasharray:none"
     id="rect2562-7"
     width="6.5822167"
     height="6.3944321"
     x="-150.29944"
     y="39.269894" /><rect
     style="fill:#cccccc;stroke:none;stroke-width:0.285716;stroke-linecap:round;stroke-linejoin:round;stroke-miterlimit:4;stroke-dasharray:none"
     id="rect2562-3"
     width="6.5822167"
     height="6.3944321"
     x="-158.63324"
     y="46.765747" /><path
     style="fill:#008000;stroke:#ececec;stroke-width:0.516307;stroke-linecap:butt;stroke-linejoin:miter;stroke-miterlimit:4;stroke-dasharray:none;stroke-opacity:1"
     d="m -129.7699,37.638784 c -0.23509,-0.856323 -0.53785,-1.694057 -0.90453,-2.50282 -0.73177,-1.613997 -1.71376,-3.103996 -2.78898,-4.512673 -1.78657,-2.340631 -3.85808,-4.489212 -6.29413,-6.143307 -3.95032,-2.682291 -8.75634,-3.96947 -13.53043,-4.057624 -3.12268,-0.05766 -6.27078,0.385186 -9.19621,1.478948 -1.92976,0.7215 -3.75159,1.721284 -5.4272,2.919974 -4.59591,3.287793 -8.07223,8.122572 -9.68619,13.538022 -1.42193,4.771094 -1.39686,9.969608 0.11303,14.713599 1.69666,5.33081 5.2626,10.033529 9.89465,13.170442 4.63206,3.136914 10.29557,4.700744 15.88482,4.463124 4.32751,-0.183979 8.62656,-1.440971 12.28286,-3.763192 2.97314,-1.88833 5.54937,-4.540379 6.86278,-7.808455 0.20729,-0.515782 0.38406,-1.052135 0.41664,-1.607056 0.0326,-0.554921 -0.0911,-1.134876 -0.43344,-1.572821 -0.26876,-0.343801 -0.66581,-0.584844 -1.09483,-0.664649 -0.42903,-0.07981 -0.8862,0.0023 -1.2606,0.226501 -0.37441,0.224163 -0.66272,0.588349 -0.79498,1.004205 -0.13227,0.415855 -0.10731,0.879677 0.0688,1.278937 -1.17862,1.356122 -2.50515,2.583603 -3.94848,3.653653 -2.15899,1.60062 -4.60698,2.856374 -7.23632,3.412936 -2.25299,0.476898 -4.60479,0.431098 -6.85945,-0.03784 -1.04941,-0.218262 -2.08351,-0.528492 -3.05284,-0.98597 -0.38183,-0.180203 -0.75714,-0.38586 -1.06871,-0.670796 -0.31157,-0.284936 -0.55732,-0.657211 -0.62731,-1.073583 -0.0805,-0.478899 0.0814,-0.97978 0.37683,-1.36518 0.26197,-0.34172 0.62283,-0.600404 1.01582,-0.776339 0.393,-0.175935 0.81803,-0.272012 1.24553,-0.323399 1.24852,-0.150076 2.51359,0.07377 3.76893,0 1.06419,-0.06254 2.11014,-0.33977 3.09051,-0.758424 1.0925,-0.466534 2.11639,-1.115637 2.93977,-1.971932 0.45771,-0.476002 0.85118,-1.013514 1.16837,-1.592706 0.14254,-0.260273 0.2714,-0.534178 0.31386,-0.827872 0.0212,-0.146846 0.0203,-0.297632 -0.0114,-0.44259 -0.0317,-0.144958 -0.0946,-0.283992 -0.18947,-0.398092 -0.11505,-0.138403 -0.27446,-0.236716 -0.44596,-0.291283 -0.17151,-0.05457 -0.35478,-0.06675 -0.53397,-0.04998 -0.40939,0.03832 -0.78834,0.222145 -1.16834,0.379195 -1.03369,0.427208 -2.13472,0.671365 -3.24128,0.834285 -0.58683,0.0864 -1.17826,0.150595 -1.77142,0.151643 -1.76693,0.0031 -3.47956,-0.550221 -5.20112,-0.948034 -0.52361,-0.120994 -1.05082,-0.227984 -1.58291,-0.303373 -1.90533,-0.269953 -3.88186,-0.124682 -5.69111,0.53089 -0.42001,0.152187 -0.8371,0.33293 -1.28142,0.379239 -0.56797,0.05919 -1.13755,-0.107051 -1.65833,-0.341306 -1.10972,-0.49917 -2.06506,-1.312574 -2.80142,-2.281303 -0.73635,-0.968729 -1.25906,-2.089613 -1.60822,-3.255264 -0.80017,-2.671308 -0.69111,-5.559047 -0.0251,-8.266923 0.81328,-3.306617 2.44643,-6.399054 4.65901,-8.98742 2.31506,-2.708253 5.28538,-4.879926 8.63088,-6.105383 2.44075,-0.894048 5.0516,-1.279507 7.65093,-1.289349 2.51229,-0.0095 5.03318,0.330261 7.42474,1.099738 2.34644,0.754959 4.5577,1.921547 6.52021,3.412953 1.76092,1.338204 3.32673,2.942483 4.56044,4.778125 0.74168,1.103553 1.3601,2.284001 1.99757,3.450859 0.0948,0.173518 0.19029,0.347317 0.26371,0.530905 0.073,0.182574 0.12372,0.374054 0.15065,0.568833 0.0382,5.81e-4 0.0764,3.58e-4 0.11462,-6.7e-5 z"
     id="path54"
     sodipodi:nodetypes="cssaaaaaassssccssssssssssssssssssssaaaaaaassacc" /><rect
     style="fill:#cccccc;stroke:none;stroke-width:0.285716;stroke-linecap:round;stroke-linejoin:round;stroke-miterlimit:4;stroke-dasharray:none"
     id="rect2562"
     width="6.5822167"
     height="6.3944321"
     x="-158.63324"
     y="39.269894" /></g><text
   xml:space="preserve"
   style="font-style:normal;font-variant:normal;font-weight:bold;font-stretch:normal;font-size:1.27814px;line-height:1.35;font-family:Arial;-inkscape-font-specification:'Arial Bold';fill:#000000;stroke-width:0.0479299"
   x="158.01257"
   y="40.074234"
   id="text14927"
   transform="scale(0.99255399,1.0075019)"><tspan
     sodipodi:role="line"
     id="tspan14925"
     x="158.01257"
     y="40.074234"
     style="font-style:normal;font-variant:normal;font-weight:bold;font-stretch:normal;font-family:Arial;-inkscape-font-specification:'Arial Bold';fill:#000000;stroke-width:0.0479299">JAMOH</tspan></text><path
   style="fill:none;fill-opacity:1;stroke:#241c1c;stroke-width:0.411151;stroke-linecap:butt;stroke-linejoin:miter;stroke-miterlimit:4;stroke-dasharray:none;stroke-opacity:1"
   d="m 150.68603,37.040327 c -0.16171,0.973548 -0.14608,1.976273 0.0459,2.944307 0.21223,1.070162 0.63778,2.100614 0.71811,3.188657 0.0607,0.822104 -0.0785,1.650615 0,2.471209 0.099,1.034269 0.5381,2.005948 0.71812,3.029225 0.22611,1.285217 0.0371,2.601676 0,3.906104 -0.0332,1.168893 0.0563,2.339515 0,3.507524 -0.0577,1.197637 -0.2686,2.388568 -0.23937,3.587239 0.0414,1.696445 0.56084,3.341824 0.7979,5.022134 0.18975,1.344983 0.19787,2.707871 0.23937,4.065538 0.0325,1.063786 0.0857,2.126941 0.15958,3.188658"
   id="path24408"
   inkscape:path-effect="#path-effect24410"
   inkscape:original-d="m 150.68603,37.040327 c 0.0164,0.982463 0.0316,1.963898 0.0459,2.944307 0.0143,0.980408 0.47977,2.126799 0.71811,3.188657 0.23834,1.061858 0.001,1.6485 0,2.471209 -0.001,0.822709 0.47978,2.02051 0.71812,3.029225 0.23834,1.008714 0.001,2.605097 0,3.906104 -0.001,1.301008 0.001,2.339377 0,3.507524 -0.001,1.168146 -0.15855,2.392519 -0.23937,3.587239 -0.0808,1.194718 0.53295,3.349117 0.7979,5.022134 0.26493,1.673018 0.16061,2.711386 0.23937,4.065538 0.0788,1.354152 0.10741,2.126799 0.15958,3.188658" /></svg>
