<?xml version="1.0" encoding="UTF-8" standalone="no"?>
<!-- Created with Inkscape (http://www.inkscape.org/) -->

<svg
   width="300"
   height="150"
   viewBox="0 0 79.374999 39.6875"
   version="1.1"
   id="svg5"
   inkscape:version="1.1 (c68e22c387, 2021-05-23)"
   sodipodi:docname="couper_un_arbre.svg"
   xmlns:inkscape="http://www.inkscape.org/namespaces/inkscape"
   xmlns:sodipodi="http://sodipodi.sourceforge.net/DTD/sodipodi-0.dtd"
   xmlns="http://www.w3.org/2000/svg"
   xmlns:svg="http://www.w3.org/2000/svg">
  <sodipodi:namedview
     id="namedview7"
     pagecolor="#505050"
     bordercolor="#eeeeee"
     borderopacity="1"
     inkscape:pageshadow="0"
     inkscape:pageopacity="0"
     inkscape:pagecheckerboard="0"
     inkscape:document-units="mm"
     showgrid="false"
     width="300mm"
     units="px"
     inkscape:zoom="1.7727627"
     inkscape:cx="164.9967"
     inkscape:cy="93.357109"
     inkscape:window-width="1366"
     inkscape:window-height="705"
     inkscape:window-x="-8"
     inkscape:window-y="-8"
     inkscape:window-maximized="1"
     inkscape:current-layer="layer1" />
  <defs
     id="defs2">
    <inkscape:path-effect
       effect="spiro"
       id="path-effect888"
       is_visible="true"
       lpeversion="1" />
    <inkscape:path-effect
       effect="spiro"
       id="path-effect2399"
       is_visible="true"
       lpeversion="1" />
    <inkscape:path-effect
       effect="spiro"
       id="path-effect2177"
       is_visible="true"
       lpeversion="1" />
    <inkscape:path-effect
       effect="bspline"
       id="path-effect1980"
       is_visible="true"
       lpeversion="1"
       weight="33.333333"
       steps="2"
       helper_size="0"
       apply_no_weight="true"
       apply_with_weight="true"
       only_selected="false" />
    <inkscape:path-effect
       effect="bspline"
       id="path-effect1839"
       is_visible="true"
       lpeversion="1"
       weight="33.333333"
       steps="2"
       helper_size="0"
       apply_no_weight="true"
       apply_with_weight="true"
       only_selected="false" />
  </defs>
  <g
     inkscape:label="Calque 1"
     inkscape:groupmode="layer"
     id="layer1">
    <rect
       style="opacity:1;fill:#00d7ff;fill-opacity:1;stroke:#784421;stroke-width:0.104353;stroke-linecap:round;stroke-linejoin:round;stroke-opacity:1"
       id="rect13905"
       width="85.516098"
       height="44.362354"
       x="-2.0225067"
       y="-1.9312327"
       ry="1.4973137" />
    <path
       style="fill:#28c7e5;stroke:none;stroke-width:0.264583px;stroke-linecap:butt;stroke-linejoin:miter;stroke-opacity:1;fill-opacity:1"
       d="M -1.9163035,26.151906 -2.0225067,42.43112 H 83.49359 l 0.03469,-26.987969 c 0.30761,-1.092206 0.172805,-2.302268 -0.367632,-3.299998 -0.540437,-0.99773 -1.48032,-1.771709 -2.563184,-2.110741 -0.804671,-0.2519332 -1.67218,-0.2680368 -2.502525,-0.1214369 -0.830345,0.1465999 -1.626425,0.4516009 -2.380654,0.8285669 -1.508459,0.753932 -2.858684,1.794127 -4.360166,2.561858 -0.537451,0.274807 -1.095561,0.51548 -1.594523,0.855199 -0.498962,0.339719 -0.944137,0.795111 -1.141493,1.36557 -0.09868,0.285229 -0.132127,0.595187 -0.0781,0.892128 0.05403,0.296941 0.19787,0.579711 0.418904,0.785228 0.221033,0.205517 0.520205,0.329662 0.821952,0.323187 0.301747,-0.0065 0.601502,-0.148459 0.78419,-0.388705 0.132812,-0.174656 0.201695,-0.391811 0.338172,-0.563618 0.1483,-0.18669 0.37275,-0.308652 0.608906,-0.341457 0.236156,-0.0328 0.481841,0.02173 0.687306,0.142681 0.205465,0.120955 0.370638,0.306404 0.476493,0.520041 0.105855,0.213636 0.153257,0.454504 0.146752,0.692838 -0.01301,0.47667 -0.239128,0.930141 -0.556331,1.286182 -0.317203,0.356042 -0.721066,0.623996 -1.13768,0.855979 -1.025098,0.570806 -2.162229,0.948133 -3.330037,1.061582 -1.167808,0.113449 -2.365611,-0.04045 -3.451728,-0.484298 -1.086116,-0.443845 -2.056654,-1.180961 -2.742685,-2.132805 -0.686031,-0.951845 -1.080254,-2.118325 -1.071581,-3.291599 0.01197,-1.619476 0.761856,-3.133232 1.540345,-4.553373 0.77849,-1.4201409 1.619172,-2.8603201 1.841366,-4.4645259 0.143992,-1.0395974 0.01489,-2.1163809 -0.375082,-3.0907611 -0.389974,-0.9743801 -1.04034,-1.84377622 -1.867807,-2.48937296 -0.827467,-0.64559673 -1.830182,-1.06527909 -2.871409,-1.19697675 -1.041226,-0.13169769 -2.118099,0.0255026 -3.076351,0.45357976 -0.958251,0.42807719 -1.794766,1.12625766 -2.383484,1.99511175 -0.588718,0.8688541 -0.927263,1.9059137 -0.959971,2.9549259 -0.03271,1.0490122 0.241137,2.1063948 0.782879,3.0052895 0.541743,0.8988948 1.349932,1.6356924 2.296946,2.0880871 0.23599,0.1127341 0.480979,0.208594 0.704288,0.344732 0.223308,0.1361377 0.42781,0.3188017 0.535674,0.5570577 0.075,0.165664 0.09978,0.352674 0.07744,0.533148 -0.02233,0.180474 -0.09101,0.354203 -0.192314,0.505227 -0.202599,0.302047 -0.529956,0.506384 -0.878864,0.609059 -0.348908,0.102676 -0.719456,0.110669 -1.081832,0.07965 -0.362376,-0.03102 -0.720298,-0.10006 -1.080699,-0.148948 -2.483122,-0.336835 -5.006829,0.293406 -7.327042,1.239961 -3.901903,1.591821 -7.400918,4.077805 -10.431465,7.006034 -2.166807,2.09365 -4.116376,4.425013 -6.482776,6.290107 -2.915457,2.297837 -6.402543,3.823692 -10.026732,4.626933 C 16.13852,31.91979 12.881431,32.084615 9.6942359,31.675369 8.7154955,31.549696 7.7266557,31.364734 6.8504691,30.910835 6.4123758,30.683886 6.0062254,30.39006 5.6745818,30.02476 5.3429381,29.65946 5.0872107,29.221218 4.9598442,28.744553 4.8216167,28.227241 4.8366175,27.683089 4.7771025,27.150946 4.747345,26.884874 4.6983297,26.619323 4.6038447,26.368819 4.5093597,26.118315 4.3676376,25.882466 4.1707781,25.701011 3.9371642,25.485678 3.633204,25.354673 3.3200163,25.301219 3.0068286,25.247764 2.6842522,25.268852 2.3726701,25.330985 1.749506,25.455252 1.1708071,25.739114 0.56361866,25.926459 -0.2353176,26.172966 -1.0860125,26.250302 -1.9163035,26.151906 Z"
       id="path886"
       inkscape:path-effect="#path-effect888"
       inkscape:original-d="M -1.9163035,26.151906 -2.0225067,42.43112 H 83.49359 l 0.03469,-26.987969 c 0,0 -1.953612,-3.606895 -2.930816,-5.410739 -0.977204,-1.8038442 -6.161966,2.17959 -9.243345,3.268988 -3.08138,1.089399 -0.52578,2.555336 -0.789067,3.832607 -0.263287,1.277271 0.22571,-0.375481 0.338172,-0.563618 0.112458,-0.188138 0.150561,2.104441 0.225446,3.156264 0.07488,1.051824 -7.063756,-3.231149 -10.596031,-4.84712 -3.532275,-1.615972 2.25474,-6.0116682 3.381711,-9.0178989 1.126974,-3.0062307 -5.635921,2.4801867 -8.454279,3.7198832 -2.818357,1.2396967 0.826905,0.6014577 1.239962,0.9017897 0.413055,0.300332 -2.103913,1.052353 -3.156265,1.578132 -1.052353,0.52578 -4.88443,0.826906 -7.327042,1.239961 -2.442612,0.413056 -6.954046,4.670954 -10.431465,7.006034 -3.477419,2.33508 -4.321585,4.193669 -6.482776,6.290107 -2.161188,2.096436 -6.684223,3.084885 -10.026732,4.626933 -3.342508,1.542047 -6.387413,0.30086 -9.5815171,0.450895 C 6.5001372,31.825403 6.5382412,29.721754 4.9598442,28.744553 3.3814475,27.767348 4.4340647,26.715788 4.1707781,25.701011 3.9074915,24.686233 1.7662697,25.851574 0.56361866,25.926459 -0.6390324,26.001343 -1.0893982,26.077021 -1.9163035,26.151906 Z" />
    <path
       d="m 52.804646,23.492468 -0.491795,-0.489817 c -0.01443,-0.02385 -0.01905,-0.05306 -0.01373,-0.08059 0.0054,-0.02768 0.02054,-0.05222 0.04244,-0.06874 l 0.536215,-0.373449 c 0.01359,-0.0099 0.02407,-0.02385 0.03169,-0.03952 0.0082,-0.01537 0.01088,-0.03247 0.01088,-0.0501 0,-0.01751 -0.004,-0.03473 -0.01088,-0.05011 -0.0082,-0.01566 -0.01835,-0.02906 -0.03169,-0.03952 l -0.496619,-0.403319 c -0.0219,-0.01793 -0.03632,-0.04375 -0.04026,-0.07213 -0.004,-0.02835 0.0028,-0.05759 0.01878,-0.08102 l 0.287906,-0.410783 c 0.0095,-0.01428 0.01509,-0.0302 0.01728,-0.04742 0.0028,-0.0168 8.24e-4,-0.03402 -0.004,-0.05039 -0.0054,-0.01609 -0.01373,-0.03104 -0.02556,-0.0429 -0.01088,-0.01268 -0.02556,-0.02158 -0.04107,-0.02726 l -0.651382,-0.224063 -0.140339,-0.197926 v -0.709533 c -2.77e-4,-0.01734 -0.004,-0.03444 -0.01224,-0.04982 -0.0082,-0.01537 -0.01906,-0.02881 -0.03278,-0.0388 -0.0136,-0.0099 -0.02952,-0.01693 -0.04611,-0.01961 -0.01662,-0.0029 -0.03346,-0.0012 -0.04924,0.0042 l -0.572203,0.197922 c -0.02556,0.0113 -0.054,0.0113 -0.07917,0 -0.103235,-0.05434 -0.210158,-0.100634 -0.320292,-0.138177 -0.02625,-0.0085 -0.04815,-0.02726 -0.0612,-0.05222 l -0.287904,-0.556416 c -0.0082,-0.01495 -0.01944,-0.0278 -0.03278,-0.03755 -0.01359,-0.0099 -0.02911,-0.01609 -0.04571,-0.01865 -0.01617,-0.0029 -0.03305,-0.0012 -0.04855,0.0042 -0.01578,0.0057 -0.0302,0.01411 -0.04217,0.02595 l -0.453435,0.481732 c -0.01974,0.02105 -0.0472,0.03318 -0.07563,0.0336 h -0.255516 c -0.01689,0 -0.03346,-0.0042 -0.04816,-0.0113 -0.01509,-0.0085 -0.02801,-0.01907 -0.03823,-0.03301 l -0.359916,-0.530207 c -0.0095,-0.01411 -0.02301,-0.02528 -0.03822,-0.03301 -0.01512,-0.0085 -0.03128,-0.0113 -0.04816,-0.0113 -0.01686,0 -0.03346,0.0042 -0.04829,0.0113 -0.01509,0.0085 -0.02801,0.01907 -0.03808,0.03301 l -0.359872,0.530287 c -0.0095,0.01411 -0.02298,0.02528 -0.03822,0.03301 -0.01512,0.0085 -0.03128,0.0113 -0.04829,0.0113 h -0.259113 c -0.01686,0 -0.03346,-0.0042 -0.04828,-0.0113 -0.01512,-0.0085 -0.02802,-0.01907 -0.03809,-0.03301 l -0.359895,-0.530314 c -0.0095,-0.01411 -0.02299,-0.02529 -0.03809,-0.03301 -0.01509,-0.0085 -0.03128,-0.0113 -0.04829,-0.0113 -0.01686,0 -0.03347,0.0042 -0.04815,0.0113 -0.01512,0.0085 -0.02802,0.01907 -0.03822,0.03301 l -0.359873,0.530288 c -0.0095,0.01411 -0.023,0.02529 -0.03822,0.03301 -0.01512,0.0085 -0.03128,0.0113 -0.04816,0.0113 h -0.259077 c -0.01686,0 -0.03346,-0.0042 -0.04829,-0.0113 -0.01509,-0.0085 -0.02801,-0.01907 -0.03809,-0.03301 L 46.292428,19.2957 c -0.0095,-0.01411 -0.02299,-0.02528 -0.03823,-0.03301 -0.01512,-0.0085 -0.03128,-0.0113 -0.04829,-0.0113 -0.01686,0 -0.03346,0.0042 -0.04829,0.0113 -0.01512,0.0085 -0.02802,0.01907 -0.03809,0.03301 l -0.359885,0.530287 c -0.0095,0.01411 -0.02299,0.02524 -0.03809,0.03301 -0.01512,0.0085 -0.03128,0.0113 -0.04829,0.0113 H 45.41415 c -0.01686,0 -0.03346,-0.0042 -0.04828,-0.0113 -0.01512,-0.0085 -0.02802,-0.01903 -0.03808,-0.03301 L 44.96792,19.2957 c -0.0095,-0.01411 -0.02299,-0.02528 -0.03822,-0.03301 -0.01509,-0.0085 -0.03128,-0.0113 -0.04816,-0.0113 -0.01686,0 -0.03346,0.0042 -0.04829,0.0113 -0.01509,0.0085 -0.02802,0.01907 -0.03809,0.03301 l -0.359873,0.530287 c -0.0095,0.01411 -0.023,0.02524 -0.03822,0.03301 -0.01512,0.0085 -0.03128,0.0113 -0.04829,0.0113 h -0.25911 c -0.01686,0 -0.03346,-0.0042 -0.04829,-0.0113 -0.01512,-0.0085 -0.02802,-0.01903 -0.03809,-0.03301 L 43.643407,19.2957 c -0.0095,-0.01411 -0.02299,-0.02528 -0.03808,-0.03301 -0.01512,-0.0085 -0.03128,-0.0113 -0.04829,-0.0113 -0.01686,0 -0.03346,0.0042 -0.04816,0.0113 -0.01512,0.0085 -0.02801,0.01907 -0.03822,0.03301 l -0.359874,0.530287 c -0.0095,0.01411 -0.02299,0.02524 -0.03822,0.03301 -0.01509,0.0085 -0.03128,0.0113 -0.04815,0.0113 H 42.7653 c -0.01686,0 -0.03346,-0.0042 -0.04829,-0.0113 -0.01509,-0.0085 -0.02801,-0.01903 -0.03809,-0.03301 L 42.319049,19.2957 c -0.0095,-0.01411 -0.02299,-0.02528 -0.03809,-0.03301 -0.01509,-0.0085 -0.03128,-0.0113 -0.04829,-0.0113 -0.01686,0 -0.03346,0.0042 -0.04829,0.0113 -0.01509,0.0085 -0.02801,0.01907 -0.03809,0.03301 l -0.359886,0.530287 c -0.0095,0.01411 -0.023,0.02524 -0.03809,0.03301 -0.01509,0.0085 -0.03128,0.0113 -0.04829,0.0113 H 41.44091 c -0.01686,0 -0.03347,-0.0042 -0.04829,-0.0113 -0.01509,-0.0085 -0.02801,-0.01903 -0.03822,-0.03301 L 40.994528,19.2957 c -0.0095,-0.01411 -0.02299,-0.02528 -0.03822,-0.03301 -0.01509,-0.0085 -0.03128,-0.0113 -0.04828,-0.0113 -0.01688,0 -0.03347,0.0042 -0.04829,0.0113 -0.01512,0.0085 -0.02802,0.01907 -0.03809,0.03301 l -0.35987,0.530287 c -0.0095,0.01411 -0.02299,0.02524 -0.03808,0.03301 -0.01509,0.0085 -0.03128,0.0113 -0.04829,0.0113 h -0.25911 c -0.01686,0 -0.03346,-0.0042 -0.04829,-0.0113 -0.01512,-0.0085 -0.02802,-0.01903 -0.03808,-0.03301 L 39.670041,19.2957 c -0.0095,-0.01411 -0.02299,-0.02528 -0.03809,-0.03301 -0.01512,-0.0085 -0.03128,-0.0113 -0.04829,-0.0113 -0.01686,0 -0.03346,0.0042 -0.04829,0.0113 -0.01509,0.0085 -0.02802,0.01907 -0.03808,0.03301 l -0.359846,0.752557 c -0.0095,0.01411 -0.02299,0.02524 -0.03822,0.03301 -0.01512,0.0085 -0.03128,0.0113 -0.04816,0.0113 h -0.259111 c -0.01686,0 -0.03346,-0.0042 -0.04829,-0.0113 -0.01512,-0.0085 -0.02838,-0.01873 -0.03808,-0.03301 l -0.359871,-0.530288 c -0.0095,-0.01411 -0.02299,-0.02529 -0.03822,-0.03301 -0.01509,-0.0085 -0.03128,-0.0113 -0.04815,-0.0113 -0.01688,0 -0.03346,0.0042 -0.04829,0.0113 -0.01512,0.0085 -0.02802,0.01907 -0.03808,0.03301 l -0.359884,0.530288 c -0.0095,0.01411 -0.02299,0.02524 -0.03808,0.03301 -0.01512,0.0085 -0.03128,0.0113 -0.04829,0.0113 h -0.259112 c -0.01686,0 -0.03346,-0.0042 -0.04829,-0.0113 -0.01509,-0.0085 -0.02801,-0.01902 -0.03822,-0.03301 l -0.359871,-0.530288 c -0.0095,-0.01411 -0.023,-0.02529 -0.03822,-0.03301 -0.01512,-0.0085 -0.03128,-0.0113 -0.04829,-0.0113 -0.01686,0 -0.03346,0.0042 -0.04829,0.0113 -0.0151,0.0085 -0.02802,0.01907 -0.03809,0.03301 l -0.359871,0.530288 c -0.0095,0.01411 -0.023,0.02524 -0.03822,0.03301 -0.01512,0.0085 -0.03128,0.0113 -0.04815,0.0113 h -0.259111 c -0.01686,0 -0.03346,-0.0042 -0.04829,-0.0113 -0.01512,-0.0085 -0.02802,-0.01902 -0.03809,-0.03301 l -0.359883,-0.530288 c -0.0095,-0.01411 -0.02299,-0.02529 -0.03809,-0.03301 -0.01509,-0.0085 -0.03128,-0.0113 -0.04829,-0.0113 -0.01686,0 -0.03367,0.0038 -0.04829,0.0113 -0.01534,0.008 -0.02848,0.01865 -0.03822,0.03301 l -0.359873,0.530288 c -0.0095,0.01411 -0.023,0.02524 -0.03822,0.03301 -0.01509,0.0085 -0.03128,0.0113 -0.04829,0.0113 h -0.259111 c -0.01686,0 -0.03347,-0.0042 -0.04829,-0.0113 -0.01512,-0.0085 -0.02802,-0.01902 -0.03809,-0.03301 l -0.359691,-0.530288 c -0.0095,-0.01411 -0.023,-0.02529 -0.03822,-0.03301 -0.01512,-0.0085 -0.03128,-0.0113 -0.04816,-0.0113 -0.01686,0 -0.03346,0.0042 -0.04829,0.0113 -0.01512,0.0085 -0.02802,0.01907 -0.03809,0.03301 l -0.359885,0.530288 c -0.0095,0.01411 -0.023,0.02524 -0.03808,0.03301 -0.01512,0.0085 -0.03128,0.0113 -0.04829,0.0113 h -0.259095 c -0.01686,0 -0.03346,-0.0042 -0.04829,-0.0113 -0.01512,-0.0085 -0.02802,-0.01902 -0.03822,-0.03301 l -0.359873,-0.530288 c -0.0095,-0.01411 -0.023,-0.02529 -0.03822,-0.03301 -0.01512,-0.0085 -0.03129,-0.0113 -0.04829,-0.0113 -0.01686,0 -0.03346,0.0042 -0.04829,0.0113 -0.01509,0.0085 -0.02802,0.01907 -0.03809,0.03301 l -0.359867,0.530288 c -0.0095,0.01411 -0.023,0.02524 -0.03823,0.03301 -0.01512,0.0085 -0.03137,0.0094 -0.04816,0.0113 l -2.571171,0.296751 c -0.02868,0.0034 0.06065,-0.507701 0.04052,-0.486113 -0.02012,0.02105 -0.03169,0.04954 -0.03169,0.07918 v 4.768829 c 0,0.0299 0.01088,0.05829 0.03169,0.07918 0.02012,0.02087 0.04747,0.03289 0.07631,0.03289 h 2.396765 c 0.01686,0 0.03305,0.0042 0.04829,0.0113 0.01512,0.0084 0.02802,0.01907 0.03809,0.03289 l 0.431851,0.612443 c 0.0095,0.01411 0.02299,0.02494 0.03822,0.03288 0.01483,0.0084 0.03128,0.0113 0.04815,0.0113 0.01686,0 0.03305,-0.0042 0.04829,-0.0113 0.01512,-0.0085 0.02802,-0.01907 0.03809,-0.03288 l 0.464235,-0.657256 h 0.251917 l 0.464249,0.657256 c 0.0095,0.01411 0.023,0.02494 0.03809,0.03288 0.01483,0.0084 0.03128,0.0113 0.04829,0.0113 0.01686,0 0.03305,-0.0042 0.04815,-0.0113 0.0151,-0.0085 0.02802,-0.01907 0.03822,-0.03288 l 0.464237,-0.657256 h 0.251917 l 0.464234,0.657256 c 0.0095,0.01411 0.023,0.02494 0.03809,0.03288 0.01483,0.0084 0.03128,0.0113 0.04829,0.0113 0.01686,0 0.03305,-0.0042 0.04829,-0.0113 0.01512,-0.0085 0.02802,-0.01907 0.03822,-0.03288 l 0.464238,-0.657256 h 0.251915 l 0.464236,0.657256 c 0.0095,0.01411 0.023,0.02494 0.03823,0.03288 0.01483,0.0084 0.03128,0.0113 0.04829,0.0113 0.01686,0 0.03304,-0.0042 0.04829,-0.0113 0.01509,-0.0085 0.02801,-0.01907 0.03809,-0.03288 l 0.464235,-0.657256 h 0.251917 l 0.464249,0.657256 c 0.0095,0.01411 0.02299,0.02494 0.03809,0.03288 0.01469,0.0084 0.03128,0.0113 0.04829,0.0113 0.01686,0 0.03306,-0.0042 0.04816,-0.0113 0.01512,-0.0085 0.02801,-0.01907 0.03822,-0.03288 l 0.464238,-0.657256 h 0.251912 l 0.464237,0.657256 c 0.0095,0.01411 0.023,0.02494 0.03809,0.03288 0.01483,0.0084 0.03128,0.0113 0.04829,0.0113 0.01686,0 0.03305,-0.0042 0.04815,-0.0113 0.01512,-0.0085 0.02802,-0.01907 0.03822,-0.03288 l 0.464235,-0.657256 H 40.5442 l 0.464235,0.657256 c 0.0095,0.01411 0.02299,0.02494 0.03822,0.03288 0.01483,0.0084 0.03128,0.0113 0.04816,0.0113 0.01686,0 0.03305,-0.0042 0.04829,-0.0113 0.01512,-0.0085 0.02801,-0.01907 0.03809,-0.03288 l 0.464236,-0.657256 h 0.251918 l 0.464248,0.657256 c 0.0095,0.01411 0.02299,0.02494 0.03808,0.03288 0.01483,0.0084 0.03128,0.0113 0.04828,0.0113 0.01688,0 0.03305,-0.0042 0.04829,-0.0113 0.01512,-0.0085 0.02802,-0.01907 0.03809,-0.03288 l 0.464234,-0.657256 h 0.251915 l 0.464238,0.657256 c 0.0095,0.01411 0.02299,0.02494 0.03809,0.03288 0.01483,0.0084 0.03128,0.0113 0.04829,0.0113 0.01686,0 0.03305,-0.0042 0.04829,-0.0113 0.01512,-0.0085 0.02802,-0.01907 0.03823,-0.03288 l 0.464233,-0.657256 h 0.251916 l 0.464238,0.657256 c 0.0095,0.01411 0.02299,0.02494 0.03822,0.03288 0.01483,0.0084 0.03128,0.0113 0.04828,0.0113 0.01686,0 0.03306,-0.0042 0.04829,-0.0113 0.01512,-0.0085 0.02802,-0.01907 0.03809,-0.03288 l 0.464234,-0.657256 h 0.251916 l 0.464251,0.657256 c 0.0095,0.01411 0.02299,0.02494 0.03808,0.03288 0.01483,0.0084 0.03128,0.0113 0.04829,0.0113 0.01686,0 0.03305,-0.0042 0.04815,-0.0113 0.01512,-0.0085 0.02802,-0.01907 0.03822,-0.03288 l 0.464236,-0.657256 h 0.251917 l 0.464233,0.657256 c 0.0095,0.01411 0.02299,0.02494 0.03808,0.03288 0.01483,0.0084 0.03128,0.0113 0.04829,0.0113 0.01686,0 0.03305,-0.0042 0.04829,-0.0113 0.01512,-0.0085 0.02802,-0.01907 0.03809,-0.03288 l 0.464236,-0.657256 h 0.251914 l 0.464238,0.657256 c 0.0095,0.01411 0.023,0.02494 0.03822,0.03288 0.01484,0.0084 0.03128,0.0113 0.04816,0.0113 0.01689,0 0.03305,-0.0042 0.04829,-0.0113 0.01512,-0.0085 0.02802,-0.01907 0.03809,-0.03288 l 0.464235,-0.657256 h 0.233921 l 0.514632,0.59377 c 0.0095,0.01411 0.02299,0.02499 0.03809,0.03288 0.01484,0.0084 0.03128,0.0113 0.04829,0.0113 0.01686,0 0.03305,-0.0042 0.04816,-0.0113 0.01512,-0.0085 0.02802,-0.01907 0.03822,-0.03288 l 0.359874,-0.631103 0.2951,-0.115738 0.644171,0.220325 c 0.01578,0.0057 0.03278,0.007 0.04924,0.0042 0.01658,-0.0029 0.03237,-0.0099 0.04611,-0.01949 0.0136,-0.0099 0.02489,-0.02356 0.03278,-0.0388 0.0082,-0.01566 0.01224,-0.03247 0.01224,-0.04997 v -0.746882 l 0.172739,-0.235271 0.498019,-0.194688 z m -11.1962,-3.301993 8.250064,-0.07078 c 0.572543,-0.0049 1.121726,0.236048 1.526946,0.656285 0.404864,0.420337 0.632311,0.9902 0.632311,1.584353 0,0.594142 -0.227447,1.164002 -0.632311,1.584495 -0.40522,0.420128 -0.954386,0.656142 -1.526946,0.656142 H 37.512431 l -7.387004,-1.323319 c -0.02847,-0.0051 -0.274605,1.312025 -0.294736,1.290437 -0.02012,-0.02087 -0.03169,-0.04926 -0.03169,-0.07918 0.02799,-1.427535 0.117878,-1.856219 0.164743,-3.277895 2.707311,-0.181475 5.423661,-0.502534 8.029324,-0.764581 1.215028,-0.122188 2.467398,-0.262315 3.615379,-0.255964 z"
       fill="#558a89"
       id="path17-77"
       style="fill:#808080;stroke-width:0.366594"
       sodipodi:nodetypes="ccccccscccccccccccccsscccccccccccccsccccsccccssccccsccccssccccsccccssccccsccccssccccsccccssccccsccccssccccsccccssccccsccccsscsccsccccssccccsccccssccccsssccssccccsccccssccccsccccsscsscssccccsccccccsccccccsccccccsccccccsccccccsccccccsccccccsccccccsccccccsccccccsccccccsccccccsccccccsccccccccscccccscscscscccsc" />
    <path
       d="m 49.579413,20.14446 c 0,0 -5.440937,-0.05715 -8.160674,0 -3.836895,0.08063 -11.504507,0.483702 -11.504507,0.483702 l -0.918122,3.480483 c 0,0 8.296864,0.413937 12.447835,0.53345 2.916011,0.08396 8.750202,0.128951 8.750202,0.128951 0.57254,-0.0053 0.894059,-0.286578 1.299276,-0.706706 0.404852,-0.420493 0.632298,-0.990353 0.632298,-1.584508 v -0.22032 c 0.0028,-0.296515 -0.05005,-0.590784 -0.156907,-0.865648 -0.107181,-0.274844 -0.265586,-0.524668 -0.466397,-0.735665 -0.200803,-0.210852 -0.44012,-0.378215 -0.703912,-0.492458 -0.263437,-0.114183 -0.933348,-0.02133 -1.219092,-0.02129 z"
       fill="#ffffff"
       id="path19-56"
       style="fill:#cccccc;stroke-width:0.366594"
       sodipodi:nodetypes="caccascscccccc" />
    <path
       d="m 11.597471,20.074768 1.399624,0.267365 0.27161,-3.114877 z"
       fill="#f44e4e"
       id="path21-3"
       style="fill:#ff6600;stroke-width:0.366594"
       inkscape:transform-center-x="-1.6362906"
       inkscape:transform-center-y="-1.2945484" />
    <path
       d="m 20.224395,25.921409 -3.237859,-0.140697 -4.683772,-2.618494 c -0.578215,-0.280257 -1.039072,-0.787209 -1.281316,-1.409858 -0.24225,-0.622664 -0.245765,-1.309282 -0.01002,-1.909288 l 0.806858,-2.053615 c 0.187125,-0.479316 0.516256,-0.875265 0.940118,-1.130578 0.423516,-0.255465 0.919673,-0.356997 1.416392,-0.290097 l 6.715688,0.895919 -0.08115,1.125972 -6.715686,-0.89592 c -0.270948,-0.03691 -0.541917,0.01815 -0.772964,0.157492 -0.231397,0.139238 -0.410943,0.355356 -0.512886,0.616823 l -0.806857,2.053615 c -0.12729,0.327019 -0.124873,0.700603 0.0067,1.039383 0.131999,0.338598 0.382368,0.614777 0.696631,0.768314 l 4.628508,2.665869 2.142265,-0.117788 z"
       fill="#434343"
       id="path23-7"
       style="stroke-width:0.366594"
       sodipodi:nodetypes="cccsscccccccccccccc" />
    <path
       d="m 29.914192,17.056668 h -3.893853 c -0.07808,0.0013 -0.156188,-0.01269 -0.228887,-0.04192 -0.07263,-0.02964 -0.139268,-0.07424 -0.195415,-0.130979 -0.05577,-0.05674 -0.100381,-0.124489 -0.130578,-0.199379 -0.0306,-0.07481 -0.0461,-0.1552 -0.0461,-0.236427 0,-0.161426 -0.06189,-0.316258 -0.171654,-0.430414 -0.110172,-0.114187 -0.259476,-0.178293 -0.414941,-0.178293 H 21.68025 c -0.72695,0.0013 -1.423665,0.303047 -1.936856,0.837188 -0.513541,0.534168 -0.801801,1.257778 -0.801801,2.012155 v 2.800808 c 0,-0.755693 0.289348,-1.480433 0.804333,-2.014782 0.514984,-0.534353 1.213139,-0.834564 1.941518,-0.834564 h 3.152514 c 0.155111,0.0012 0.303018,0.06747 0.41134,0.182243 0.108676,0.114751 0.169148,0.269396 0.168061,0.430203 0.0014,0.07989 0.01905,0.158703 0.05005,0.231828 0.03128,0.07312 0.07589,0.139165 0.132073,0.194268 0.05577,0.05518 0.121328,0.09838 0.193253,0.12717 0.07195,0.02881 0.148636,0.04248 0.225648,0.04053 h 3.893854 c 0.61467,0 1.204136,0.253378 1.638873,0.704387 0.434364,0.451036 0.678721,1.062734 0.678721,1.70057 v -2.778394 c 0.0014,-0.31675 -0.05754,-0.630707 -0.17345,-0.923778 -0.115476,-0.293103 -0.28611,-0.559552 -0.501669,-0.784053 -0.215203,-0.224517 -0.471076,-0.402651 -0.753229,-0.524204 -0.281782,-0.121523 -0.584081,-0.184135 -0.889246,-0.184135 z"
       fill="#fc8686"
       id="path25-82"
       style="fill:#ff7f2a;stroke-width:0.366594" />
    <path
       d="m 29.914192,19.746252 h -3.893853 c -0.07698,0.0012 -0.153673,-0.0113 -0.225651,-0.04053 -0.07195,-0.02881 -0.137471,-0.07198 -0.193253,-0.127166 -0.05617,-0.05519 -0.100788,-0.121105 -0.132071,-0.194272 -0.03128,-0.07311 -0.04815,-0.151882 -0.05005,-0.231823 0,-0.161442 -0.06189,-0.316277 -0.171655,-0.43043 -0.11017,-0.114186 -0.259476,-0.17829 -0.414942,-0.17829 h -3.152511 c -0.72838,0 -1.426553,0.300208 -1.941534,0.834578 -0.514971,0.534349 -0.804319,1.259075 -0.804319,2.014782 v 2.800788 c 0,0.755848 0.289348,1.48032 0.804319,2.014715 0.514981,0.534395 1.213154,0.834631 1.941534,0.834631 h 8.215967 c 0.614668,0 1.204135,-0.253197 1.638872,-0.704299 0.434364,-0.451123 0.678732,-1.062818 0.678732,-1.700658 v -2.475896 c 0.0028,-0.636722 -0.237525,-1.248409 -0.668654,-1.701204 -0.431132,-0.452915 -1.017726,-0.710019 -1.630955,-0.714959 z"
       fill="#ff6b6b"
       id="path27-6"
       style="fill:#ff6600;stroke-width:0.366594" />
    <path
       d="m 23.047762,24.98935 c 1.069197,0 1.936133,-0.899618 1.936133,-2.009109 0,-1.109483 -0.866936,-2.009096 -1.936133,-2.009096 -1.069196,0 -1.936133,0.899613 -1.936133,2.009096 0,1.109491 0.866937,2.009109 1.936133,2.009109 z"
       fill="#f44e4e"
       id="path29-16"
       style="fill:#d45500;stroke-width:0.366594" />
    <path
       d="m 29.208827,12.087006 v 5.116124 1.254757 c 0,-0.08581 0,0 0,0 l -1.36393,2.098737 c -0.478624,0.746883 0.669377,1.42654 1.144414,0.694589 0.513543,-0.678611 0.979219,-1.395011 1.392722,-2.143532 0.226711,-0.496678 0.140342,-1.082988 0.140342,-1.628207 v -5.392468 c 0,-0.182722 -0.06977,-0.357979 -0.194325,-0.487195 -0.124593,-0.129145 -0.293659,-0.201806 -0.469637,-0.201806 -0.175978,0 -0.345129,0.07255 -0.469637,0.201806 -0.124591,0.129287 -0.19434,0.304473 -0.19434,0.487195 z"
       fill="#434343"
       id="path31-83"
       style="stroke-width:0.366594" />
    <ellipse
       style="fill:#ff6600;stroke-width:0.0469021;stroke-linecap:round;stroke-linejoin:round"
       id="path3297"
       cx="23.016607"
       cy="22.977875"
       rx="1.092151"
       ry="1.2792102" />
    <rect
       style="fill:#4d4d4d;stroke-width:0.0329385;stroke-linecap:round;stroke-linejoin:round"
       id="rect3941"
       width="2.9244373"
       height="0.39448625"
       x="20.597954"
       y="16.523117"
       ry="0.18712234" />
    <rect
       style="fill:#4d4d4d;stroke-width:0.0329384;stroke-linecap:round;stroke-linejoin:round"
       id="rect3967"
       width="2.7944267"
       height="0.34517547"
       x="20.652403"
       y="17.319265"
       ry="0.17258774" />
    <rect
       style="fill:#4d4d4d;stroke-width:0.0329396;stroke-linecap:round;stroke-linejoin:round"
       id="rect3969"
       width="2.5996864"
       height="0.2958647"
       x="20.809332"
       y="18.094809"
       ry="0.14793235" />
    <rect
       style="fill:#d45500;stroke-width:0.0398516;stroke-linecap:round;stroke-linejoin:round"
       id="rect4145"
       width="0.014391487"
       height="6.3166211e-15"
       x="29.62513"
       y="7.7550144"
       ry="3.1583106e-15" />
    <rect
       style="fill:#d45500;stroke-width:0.0437546;stroke-linecap:round;stroke-linejoin:round"
       id="rect4147"
       width="1.3317958"
       height="1.6601663"
       x="29.171194"
       y="11.377255"
       ry="0.57744908" />
    <path
       d="m 116.47818,37.92818 c -3.3e-4,-1.724942 0.38382,-3.427774 1.1243,-4.981881 0.74048,-1.554126 1.81817,-2.919554 3.15258,-3.994735 -1.59142,0.514055 -3.05155,1.37601 -4.27633,2.524674 -1.22451,1.148642 -2.18396,2.555811 -2.81009,4.121538 -0.62613,1.56568 -0.90312,3.251522 -0.81181,4.937721 0.091,1.6862 0.5487,3.33139 1.33997,4.818702 0.79127,1.487313 1.89698,2.780251 3.23833,3.786979 1.34163,1.006722 2.88586,1.702518 4.52334,2.037963 1.63749,0.335448 3.32799,0.302316 4.95131,-0.09702 1.62333,-0.399365 3.13981,-1.155141 4.44175,-2.213683 -1.7066,0.556609 -3.51948,0.697596 -5.29019,0.411516 -1.77098,-0.286092 -3.44982,-0.991155 -4.89968,-2.057714 -1.45015,-1.066559 -2.63025,-2.46444 -3.44399,-4.079593 -0.81403,-1.615144 -1.23866,-3.401875 -1.23949,-5.214452 z"
       fill="#3c6448"
       id="path11-63"
       style="fill:#4d815d;fill-opacity:1;stroke-width:0.279026" />
    <path
       d="m 135.62841,39.89181 c -6.2e-4,-1.81257 -0.42547,-3.59931 -1.23949,-5.214452 -0.81375,-1.615145 -1.99385,-3.013025 -3.44399,-4.079584 -1.44987,-1.066569 -3.12871,-1.771621 -4.89968,-2.057727 -1.77071,-0.286081 -3.5836,-0.145082 -5.29019,0.411517 -2.06989,1.683095 -3.492,4.045147 -4.01961,6.676756 -0.52787,2.631605 -0.12795,5.366894 1.13042,7.731747 1.25809,2.364895 3.29523,4.210254 5.7584,5.216339 2.46288,1.006051 5.19665,1.10937 7.72726,0.292017 1.3344,-1.075169 2.41209,-2.440595 3.15257,-3.994733 0.74047,-1.554103 1.12459,-3.256938 1.12431,-4.98188 z"
       fill="#77b590"
       id="path13-48"
       style="fill:#77b570;fill-opacity:1;stroke-width:0.279026" />
    <path
       d="m 121.46002,33.532449 -0.24979,-0.255275 -2.65882,1.8374 -0.47183,-4.771634 h -0.84927 l -0.56896,5.745031 -1.89004,-1.30441 -0.24978,0.252462 1.95665,2.892157 -0.48883,4.941787 -0.44529,4.501642 v 0 l -0.44247,4.473115 h 5.10672 l -1.421,-14.362571 z"
       fill="#915f3a"
       id="path15-3"
       style="stroke-width:0.279026"
       sodipodi:nodetypes="cccccccccccccccc" />
    <path
       style="fill:#71be89;fill-opacity:1;stroke:none;stroke-width:0.273986px;stroke-linecap:butt;stroke-linejoin:miter;stroke-opacity:1"
       d="m -1.8628587,37.455374 c 1.03483709,-0.964493 2.06939042,-1.929254 3.10366,-2.894277 1.0342695,-0.965025 2.3367212,0.908274 3.2492787,1.872767 0.9125577,0.964496 1.9237715,0.113767 3.1406095,-0.340501 1.2168381,-0.454271 3.5299355,0.227266 5.2944785,0.340503 1.764542,0.113236 2.67795,-0.226738 4.0165,-0.340503 1.33855,-0.113766 3.358959,0.227265 4.697509,0.851258 1.33855,0.623991 1.631807,-0.226738 2.787789,-0.851258 1.155982,-0.624523 2.312815,2.64e-4 3.468798,0 1.15598,-2.65e-4 1.217403,0.567769 1.825682,0.851257 0.608276,0.283488 2.06939,-0.907743 3.103658,-1.362014 1.03427,-0.454269 3.334326,-0.283489 4.490307,0.510756 1.155982,0.794242 1.53473,1.192025 2.812422,0.851258 1.277694,-0.340768 1.46083,-0.794242 2.190821,-1.191763 0.729988,-0.397518 2.677949,-0.396989 4.0165,0.340505 1.33855,0.737492 2.67795,1.305526 4.0165,1.021509 1.338551,-0.284017 3.043088,-1.248248 4.564207,-1.872768 1.521119,-0.62452 3.992877,-0.05649 6.24427,1.02151 2.251391,1.077998 3.797265,0.284018 5.440095,-0.681007 1.642831,-0.965023 4.381923,2.64e-4 6.572457,0 2.190534,-2.65e-4 4.722426,2.327039 6.91296,2.043022 2.190535,-0.284017 0.876901,-1.872506 1.485179,-1.362014 0.608277,0.51049 2.434527,-1.134747 3.651365,-1.702517 1.216839,-0.567772 0.36542,1.929784 0.547704,2.894277 0.182285,0.964496 0.36542,3.405299 0.547704,5.107554 0.182287,1.702252 -87.6327489,0.681006 -87.6327489,0.681006 z"
       id="path5054"
       sodipodi:nodetypes="csssssssssssssssssssssssscc" />
    <path
       style="fill:#915f3a;fill-opacity:1;stroke:none;stroke-width:0.264583px;stroke-linecap:butt;stroke-linejoin:miter;stroke-opacity:1"
       d="m 48.125023,36.422066 c 0.337563,-0.41278 1.087755,-0.975424 1.838066,-1.256731 0.750311,-0.281307 1.500491,-0.281307 2.288225,-0.206258 0.787734,0.07505 1.612924,0.225084 2.119141,-0.356247 0.506217,-0.581332 0.693764,-1.894144 0.7313,-3.244476 0.03754,-1.350332 -0.07499,-2.738163 -0.150017,-3.807199 -0.07502,-1.069036 -0.112534,-1.819221 1.42e-4,-2.100571 0.112676,-0.281351 0.375237,-0.09381 1.200468,0.131174 0.825231,0.224984 2.213061,0.487547 3.54462,0.506252 1.331559,0.01871 2.606869,-0.20635 3.431994,-0.468915 0.825125,-0.262564 1.200215,-0.562636 1.406507,-0.206133 0.206292,0.356503 0.243801,1.369244 0.262551,2.869647 0.01875,1.500403 0.01875,3.488379 0.243914,4.82 0.225164,1.33162 0.675272,2.006782 1.763124,2.513045 1.087852,0.506262 2.813262,0.843842 3.844681,1.53791 1.031419,0.694068 1.369002,1.744318 1.762947,2.47573 0.393945,0.731411 0.844048,1.144006 0.206388,0.993902 -0.637659,-0.150105 -2.363069,-0.862774 -3.825996,-1.200431 -1.462926,-0.337657 -2.663206,-0.300149 -3.582355,0.28131 -0.919148,0.581459 -1.556798,1.706727 -2.606903,1.838053 -1.050104,0.131326 -2.512954,-0.73138 -3.113285,-1.819166 -0.600331,-1.087786 -0.337766,-2.4006 -0.825323,-2.77582 -0.487557,-0.375221 -1.725356,0.187415 -2.813209,0.956403 -1.087852,0.768989 -2.025579,1.744224 -2.869436,2.269345 -0.843856,0.525121 -1.594036,0.600139 -2.250425,0.450208 -0.65639,-0.149931 -1.219021,-0.525018 -1.669225,-1.106368 -0.450204,-0.581351 -0.787784,-1.36904 -0.994113,-1.894186 -0.206329,-0.525146 -0.281344,-0.787697 0.05622,-1.200478 z"
       id="path1837"
       inkscape:path-effect="#path-effect1839"
       inkscape:original-d="m 47.71235,36.571963 c 0.75046,-0.562379 1.50065,-1.125026 2.25058,-1.687935 0.75047,2.64e-4 1.50065,2.64e-4 2.25058,0 0.8255,0.150307 1.65069,0.300341 2.47564,0.450117 0.18782,-1.312604 0.37537,-2.625416 0.56265,-3.938519 -0.11227,-1.387623 -0.22479,-2.775455 -0.33759,-4.163578 -0.0372,-0.749944 -0.0748,-1.500124 -0.11253,-2.250582 0.26284,0.187817 0.5254,0.375361 0.78771,0.562645 1.38815,0.262838 2.77598,0.525401 4.16357,0.787704 1.27562,-0.224798 2.55093,-0.449852 3.82599,-0.675175 0.37537,-0.299818 0.75046,-0.59989 1.12529,-0.900232 0.0378,1.013047 0.0753,2.025788 0.11253,3.038286 2.7e-4,1.988318 2.7e-4,3.976294 0,5.964042 0.45039,0.675452 0.9005,1.350613 1.35035,2.025526 1.72575,0.337857 3.45116,0.675439 5.17634,1.012761 0.33786,1.050557 0.67544,2.100808 1.01277,3.150815 0.45039,0.412879 0.90049,0.825478 1.35035,1.237821 -1.72522,-0.712436 -3.45063,-1.425104 -5.17634,-2.138053 -1.20008,0.03777 -2.40036,0.07528 -3.60094,0.112527 -0.63741,1.12558 -1.27506,2.250848 -1.91299,3.375875 -1.46264,-0.862476 -2.92549,-1.725182 -4.38864,-2.58817 0.26284,-1.312601 0.5254,-2.625416 0.78771,-3.938519 -1.23758,0.562922 -2.47538,1.125556 -3.71346,1.687936 -0.9375,0.975537 -1.87523,1.95077 -2.81323,2.925757 -0.74995,0.07529 -1.50013,0.150304 -2.25058,0.22506 -0.5624,-0.374841 -1.12503,-0.74993 -1.68794,-1.125292 -0.33733,-0.787455 -0.67491,-1.575144 -1.01276,-2.363112 -0.0748,-0.262308 -0.14978,-0.52487 -0.22506,-0.787705 z" />
    <ellipse
       style="fill:#ffffff;stroke:#f2f2f2;stroke-width:0.0978377;stroke-linecap:round;stroke-linejoin:round"
       id="path1863"
       cx="59.696701"
       cy="25.012899"
       rx="4.8960981"
       ry="1.0701078" />
    <path
       style="fill:none;stroke:#784421;stroke-width:0.264583px;stroke-linecap:butt;stroke-linejoin:miter;stroke-opacity:1"
       d="m 57.83997,27.344577 c -0.485697,0.965521 -0.568594,2.126062 -0.22506,3.150815 0.159466,0.475684 0.404261,0.91731 0.614055,1.373042 0.209794,0.455731 0.387512,0.938608 0.398705,1.440185 0.0097,0.433561 -0.109133,0.8692 -0.33758,1.237821"
       id="path2175"
       inkscape:path-effect="#path-effect2177"
       inkscape:original-d="m 57.83997,27.344577 c -0.0748,1.050536 -0.14977,2.100808 -0.22506,3.150815 -0.0753,1.050007 0.67544,1.87575 1.01276,2.813227 0.33732,0.93748 -0.22479,0.825479 -0.33758,1.237821" />
    <path
       sodipodi:type="spiral"
       style="opacity:0.36;fill:none;fill-rule:evenodd;stroke:#784421;stroke-opacity:1"
       id="path2282"
       sodipodi:cx="441.4686"
       sodipodi:cy="96.11937"
       sodipodi:expansion="1"
       sodipodi:revolution="3"
       sodipodi:radius="4.3788028"
       sodipodi:argument="-16.771662"
       sodipodi:t0="0"
       d="m 441.4686,96.11937 c -0.10662,0.191917 -0.31131,-0.04904 -0.31898,-0.177211 -0.0208,-0.347343 0.38256,-0.519382 0.6734,-0.46075 0.52025,0.104879 0.74725,0.698363 0.60252,1.169594 -0.2124,0.691549 -1.01787,0.980258 -1.66579,0.744288 -0.86357,-0.314512 -1.21535,-1.338606 -0.88605,-2.161977 0.41439,-1.036127 1.65991,-1.451517 2.65816,-1.027826 1.20902,0.513146 1.68829,1.981544 1.1696,3.154359 -0.61126,1.382121 -2.30337,1.925444 -3.65055,1.311365 -1.55537,-0.708978 -2.16286,-2.625327 -1.45314,-4.146742 0.80643,-1.728727 2.94738,-2.400445 4.64294,-1.594904 1.90215,0.903696 2.63816,3.269496 1.73667,5.139125 -1.00083,2.075639 -3.59166,2.875979 -5.63531,1.878442"
       transform="matrix(0.39193004,0,0,0.36558719,-112.13653,-5.9191277)" />
    <path
       style="fill:none;stroke:#784421;stroke-width:0.264583px;stroke-linecap:butt;stroke-linejoin:miter;stroke-opacity:1"
       d="m 62.34113,33.083562 c -0.242312,0.291082 -0.404215,0.648423 -0.463283,1.022529 -0.05907,0.374105 -0.01514,0.763946 0.125703,1.115524 0.13229,0.330231 0.344967,0.620672 0.531211,0.923766 0.186244,0.303094 0.350897,0.633948 0.369019,0.989229 0.01117,0.218951 -0.03522,0.440584 -0.133271,0.636674 -0.09804,0.196089 -0.247517,0.366183 -0.429379,0.488618"
       id="path2397"
       inkscape:path-effect="#path-effect2399"
       inkscape:original-d="m 62.34113,33.083562 c -0.11226,0.712949 -0.22479,1.425633 -0.33758,2.138053 -0.1128,0.712419 0.60042,1.275596 0.90023,1.912995 0.29981,0.6374 -0.37483,0.750459 -0.56265,1.125292" />
    <ellipse
       style="fill:#784421;stroke:#000000;stroke-width:0.113387;stroke-linecap:round;stroke-linejoin:round;stroke-opacity:0"
       id="path3519"
       cx="59.809227"
       cy="24.925201"
       rx="3.5379739"
       ry="0.72474563" />
    <ellipse
       style="fill:#ffe6d5;stroke:#000000;stroke-width:0.114204;stroke-linecap:round;stroke-linejoin:round;stroke-opacity:0"
       id="path3645"
       cx="59.865501"
       cy="-24.812672"
       rx="2.468539"
       ry="0.51180863"
       transform="scale(1,-1)" />
    <rect
       style="opacity:0.36;fill:#ffffff;fill-opacity:1;stroke:#784421;stroke-width:0.1;stroke-linecap:round;stroke-linejoin:round;stroke-opacity:1"
       id="rect13881"
       width="5.8515148"
       height="5.5139275"
       x="6.1891022"
       y="-12.715792"
       ry="1.3749019" />
  </g>
</svg>
