<?xml version="1.0" encoding="UTF-8" standalone="no"?>
<!-- Created with Inkscape (http://www.inkscape.org/) -->

<svg
   width="300"
   height="150"
   viewBox="0 0 79.375005 39.687499"
   version="1.1"
   id="svg981"
   inkscape:version="1.1 (c68e22c387, 2021-05-23)"
   sodipodi:docname="cultiver.svg"
   xmlns:inkscape="http://www.inkscape.org/namespaces/inkscape"
   xmlns:sodipodi="http://sodipodi.sourceforge.net/DTD/sodipodi-0.dtd"
   xmlns="http://www.w3.org/2000/svg"
   xmlns:svg="http://www.w3.org/2000/svg">
  <sodipodi:namedview
     id="namedview983"
     pagecolor="#505050"
     bordercolor="#eeeeee"
     borderopacity="1"
     inkscape:pageshadow="0"
     inkscape:pageopacity="0"
     inkscape:pagecheckerboard="0"
     inkscape:document-units="mm"
     showgrid="false"
     units="px"
     inkscape:zoom="1.754102"
     inkscape:cx="178.72393"
     inkscape:cy="80.097964"
     inkscape:window-width="1366"
     inkscape:window-height="705"
     inkscape:window-x="-8"
     inkscape:window-y="-8"
     inkscape:window-maximized="1"
     inkscape:current-layer="layer1"
     showguides="false" />
  <defs
     id="defs978">
    <inkscape:path-effect
       effect="spiro"
       id="path-effect1358"
       is_visible="true"
       lpeversion="1" />
    <inkscape:path-effect
       effect="spiro"
       id="path-effect1161"
       is_visible="true"
       lpeversion="1" />
    <inkscape:path-effect
       effect="spiro"
       id="path-effect23846"
       is_visible="true"
       lpeversion="1" />
    <inkscape:path-effect
       effect="spiro"
       id="path-effect18839"
       is_visible="true"
       lpeversion="1" />
    <inkscape:path-effect
       effect="bspline"
       id="path-effect13054"
       is_visible="true"
       lpeversion="1"
       weight="33.333333"
       steps="2"
       helper_size="0"
       apply_no_weight="true"
       apply_with_weight="true"
       only_selected="false" />
    <inkscape:path-effect
       effect="bspline"
       id="path-effect6225"
       is_visible="true"
       lpeversion="1"
       weight="33.333333"
       steps="2"
       helper_size="0"
       apply_no_weight="true"
       apply_with_weight="true"
       only_selected="false" />
    <inkscape:path-effect
       effect="bspline"
       id="path-effect122"
       is_visible="true"
       lpeversion="1"
       weight="33.333333"
       steps="2"
       helper_size="0"
       apply_no_weight="true"
       apply_with_weight="true"
       only_selected="false" />
    <inkscape:path-effect
       effect="bspline"
       id="path-effect11891"
       is_visible="true"
       lpeversion="1"
       weight="33.333333"
       steps="2"
       helper_size="0"
       apply_no_weight="true"
       apply_with_weight="true"
       only_selected="false" />
    <inkscape:path-effect
       effect="bspline"
       id="path-effect20127"
       is_visible="true"
       lpeversion="1"
       weight="33.333333"
       steps="2"
       helper_size="0"
       apply_no_weight="true"
       apply_with_weight="true"
       only_selected="false" />
  </defs>
  <g
     inkscape:label="Calque 1"
     inkscape:groupmode="layer"
     id="layer1">
    <rect
       style="fill:#b3b3b3;stroke-width:0.799999;stroke-linecap:round;stroke-linejoin:round"
       id="rect913"
       width="79.340218"
       height="40.12262"
       x="0.15083691"
       y="0.15083691" />
    <path
       style="fill:#999999;stroke:none;stroke-width:0.264583px;stroke-linecap:butt;stroke-linejoin:miter;stroke-opacity:1;fill-opacity:1"
       d="M 0.15083691,0.15083691 H 27.753991 79.491051 V 14.17867 c -0.583996,1.711725 -2.02518,3.106571 -3.755071,3.634335 -1.72989,0.527763 -3.704259,0.17495 -5.144306,-0.919271 C 69.34061,15.943112 68.539419,14.532206 67.759102,13.168407 66.978785,11.804608 66.146358,10.40483 64.85987,9.5027254 63.782588,8.7473191 62.414756,8.3988133 61.115291,8.6051314 c -1.299464,0.2063182 -2.509983,0.9802754 -3.193918,2.1042896 -0.488347,0.802575 -0.700308,1.737474 -1.030396,2.617048 -0.165045,0.439787 -0.362333,0.870822 -0.633279,1.254541 -0.270945,0.38372 -0.619246,0.719959 -1.038657,0.931493 -0.443717,0.223793 -0.95595,0.300323 -1.449627,0.243297 -0.493676,-0.05703 -0.968473,-0.244455 -1.384037,-0.516989 C 51.554249,14.693743 50.976936,13.82976 50.581219,12.918013 50.185503,12.006267 49.951572,11.034454 49.662261,10.083574 49.37295,9.1326937 49.018535,8.1834799 48.418649,7.3910086 47.621037,6.3373339 46.424967,5.6249958 45.151951,5.2702491 43.878935,4.9155024 42.530295,4.8996527 41.218799,5.0621138 38.595807,5.3870359 36.101048,6.4054317 33.485793,6.787661 c -2.84402,0.4156641 -5.737015,0.06781 -8.61125,0.066744 -1.437117,-5.332e-4 -2.881107,0.086961 -4.284339,0.3971981 C 19.186973,7.56184 17.821291,8.1013598 16.659511,8.9472764 14.718469,10.36059 13.46295,12.526877 11.664393,14.117566 10.765114,14.91291 9.7083781,15.568527 8.5330445,15.813202 7.9453777,15.935539 7.3332421,15.952542 6.744444,15.835771 6.1556458,15.719 5.5909535,15.466331 5.1284549,15.083691 4.357855,14.446148 3.9090983,13.492277 3.1675752,12.821137 2.7793462,12.469758 2.3226659,12.204767 1.8821941,11.921618 1.4417223,11.638468 1.0118512,11.328823 0.66668655,10.935058 0.32152195,10.541293 0.0700435,10.065406 -0.05381921,9.5566361 -0.17768192,9.0478657 -0.17096188,8.5176001 -0.1508371,7.9943562 Z"
       id="path1356"
       inkscape:path-effect="#path-effect1358"
       inkscape:original-d="m 0.15083691,0.15083691 27.60315409,0 h 51.73706 V 14.17867 c 0,0 -5.932652,1.810307 -8.899377,2.715064 C 67.624951,17.798491 66.770736,11.96666 64.85987,9.5027254 62.949007,7.0387913 60.234472,10.307453 57.921373,10.709421 55.608278,11.111388 56.120085,13.91174 55.219041,15.512503 54.318,17.113266 50.68571,10.098438 48.418649,7.3910086 46.151585,4.6835792 38.463677,6.9890414 33.485793,6.787661 28.507912,6.5862805 22.268536,8.2276692 16.659511,8.9472764 11.050485,9.6668835 8.9724049,13.038484 5.1284549,15.083691 1.2845051,17.128898 3.8214662,13.575587 3.1675752,12.821137 2.5136839,12.066688 -0.2127139,9.6031519 -0.1508371,7.9943562 Z"
       sodipodi:nodetypes="ccccssssssssssc" />
    <ellipse
       style="fill:#784421;fill-opacity:1;stroke:none;stroke-width:1.69333;stroke-linecap:round;stroke-linejoin:round;stroke-opacity:1"
       id="path24030"
       cx="23.947586"
       cy="38.223652"
       rx="2.3875129"
       ry="2.3255949" />
    <ellipse
       style="fill:#784421;fill-opacity:1;stroke:none;stroke-width:1.83903;stroke-linecap:round;stroke-linejoin:round;stroke-opacity:1"
       id="path24032"
       cx="26.976643"
       cy="38.659443"
       rx="2.4427669"
       ry="2.4427671" />
    <path
       d="m 30.299446,34.460634 c -0.02262,-0.01956 -0.03617,-0.04509 -0.03821,-0.07262 -0.0021,-0.02741 0.0064,-0.05525 0.02608,-0.07881 0.514663,-0.627203 1.186472,-0.998768 1.799411,-1.139729 0.477666,-0.107666 2.641915,-0.391112 3.114008,-0.453183 0.02792,-0.0045 0.05656,-0.0018 0.08179,0.0068 0.02553,0.0086 0.04729,0.02304 0.06213,0.04198 0.232648,0.332466 0.369096,0.707239 0.399513,1.096974 0.03051,0.389725 -0.04588,0.784573 -0.223697,1.155839 -0.01166,0.02108 -0.03007,0.03927 -0.05331,0.05276 -0.02309,0.01356 -0.04993,0.02127 -0.0776,0.02354 -0.473813,0.02932 -2.651241,0.162051 -3.138621,0.148216 -0.624537,-0.01916 -1.344094,-0.262145 -1.951691,-0.781135 z"
       fill="#5ecccd"
       id="path155-8"
       style="fill:#808080;stroke-width:0.115697" />
    <path
       d="m 33.3286,34.135495 c -0.02324,-0.283902 0.680846,-0.403409 1.067393,-0.438902 l 1.440166,-0.138868 0.05377,0.669943 -1.440682,0.136823 c -0.386027,0.03754 -1.097554,0.05488 -1.120766,-0.229003 z"
       fill="#46b2af"
       id="path157-6"
       style="fill:#999999;stroke-width:0.115697" />
    <path
       d="m 35.754273,34.160059 -0.0393,-0.486937 c -0.0011,-0.01596 6.46e-4,-0.03208 0.0069,-0.04787 0.0051,-0.01534 0.01632,-0.0301 0.02926,-0.04279 0.01289,-0.01258 0.02857,-0.02317 0.04618,-0.0311 0.01777,-0.0072 0.03672,-0.01359 0.05647,-0.01415 0.2684,-0.02578 0.583883,0.0068 0.853592,-0.0138 1.195835,-0.09152 2.355273,-0.199256 3.545338,-0.313497 0.116082,-0.01119 0.208731,-0.115086 0.324881,-0.126154 0.119546,-0.01104 0.237219,0.01731 0.326871,0.07859 0.08984,0.0613 0.144222,0.150679 0.151528,0.248382 0.0067,0.0977 -0.03323,0.195894 -0.112648,0.272728 -0.07946,0.07701 -0.191152,0.126417 -0.310738,0.137338 l -0.27863,-0.06823 -3.605125,0.359618 -0.840043,0.162109 c -0.01988,0.0019 -0.0399,-5.36e-4 -0.05836,-0.0052 -0.01877,-0.0052 -0.03587,-0.01294 -0.0501,-0.02346 -0.01365,-0.01087 -0.02605,-0.02353 -0.0341,-0.03818 -0.0072,-0.01456 -0.01195,-0.03057 -0.0129,-0.04681 z"
       fill="#ff6b6b"
       id="path159-1"
       style="fill:#005aff;fill-opacity:1;stroke-width:0.115697"
       sodipodi:nodetypes="ccccccssccscccccccccc" />
    <path
       d="m 32.770759,27.204628 c 0,0 -1.399468,1.043203 -1.637886,1.516959 -0.238418,0.473756 -0.495174,1.272245 -0.444387,1.518534 0.05079,0.24629 0.371028,0.114513 0.371028,0.114513 0,0 1.6266,0.109813 1.951073,0.03612 0.324474,-0.07373 2.11613,-1.477754 2.526657,-2.196231 0.410537,-0.718478 0.409119,-1.035361 0.409119,-1.035361 z"
       fill="#c66f7e"
       id="path11-8"
       style="stroke-width:0.148765" />
    <path
       d="m 45.062663,19.734324 c 0.22205,0 0.402059,-0.200174 0.402059,-0.447088 0,-0.246918 -0.180009,-0.447086 -0.402059,-0.447086 -0.222058,0 -0.402068,0.200168 -0.402068,0.447086 0,0.246914 0.18001,0.447088 0.402068,0.447088 z"
       fill="#ffb942"
       id="path33-6"
       style="stroke-width:0.148765" />
    <path
       d="m 52.692019,19.734324 c 0.22205,0 0.40206,-0.200174 0.40206,-0.447088 0,-0.246918 -0.18001,-0.447086 -0.40206,-0.447086 -0.22205,0 -0.402067,0.200168 -0.402067,0.447086 0,0.246914 0.180017,0.447088 0.402067,0.447088 z"
       fill="#ffb942"
       id="path37-1"
       style="stroke-width:0.148765" />
    <path
       d="m 33.842932,26.222597 c -0.504344,0.01948 -0.990772,0.212412 -1.392415,0.552195 -0.545961,0.461206 -0.634839,0.731027 -1.069351,0.956925 -0.712431,0.368653 -0.757575,0.759265 0,0.726323 0.49461,-0.04281 0.968201,-0.240954 1.36561,-0.571015 0.485017,0.107926 0.976242,0.17758 1.470005,0.208638 0.149542,0.0078 0.282153,0.01259 0.399246,0.01568 0.465687,0.01664 0.919667,-0.164554 1.26968,-0.506697 0.02819,-0.0245 0.0529,-0.05366 0.07335,-0.08628 0.03525,-0.08785 5.875793,-2.364078 6.681339,-3.080991 0.805538,-0.71691 2.811629,-5.321142 2.811629,-5.321142 l -2.848317,-1.247139 -1.551828,3.427678 -5.997118,4.878753 z"
       fill="#fb919f"
       id="path151-7"
       style="stroke-width:0.148765" />
    <path
       d="m 43.378226,13.020153 c 0,0 -0.804136,1.207922 -0.898654,1.816587 -0.09452,0.608674 -0.799904,4.863069 -0.936745,4.863069 -0.136841,0 0.814001,1.294209 1.711244,1.692665 0.561767,0.242056 1.161052,0.358299 1.76344,0.341985 l 1.674572,-3.200214 z"
       fill="#d65050"
       id="path153-5"
       style="stroke-width:0.148765" />
    <path
       d="m 43.508006,28.467455 v 0.919279 c 0,0 1.258391,5.349377 1.094751,5.54703 -0.163648,0.197667 -3.754015,1.628351 -3.858415,2.343689 -0.104392,0.715339 0,0.94124 0,0.94124 h 7.345801 c 0,0 0.270861,0.156872 0.191858,-0.978889 -0.079,-1.135763 -0.600978,-6.745554 -0.600978,-6.745554 l -0.746289,-2.221319 z"
       fill="#533a71"
       id="path161-0"
       style="stroke-width:0.148765" />
    <path
       d="m 47.508904,19.87394 c -0.141072,0.08471 -4.893909,-1.34597 -5.39613,0.800056 -0.502235,2.146027 1.395232,8.712738 1.395232,8.712738 l 3.689126,-0.354535 6.465484,-4.666983 c 0,0 -2.875117,-2.751555 -3.011966,-2.823712 -0.136833,-0.07216 -3.141746,-1.667564 -3.141746,-1.667564 z"
       fill="#0078fa"
       id="path163-2"
       style="stroke-width:0.148765" />
    <path
       d="m 46.429677,20.212787 c 0,0 -0.351274,0.900452 -0.773089,1.882476 0.642885,0.955834 1.476359,1.732823 2.434958,2.269953 0.694094,-1.358519 1.269675,-2.566441 1.269675,-2.566441 z"
       fill="#c66f7e"
       id="path167-8"
       style="stroke-width:0.148765" />
    <path
       d="m 55.082766,38.800868 v -1.005071 c 0.324193,-0.505547 0.794544,-0.85062 1.320468,-0.968217 0.846458,-0.167511 1.01574,-0.402028 1.185038,-1.407095 l 0.16929,-1.005073 3.453527,-1.56288 0.536079,0.397001 -2.059697,5.105754 c 0,0 -1.01574,0.32162 -1.151178,0.442228 -0.135431,0.120613 -3.453527,0.0029 -3.453527,0.0029 z"
       fill="#3d2c56"
       id="path169-5"
       style="fill:#1a1a1a;stroke-width:0.153726" />
    <path
       d="m 52.263144,35.053291 6.853447,-0.338847 c 0,0 -0.880309,0.376495 -0.914169,0.865939 -0.03385,0.489444 0.54173,0.978889 0.03385,1.725604 -0.50787,0.746723 -2.031488,0 -2.776367,0 -0.744879,0 -1.218889,1.468337 -0.914169,1.769532 0.304721,0.301194 4.266117,0.156872 4.740135,0 0.474011,-0.156873 2.777778,-5.383887 2.777778,-5.383887 L 61.718008,33.202185 59.89532,36.891844 61.181921,32.8304 c -0.183252,-0.362378 -0.436066,-0.675337 -0.740215,-0.916923 -0.304305,-0.24159 -0.652617,-0.405673 -1.020402,-0.480819 -0.744456,-0.178212 -1.498362,-0.304022 -2.257205,-0.376496 l -5.868738,-0.451796 z"
       fill="#533a71"
       id="path171-2"
       style="fill:#1a1a1a;stroke-width:0.148765" />
    <path
       d="m 58.574862,15.666605 c -3.555098,-4.103803 -7.958063,-5.034061 -7.958063,-5.034061 h -3.244735 l -3.865468,3.264527 c 0.385283,1.407468 0.868179,2.779639 1.444615,4.103803 0.900064,2.023664 5.970316,4.668547 6.715187,5.45919 l 0.744879,0.784361 c 0,0 -7.503799,2.82372 -7.460066,5.910982 0.04373,3.087266 1.128602,3.350812 2.381351,3.65201 1.252749,0.301195 4.930582,0.527093 4.930582,0.527093 l -0.09452,-2.21662 c -0.258166,-0.105099 -0.520564,-0.218051 -0.798485,-0.327865 -0.664466,-0.26511 -1.410755,-0.610239 -1.656228,-1.344401 -0.282152,-0.834563 0.242652,-1.783649 0.938156,-2.227598 0.695504,-0.443953 1.52361,-0.533368 2.309401,-0.718478 1.032673,-0.241586 2.079459,-0.701225 2.739686,-1.615798 0.660234,-0.914565 2.381437,-1.523536 1.650663,-2.369087 -1.113087,-1.286358 -4.893988,-1.309586 -6.05786,-2.539468 -0.670108,-0.709074 -0.737819,-1.954642 -0.275093,-2.845683 0.462727,-0.891042 1.364194,-1.430685 2.281191,-1.568736 0.91699,-0.138044 1.850906,0.101967 2.712879,0.47062 1.107579,0.48427 2.124314,1.193966 2.997853,2.092689 1.606844,1.642462 2.695953,3.97674 2.710058,6.403565 0,0.202367 -0.0085,0.404734 -0.02398,0.607097 0.0931,-0.445518 0.166461,-0.920841 0.232769,-1.432249 0.369619,-2.861364 0.200329,-4.932089 -3.354776,-9.035893 z"
       fill="#1c8ff7"
       id="path173-2"
       style="fill:#008000;fill-opacity:1;stroke-width:0.148765"
       sodipodi:nodetypes="cccccccssccccscsccssccccccc" />
    <path
       d="m 52.512856,17.059638 c 0.237001,-0.181975 0.736408,-0.27139 1.148349,-0.313752 0.0031,-0.602228 -0.07632,-1.201332 -0.234188,-1.77737 -0.380895,-1.568732 -2.107662,-3.573574 -4.091177,-3.037064 -1.983523,0.536503 -2.003278,3.350812 -2.003278,3.350812 l -0.406291,1.397739 c 0,0 -0.660234,-1.044775 -0.152364,-3.65515 0.50787,-2.610364 3.60589,-2.378192 3.60589,-2.378192 -2.006098,-0.244722 -3.526887,-0.178835 -3.910619,-0.09099 l -0.802717,0.177264 -1.649166,2.837838 c 0,0 0.01269,0.84555 0.483883,2.39859 0.471198,1.553047 1.587098,3.608088 1.587098,3.608088 l -0.736408,1.35538 c 0.335194,0.426852 0.700299,0.823272 1.091922,1.185962 0.787193,0.762405 2.590143,0.784372 2.590143,0.784372 l 1.83398,-3.049614 c 0,0 1.204784,-2.455071 1.644943,-2.793914 z"
       fill="#ff6b6b"
       id="path177-9"
       style="stroke-width:0.148765;fill:#ff6600" />
    <path
       d="m 53.198479,18.151474 c 0.294,-0.398457 0.457225,-0.896372 0.462726,-1.411859 -0.411941,0.04393 -0.912758,0.133341 -1.148349,0.313744 -0.440159,0.338847 -1.650585,2.81431 -1.650585,2.81431 0,0 1.80012,-0.977328 2.336208,-1.716195 z"
       fill="#d65050"
       id="path179-9"
       style="stroke-width:0.148765" />
    <path
       d="m 45.666461,10.732936 0.475429,-0.108238 c 0,0 0.359737,0.156872 0.423225,0.91928 0.06347,0.762398 0.118497,1.254978 -0.203149,2.175829 -0.321662,0.920844 -1.410755,2.334272 -1.410755,2.334272 0,0 -0.71808,-0.514543 -0.870437,-1.085563 -0.101147,-0.45195 -0.157865,-0.914882 -0.16929,-1.380482 z"
       fill="#d65050"
       id="path181-4"
       style="stroke-width:0.148765" />
    <path
       d="m 46.926271,16.683142 -0.837995,2.908427 -0.644711,-1.283223 z"
       fill="#d65050"
       id="path193-2"
       style="stroke-width:0.148765" />
    <path
       d="m 32.770759,27.204628 c 0,0 -1.399468,1.043203 -1.637886,1.516959 -0.238418,0.473756 -0.495174,1.272245 -0.444387,1.518534 0.05079,0.24629 0.371028,0.114513 0.371028,0.114513 0,0 1.6266,0.109813 1.951073,0.03612 0.324474,-0.07373 2.11613,-1.477754 2.526657,-2.196231 0.410537,-0.718478 0.409119,-1.035361 0.409119,-1.035361 z"
       fill="#c66f7e"
       id="path11-1"
       style="fill:#a05a2c;stroke-width:0.148765" />
    <path
       d="m 45.062663,19.734324 c 0.22205,0 0.402059,-0.200174 0.402059,-0.447088 0,-0.246918 -0.180009,-0.447086 -0.402059,-0.447086 -0.222058,0 -0.402068,0.200168 -0.402068,0.447086 0,0.246914 0.18001,0.447088 0.402068,0.447088 z"
       fill="#ffb942"
       id="path33-82"
       style="stroke-width:0.148765" />
    <path
       d="m 52.692019,19.734324 c 0.22205,0 0.40206,-0.200174 0.40206,-0.447088 0,-0.246918 -0.18001,-0.447086 -0.40206,-0.447086 -0.22205,0 -0.402067,0.200168 -0.402067,0.447086 0,0.246914 0.180017,0.447088 0.402067,0.447088 z"
       fill="#ffb942"
       id="path37-5"
       style="stroke-width:0.148765" />
    <path
       d="m 33.842932,26.222597 c -0.504344,0.01948 -0.990772,0.212412 -1.392415,0.552195 -0.545961,0.461206 -0.634839,0.731027 -1.069351,0.956925 -0.712431,0.368653 -0.757575,0.759265 0,0.726323 0.49461,-0.04281 0.968201,-0.240954 1.36561,-0.571015 0.485017,0.107926 0.976242,0.17758 1.470005,0.208638 0.149542,0.0078 0.282153,0.01259 0.399246,0.01568 0.465687,0.01664 0.919667,-0.164554 1.26968,-0.506697 0.02819,-0.0245 0.0529,-0.05366 0.07335,-0.08628 0.03525,-0.08785 5.875793,-2.364078 6.681339,-3.080991 0.805538,-0.71691 2.811629,-5.321142 2.811629,-5.321142 l -2.848317,-1.247139 -1.551828,3.427678 -5.997118,4.878753 z"
       fill="#fb919f"
       id="path151-4"
       style="fill:#c87137;stroke-width:0.148765" />
    <path
       d="m 43.378226,13.020153 c 0,0 -0.804136,1.207922 -0.898654,1.816587 -0.09452,0.608674 -0.799904,4.863069 -0.936745,4.863069 -0.136841,0 0.814001,1.294209 1.711244,1.692665 0.561767,0.242056 1.161052,0.358299 1.76344,0.341985 l 1.674572,-3.200214 z"
       fill="#d65050"
       id="path153-04"
       style="fill:#ff6600;stroke-width:0.148765" />
    <path
       d="m 43.508006,28.467455 v 0.919279 c 0,0 1.258391,5.349377 1.094751,5.54703 -0.163648,0.197667 -5.03477,1.752254 -5.016592,2.474942 l 0.02037,0.809987 h 8.483608 c 0,0 0.270861,0.156872 0.191858,-0.978889 -0.079,-1.135763 -0.600978,-6.745554 -0.600978,-6.745554 l -0.746289,-2.221319 z"
       fill="#533a71"
       id="path161-9"
       style="fill:#1a1a1a;stroke-width:0.148765"
       sodipodi:nodetypes="ccssccsccc" />
    <path
       d="m 47.508904,19.87394 c -0.141072,0.08471 -4.893909,-1.34597 -5.39613,0.800056 -0.502235,2.146027 1.395232,8.712738 1.395232,8.712738 l 3.689126,-0.354535 6.465484,-4.666983 c 0,0 -2.875117,-2.751555 -3.011966,-2.823712 -0.136833,-0.07216 -3.141746,-1.667564 -3.141746,-1.667564 z"
       fill="#0078fa"
       id="path163-1"
       style="fill:#006000;stroke-width:0.148765" />
    <path
       d="m 45.947662,21.036929 c -0.43733,1.01654 -0.948021,2.122491 -1.224531,2.409576 -0.541738,0.564737 -6.300434,6.935362 -6.300434,6.935362 0,0 -1.963768,1.200079 -1.997627,1.882475 -0.03387,0.682404 0.372441,1.317739 0.474017,1.725608 0.101572,0.407869 -0.169293,1.505985 0.27086,1.61893 0.440159,0.112952 0.880311,-0.67769 0.880311,-0.67769 0,0 1.551827,-0.715338 1.963776,-1.505981 0.411933,-0.790643 0.67716,-2.371924 0.67716,-2.371924 0,0 4.785279,-3.024514 5.772801,-4.373631 0.48531,-0.65729 1.251346,-2.083268 1.911572,-3.372772 -0.955927,-0.538229 -1.786995,-1.315062 -2.427905,-2.269953 z"
       fill="#fb919f"
       id="path165-12"
       style="fill:#c87137;stroke-width:0.148765" />
    <path
       d="m 46.429677,19.68362 c 0,0 -0.351274,0.900452 -0.773089,1.882476 0.642885,0.955834 1.476359,1.732823 2.434958,2.269953 0.694094,-1.358519 1.269675,-2.566441 1.269675,-2.566441 z"
       fill="#c66f7e"
       id="path167-1"
       style="fill:#c87137;stroke-width:0.148765" />
    <path
       d="m 54.943582,38.888038 v -0.941241 c 0.324185,-0.473439 0.794536,-0.796597 1.320468,-0.906727 0.84645,-0.156871 1.015732,-0.376495 1.18503,-1.317731 l 0.16929,-0.941243 3.453527,-1.463623 0.53608,0.371789 -2.059698,4.781493 c 0,0 -1.01574,0.301194 -1.151178,0.414144 -0.13543,0.112952 -3.453519,0.0027 -3.453519,0.0027 z"
       fill="#3d2c56"
       id="path169-2"
       style="fill:#1a1a1a;stroke-width:0.148765" />
    <path
       d="m 55.760412,22.663143 c 1.606844,1.642461 5.94633,0.437682 5.960435,2.864507 0,0.202367 -0.0085,0.404734 -0.02398,0.607097 0.0931,-0.445518 0.166461,-0.920841 0.232769,-1.432249 m 0,0 c 0.283822,-2.197223 0.249876,-3.928237 -1.390906,-6.471613 m 0,0 c -0.495951,-0.76877 -1.138703,-1.61176 -1.96387,-2.56428 h -1.6e-5 c -3.555111,-4.103803 -7.958077,-5.034061 -7.958077,-5.034061 h -3.244735 l -3.865467,3.264527 c 0.385282,1.407468 0.868179,2.779639 1.444614,4.103803 0.900064,2.023664 5.970317,4.668547 6.715188,5.45919 l 0.744879,0.784361 c 0,0 -7.5038,2.82372 -7.460067,5.910982 0.04372,3.087266 1.128603,3.350812 2.381352,3.65201 1.252749,0.301195 4.930582,0.527093 4.930582,0.527093 l -0.09452,-2.21662 c -0.258167,-0.105099 -0.595336,-1.403711 -0.873257,-1.513524 -0.664458,-0.26511 -1.603687,0.03354 -1.849159,-0.700619 -0.282152,-0.834562 0.510354,-1.241772 1.205858,-1.685721 0.695504,-0.443953 1.298308,-1.777115 2.084099,-1.962225 1.032674,-0.241586 0.641012,-0.386408 1.301246,-1.300981 0.660227,-0.914567 2.453773,-1.446126 1.722999,-2.291677 -1.113088,-1.286358 -3.302581,-0.458066 -4.466454,-1.687948 -0.670107,-0.709074 -0.177729,-3.859737 -0.275092,-2.845683 -1.820588,18.960257 3.027943,3.059148 3.944933,2.921097 0.91699,-0.138051 1.127545,-1.214018 1.989518,-0.845366 1.107578,0.484271 1.348301,2.857358 2.221841,3.756082"
       fill="#1c8ff7"
       id="path173-8"
       style="fill:#008000;stroke-width:0.148765"
       sodipodi:nodetypes="cccccccccccccccssccccscsccsscc" />
    <path
       d="m 53.13241,18.151474 c 0.335978,-0.398457 0.522509,-0.896372 0.528795,-1.411859 -0.470759,0.04393 -1.043083,0.133341 -1.312312,0.313744 -0.503006,0.338847 -1.886259,2.81431 -1.886259,2.81431 0,0 2.057144,-0.977328 2.669776,-1.716195 z"
       fill="#d65050"
       id="path179-1"
       style="fill:#ff7f2a;stroke-width:0.159031" />
    <path
       d="m 45.666461,10.732936 v 0 c 0,0 0.835166,0.04863 0.898654,0.811042 0.06347,0.762398 0.481713,0.982893 0.160059,1.903744 -0.321646,0.920845 -1.773963,2.606357 -1.773963,2.606357 0,0 -0.71808,-0.514543 -0.870437,-1.085563 -0.101147,-0.45195 -0.157865,-0.914882 -0.16929,-1.380482 z"
       fill="#d65050"
       id="path181-84"
       style="fill:#ff6600;stroke-width:0.148765"
       sodipodi:nodetypes="ccsscccc" />
    <path
       style="fill:#c87137;fill-opacity:1;stroke:none;stroke-width:0.0461284px;stroke-linecap:butt;stroke-linejoin:miter;stroke-opacity:1"
       d="m 44.474732,15.02438 c 1.067826,-0.842156 2.135634,-1.684297 2.432586,-2.361402 C 47.204269,11.985873 46.33373,11.045352 45.83901,10.26145 45.34429,9.4775484 45.027073,8.6359961 44.791736,7.7943493 44.556399,6.9527026 44.402937,6.1109245 44.124203,5.3937032 43.845469,4.6764819 43.441464,4.0838158 43.012188,3.6538223 42.582912,3.2238287 42.128339,2.9565057 41.56885,2.8998265 c -0.559489,-0.056679 -1.223958,0.097274 -1.820487,0.4807646 -0.596529,0.3834909 -1.125149,0.9965086 -1.45151,1.7336606 -0.32636,0.7371521 -0.450447,1.5984123 -0.351677,2.4976365 0.09877,0.8992242 0.420405,1.8364714 0.696926,2.5058548 0.276521,0.669384 0.507932,1.07093 0.559629,1.482285 0.0517,0.411355 -0.0763,0.832509 0.03033,1.014142 0.106632,0.181632 0.447896,0.123778 0.922817,0.477181 0.474922,0.353403 1.083398,1.118016 1.642863,1.174704 0.559465,0.05669 1.069992,-0.594629 1.580484,-1.245902"
       id="path120"
       inkscape:path-effect="#path-effect122"
       inkscape:original-d="m 44.474732,15.02438 c 0,0 2.13573,-1.684176 3.203478,-2.526467 0.07397,-1.019182 -1.344509,-1.452534 -2.016709,-2.178829 C 45.344235,9.4775693 45.027095,8.635988 44.709852,7.7944319 44.556399,6.9527026 44.402891,6.110933 44.249477,5.2691533 43.84545,4.6764945 43.441447,4.0838273 43.037444,3.4911277 42.582898,3.2238525 42.128321,2.9565369 41.673799,2.6892018 c -0.664411,0.1540609 -1.3289,0.3079296 -1.993326,0.4618396 -0.528612,0.6130643 -1.057224,1.2260887 -1.585891,1.83909 -0.124099,0.8612709 -0.248191,1.7225304 -0.372259,2.583766 0.321678,0.9371963 0.643222,1.8744746 0.964876,2.8116606 0.231383,0.401593 0.462821,0.803123 0.694235,1.204641 -0.128018,0.421181 -0.256012,0.842336 -0.38399,1.263455 0.341252,-0.05784 0.68252,-0.115669 1.023834,-0.17357 0.608524,0.764669 1.216994,1.529287 1.825471,2.293889 0.510448,-0.651237 1.531477,-1.95382 1.531477,-1.95382"
       sodipodi:nodetypes="caaaaaaaaaaaaaac" />
    <path
       d="m 46.926271,16.683142 -0.837995,2.908427 -0.644711,-1.283223 z"
       fill="#d65050"
       id="path193-1"
       style="fill:#ff6600;stroke-width:0.148765" />
    <path
       style="fill:#008000;fill-opacity:1;stroke:none;stroke-width:0.107522px;stroke-linecap:butt;stroke-linejoin:miter;stroke-opacity:1"
       d="m 61.728087,26.134747 c -0.640111,0.691158 -1.226372,1.473491 -1.951849,2.073142 -0.975275,0.806136 -2.054941,1.481357 -3.182815,2.012685 -0.851112,0.400946 -1.740692,0.806581 -2.668731,0.869863 -1.619476,0.11043 -3.199513,-0.581971 -4.799422,-0.873124 -0.620992,-0.153624 -1.242092,-0.307359 -1.863295,-0.461204 -0.07272,-0.606742 1.012817,-0.567569 1.519073,-0.85152 1.20574,-0.903034 2.411332,-1.806143 3.616845,-2.709382 0.0047,-0.650162 0.009,-1.30035 0.0134,-1.950781 -1.016665,-0.81518 -2.033,-1.630113 -3.050057,-2.44565 0.500583,-0.643756 1.00093,-1.287455 1.50105,-1.931106 0.778637,-0.571808 1.557564,-1.144008 2.336208,-1.716194 0.673634,-0.879563 1.347127,-1.759188 2.020549,-2.638973 1.350425,1.212905 2.700678,2.425652 4.050861,3.638312 0.940506,0.954866 1.680119,1.62502 2.097764,2.709382 0.509445,1.32269 0.360435,4.27455 0.360435,4.27455 z"
       id="path6223"
       sodipodi:nodetypes="saaaaaccccccccas" />
    <path
       style="fill:#272727;stroke:none;stroke-width:0.115264px;stroke-linecap:butt;stroke-linejoin:miter;stroke-opacity:1;fill-opacity:1"
       d="m 41.067391,8.8894912 c -0.472034,0.5580749 -0.165824,0.5863304 0.121273,0.6569967 0.287098,0.070666 0.555036,0.1836894 0.727257,0.3038149 0.172221,0.1201255 0.248781,0.2472882 0.350863,0.3956312 0.102081,0.148344 0.229575,0.317753 0.357167,0.487292 0,0 0.382776,0 0.382776,0 -0.08931,-0.24018 -0.178578,-0.480218 -0.274254,-0.678018 -0.09568,-0.1978008 -0.197748,-0.3532097 -0.245486,-0.59206 -0.04774,-0.2388504 -0.04105,-0.5611133 0.118509,-0.6529755 0.159562,-0.091862 0.47186,0.046738 0.666237,0.2502964 0.194377,0.2035582 0.27093,0.4719973 0.411318,0.6061448 0.140388,0.1341475 0.34454,0.1341475 0.574188,0.1058828 0.229648,-0.028265 0.484836,-0.084778 0.663444,-0.141292 0.178608,-0.056514 0.280673,-0.1130228 0.344447,-0.204802 0.06377,-0.091779 0.08929,-0.2189369 0.04467,-0.4449672 C 45.265174,8.755405 45.150341,8.43046 45.034735,8.0325657 44.919128,7.6346715 44.802771,7.163854 44.636946,6.8388865 44.471122,6.5139189 44.255737,6.3348447 43.52277,6.7892049 42.789803,7.243565 41.539426,8.3314163 41.067391,8.8894912 Z"
       id="path13052"
       inkscape:path-effect="#path-effect13054"
       inkscape:original-d="m 40.289013,9.4192983 c 0.306334,0.028377 0.612544,0.056634 0.918659,0.084769 0.268063,0.1131501 0.536001,0.2261732 0.803837,0.3390787 0.07664,0.1272779 0.153218,0.25443 0.229667,0.381463 0.127696,0.169664 0.382775,0.508617 0.382775,0.508617 h 0.382776 c 0,0 -0.178521,-0.480239 -0.267946,-0.720541 -0.101963,-0.1552923 -0.204035,-0.3107005 -0.306217,-0.4662324 0.0071,-0.3221464 0.01356,-0.644414 0.02006,-0.966803 0.312407,0.1387215 0.624705,0.2773218 0.936893,0.4158007 0.07664,0.2685634 0.153219,0.5369952 0.229659,0.8053109 0.204263,1.216e-4 0.408415,1.216e-4 0.61245,0 0.255291,-0.056393 0.51048,-0.1129046 0.765559,-0.1695389 0.102182,-0.056394 0.204246,-0.1129054 0.306217,-0.1695389 0.02562,-0.1270362 0.05117,-0.254188 0.07656,-0.3814638 C 45.265232,8.7553847 45.150395,8.4304409 45.035456,8.1053698 44.9192,7.6346537 44.802851,7.1638342 44.686376,6.6928847 44.471112,6.5139306 44.255722,6.3348626 44.040231,6.1556698 42.789911,7.243689 41.539536,8.3315431 40.289013,9.4192983 Z"
       sodipodi:nodetypes="cccccccaaccccccccccc" />
    <g
       id="g8041"
       transform="matrix(-0.0640568,0.02387213,0.02198618,0.06607488,49.384796,-32.885885)">
      <path
         style="fill:#008000;stroke:none;stroke-width:0.760482px;stroke-linecap:butt;stroke-linejoin:miter;stroke-opacity:1"
         d="m 306.71547,435.54101 c -11.30346,-2.07099 -23.11466,-1.17183 -33.601,4.36247 -10.48634,5.5343 -17.95143,14.80529 -21.97958,26.76887 -4.02814,11.96358 -4.32082,27.92762 -4.59775,43.03281 34.70991,13.31799 69.41932,26.63579 91.29575,30.11057 21.87643,3.47479 30.91736,-2.89275 39.95905,-9.26083 12.40891,-5.4186 24.81671,-10.83672 21.35185,-17.86486 -3.46487,-7.02813 -22.8058,-15.66586 -42.14613,-24.30332 -5.71318,-13.32665 -11.35532,-26.4876 -19.60006,-35.87949 -8.24474,-9.3919 -19.37867,-14.89523 -30.68213,-16.96622 z"
         id="path11889"
         inkscape:path-effect="#path-effect11891"
         inkscape:original-d="m 307.74041,432.53149 c -12.32825,0.94048 -24.13945,1.83964 -36.98729,2.81576 -8.12458,10.09086 -15.58967,19.36185 -23.38518,29.04234 -5.10484,14.15754 -0.8308,45.31557 -0.8308,45.31557 0,0 69.41927,26.63593 104.12974,39.95397 9.04308,-6.3677 27.12506,-19.10423 27.12506,-19.10423 0,0 24.8173,-10.83536 37.22672,-16.2558 -19.33985,-8.63694 -58.021,-25.91238 -58.021,-25.91238 0,0 -5.86725,-28.84035 -17.13954,-39.97995 -10.70536,-5.29125 -20.45118,-13.60288 -32.11771,-15.87528 z"
         sodipodi:nodetypes="aaacscscaa" />
      <ellipse
         style="opacity:0.99;fill:#008000;fill-opacity:1;fill-rule:evenodd;stroke:#000000;stroke-width:1.3;stroke-opacity:0.00813006"
         id="path7939"
         cx="303.81192"
         cy="434.9415"
         rx="4.7683482"
         ry="5.1089449" />
    </g>
    <path
       d="M 25.029373,21.867766 C 25.361472,17.992522 23.574015,14.117277 20.381452,11.34794 19.294328,10.404931 18.044278,9.5901546 16.659511,8.9472765 v 0 c 5.355888,2.4921905 8.521665,7.8002445 8.083302,12.9071685 z"
       fill="#388c77"
       id="path107-2"
       style="stroke-width:0.150732"
       sodipodi:nodetypes="cscccc" />
    <path
       d="m 26.07496,19.34094 c 0,0 -0.682281,-1.978031 -0.179096,-2.681332 0.503178,-0.703298 1.13258,0.01334 1.023417,0.951051 -0.107286,0.619787 -0.396235,1.211865 -0.844321,1.730281 z"
       fill="#54b162"
       id="path109-8"
       style="stroke-width:0.150732" />
    <path
       d="m 28.229256,17.416188 c 0,0 -1.113821,-1.812864 0.924465,-3.307375 2.038316,-1.494517 0.685694,1.700975 -0.924465,3.307375 z"
       fill="#94dd4e"
       id="path111-24"
       style="stroke-width:0.150732" />
    <path
       d="m 23.791035,20.455834 c 0,0 -0.979072,-1.550462 -0.156928,-3.027654 0.82215,-1.477197 0.156928,3.027654 0.156928,3.027654 z"
       fill="#54b162"
       id="path113-1"
       style="stroke-width:0.150732" />
    <path
       d="m 27.50092,17.552056 c 0,0 3.849757,-0.02265 5.033513,1.098907 1.183755,1.121552 -4.107316,0.151853 -5.033513,-1.098907 z"
       fill="#54b162"
       id="path115-7"
       style="stroke-width:0.150732" />
    <path
       d="m 24.676287,15.395533 c 0,0 3.790061,-4.4569 5.407062,-3.146204 1.616995,1.310696 -5.407062,3.146204 -5.407062,3.146204 z"
       fill="#54b162"
       id="path117-0"
       style="stroke-width:0.150732" />
    <path
       d="m 23.362907,14.986602 c 0,0 -2.695004,-1.391943 -5.084682,-0.619378 -2.38968,0.772563 5.084682,0.619378 5.084682,0.619378 z"
       fill="#54b162"
       id="path119-8"
       style="stroke-width:0.150732" />
    <path
       d="m 19.620603,17.541397 c 0,0 -2.942322,-3.441908 -5.117085,-2.452227 -2.174768,0.989684 5.117085,2.452227 5.117085,2.452227 z"
       fill="#94dd4e"
       id="path121-5"
       style="stroke-width:0.150732" />
    <path
       d="m 22.545876,19.34094 c 0,0 -4.214776,-1.230772 -5.185319,0 -0.970538,1.230779 5.185319,0 5.185319,0 z"
       fill="#54b162"
       id="path123-6"
       style="stroke-width:0.150732" />
    <path
       d="m 24.742813,17.970307 c 0,0 -2.671124,0.151847 -3.715011,-2.049962 -1.043882,-2.201809 3.715011,2.049962 3.715011,2.049962 z"
       fill="#388c77"
       id="path125-1"
       style="stroke-width:0.150732" />
    <path
       d="m 29.832605,16.374559 c 0,0 3.060029,-3.168851 6.781859,-1.190811 3.721821,1.978031 -6.781859,1.190811 -6.781859,1.190811 z"
       fill="#54b162"
       id="path127-52"
       style="stroke-width:0.150732" />
    <path
       d="m 23.089991,14.368556 c 0,0 0.416192,-3.905452 -2.401618,-6.0340045 -2.817811,-2.1285473 2.401618,6.0340045 2.401618,6.0340045 z"
       fill="#54b162"
       id="path129-6"
       style="stroke-width:0.150732" />
    <path
       d="m 19.620603,17.541397 c 0,0 -5.458227,-1.598407 -6.725557,0 -1.267336,1.598414 6.725557,0 6.725557,0 z"
       fill="#54b162"
       id="path133-2"
       style="stroke-width:0.150732" />
    <path
       d="m 24.57224,17.918359 c 0.278202,-3.40355 1.444898,-6.726648 3.428455,-9.7649545 l -0.250739,-0.114554 c -2.003341,3.0690785 -3.181635,6.4257425 -3.462565,9.8635225 z"
       fill="#388c77"
       id="path135-0"
       style="stroke-width:0.150732" />
    <path
       d="m 25.382445,13.032553 c 0,0 -3.104364,-4.1358925 -2.497138,-6.0153568 0.60723,-1.879466 2.590949,-0.583415 3.05149,1.6183933 0.460538,2.2018075 -0.554352,4.3969635 -0.554352,4.3969635 z"
       fill="#54b162"
       id="path137-4"
       style="stroke-width:0.150732" />
    <path
       d="m 27.093258,9.5719912 c 0,0 -0.279729,-3.308709 3.923105,-4.459564 4.202833,-1.150859 -0.283149,2.9157673 -3.923105,4.459564 z"
       fill="#94dd4e"
       id="path139-2"
       style="stroke-width:0.150732" />
    <path
       d="m 26.107368,11.003899 c 0,0 4.630967,-2.4668775 7.082053,-1.8648105 2.451086,0.6020657 -4.82371,2.7892255 -7.082053,1.8648105 z"
       fill="#54b162"
       id="path141-5"
       style="stroke-width:0.150732" />
    <path
       d="M 25.32616,37.363027 25.083947,23.729912 C 24.742813,21.686609 25.612714,19.5221 27.330355,18.062213 29.04799,16.602336 31.627,15.845756 34.06103,16.085516 l 0.03409,-0.237098 c -2.52102,-0.249084 -5.190435,0.5328 -6.969473,2.047294 -1.779046,1.514499 -2.669417,3.752273 -2.326572,5.850186 l -0.269498,13.617129 z"
       fill="#388c77"
       id="path143-0"
       style="stroke-width:0.150732" />
    <path
       d="m 24.880971,22.499137 c 0,0 3.448903,-2.215133 2.167942,-2.264412 -1.280977,-0.04929 -2.167942,2.264412 -2.167942,2.264412 z"
       fill="#388c77"
       id="path145-8"
       style="stroke-width:0.150732" />
    <path
       d="m 24.742813,22.296673 0.271206,-0.07593 c -0.852848,-2.131216 -2.83146,-3.9574 -5.274015,-4.896462 l -0.119401,0.217113 c 2.367514,0.911095 4.283007,2.689328 5.12221,4.755276 z"
       fill="#388c77"
       id="path147-2"
       style="stroke-width:0.150732" />
    <path
       d="m 52.512856,17.879748 c 0.316703,-0.387791 0.858703,-0.615472 1.042779,-1.081088 0.191892,-0.485385 0.135322,-0.989619 -0.02255,-1.565657 -0.380895,-1.568732 -2.107662,-3.573574 -4.091177,-3.037064 -1.983523,0.536503 -2.003278,3.350812 -2.003278,3.350812 l -0.406291,1.397739 c 0,0 -0.660234,-1.044775 -0.152364,-3.65515 0.50787,-2.610364 3.60589,-2.378192 3.60589,-2.378192 -2.006098,-0.244722 -2.730101,-0.366449 -3.113833,-0.278604 l -1.230142,-0.0078 -1.64811,3.104825 c 0,0 -0.357727,0.951287 0.113466,2.504327 0.471198,1.553047 1.587098,3.608088 1.587098,3.608088 l -0.736408,1.35538 c 0.335194,0.426852 0.700299,0.823272 1.091922,1.185962 0.787193,0.762405 2.590143,0.784372 2.590143,0.784372 l 1.83398,-3.049614 c 0,0 0.966154,-1.53702 1.538871,-2.23829 z"
       fill="#ff6b6b"
       id="path177-8"
       style="fill:#ff6600;stroke-width:0.148765"
       sodipodi:nodetypes="aacsccsccccscccccaa" />
    <path
       style="fill:#4ea45b;fill-opacity:1;stroke:none;stroke-width:0.264583px;stroke-linecap:butt;stroke-linejoin:miter;stroke-opacity:1"
       d="M -0.56426283,37.100279 C 0.04728647,36.677348 2.3513596,36.53628 2.9623797,36.11282 c 0.6110201,-0.423463 2.6334911,0.940702 3.9498398,1.410658 1.3163483,0.469953 1.5049653,-0.752086 2.2570511,-1.128527 0.7520858,-0.376439 1.4109214,0.846658 2.1159854,1.269592 0.705064,0.422931 1.787097,-0.940173 2.680248,-1.410658 0.893152,-0.470484 1.316878,0.752616 1.97492,1.128525 0.658042,0.375912 1.599009,-0.563996 2.398117,-0.846394 0.799108,-0.282395 2.257316,0.06771 3.385577,0.537665 0.318534,1.404351 0.647755,0.833617 1.95365,1.184919 1.580819,0.425259 4.147996,1.460254 4.112176,-0.594057 -2.65e-4,-0.61155 0.564525,-0.658042 0.846394,-0.987459 0.281866,-0.32942 1.693053,0.846658 2.539182,1.26959 0.84613,0.422933 1.504966,-0.940173 2.25705,-1.410658 0.752086,-0.470482 1.316878,1.128792 1.974921,1.692788 0.658042,0.563999 1.1012,-0.469953 2.182438,-0.705326 0.16251,-0.01537 1.94011,0.247717 3.46019,0.423196 4.845423,-0.655199 3.329982,1.051002 6.20689,-0.423196 0.893151,-0.423463 1.975186,0.376438 2.962381,0.564261 0.987194,0.187822 1.975183,-0.37591 2.962378,-0.564261 0.987197,-0.188354 2.633493,0.658569 3.94984,0.987459 1.31635,0.328888 1.693053,-0.469955 2.539182,-0.705329 0.84613,-0.235373 1.881143,2.65e-4 2.821316,0 0.940173,-2.64e-4 3.479885,0.564529 5.21943,0.846394 1.739545,0.281866 1.599009,-0.846129 2.398117,-1.269592 0.799108,-0.42346 1.975183,0.658572 2.962381,0.987462 0.987195,0.328888 3.009664,-0.940176 4.514101,-1.410658 1.504437,-0.470485 1.316879,0.09431 1.974919,0.141065 0.658042,0.04676 0.188354,1.12879 0.282133,1.692789 0.09378,0.563999 0.09431,1.128789 0.141065,1.692788 0.04676,0.563999 -80.68958052,0.282133 -80.68958052,0.282133 z"
       id="path19034"
       sodipodi:nodetypes="cssssssscscsssscccsssssssssssscc" />
    <path
       style="fill:#502d16;fill-opacity:1;stroke:none;stroke-width:0.264583px;stroke-linecap:butt;stroke-linejoin:miter;stroke-opacity:1"
       d="m 22.091111,48.111891 -0.637244,-1.593109 0.531036,-1.062075 3.080011,-0.531035 3.611048,0.531035 0.106206,0.955866 -0.212415,1.593109 -0.531035,1.274487 0.212413,1.486903 -6.372435,-0.106206 z"
       id="path22706"
       sodipodi:nodetypes="ccccccccccc" />
  </g>
</svg>
