<?xml version="1.0" encoding="UTF-8" standalone="no"?>
<!-- Created with Inkscape (http://www.inkscape.org/) -->

<svg
   width="350"
   height="150"
   viewBox="0 0 92.604169 39.687499"
   version="1.1"
   id="svg5"
   inkscape:version="1.1 (c68e22c387, 2021-05-23)"
   sodipodi:docname="jardinage_pf.svg"
   xmlns:inkscape="http://www.inkscape.org/namespaces/inkscape"
   xmlns:sodipodi="http://sodipodi.sourceforge.net/DTD/sodipodi-0.dtd"
   xmlns:xlink="http://www.w3.org/1999/xlink"
   xmlns="http://www.w3.org/2000/svg"
   xmlns:svg="http://www.w3.org/2000/svg">
  <sodipodi:namedview
     id="namedview7"
     pagecolor="#505050"
     bordercolor="#eeeeee"
     borderopacity="1"
     inkscape:pageshadow="0"
     inkscape:pageopacity="0"
     inkscape:pagecheckerboard="0"
     inkscape:document-units="mm"
     showgrid="false"
     units="px"
     inkscape:zoom="1.2432572"
     inkscape:cx="201.48687"
     inkscape:cy="97.727162"
     inkscape:window-width="1366"
     inkscape:window-height="705"
     inkscape:window-x="-8"
     inkscape:window-y="-8"
     inkscape:window-maximized="1"
     inkscape:current-layer="layer1" />
  <defs
     id="defs2">
    <linearGradient
       inkscape:collect="always"
       id="linearGradient44323">
      <stop
         style="stop-color:#00ffff;stop-opacity:1;"
         offset="0"
         id="stop44319" />
      <stop
         style="stop-color:#00ffff;stop-opacity:0;"
         offset="1"
         id="stop44321" />
    </linearGradient>
    <inkscape:path-effect
       effect="spiro"
       id="path-effect32271"
       is_visible="true"
       lpeversion="1" />
    <inkscape:path-effect
       effect="bspline"
       id="path-effect14947"
       is_visible="true"
       lpeversion="1"
       weight="33.333333"
       steps="2"
       helper_size="0"
       apply_no_weight="true"
       apply_with_weight="true"
       only_selected="false" />
    <inkscape:path-effect
       effect="bspline"
       id="path-effect14311"
       is_visible="true"
       lpeversion="1"
       weight="33.333333"
       steps="2"
       helper_size="0"
       apply_no_weight="true"
       apply_with_weight="true"
       only_selected="false" />
    <linearGradient
       inkscape:collect="always"
       id="linearGradient14215">
      <stop
         style="stop-color:#c87137;stop-opacity:1;"
         offset="0"
         id="stop14211" />
      <stop
         style="stop-color:#c87137;stop-opacity:0;"
         offset="1"
         id="stop14213" />
    </linearGradient>
    <inkscape:path-effect
       effect="spiro"
       id="path-effect3012"
       is_visible="true"
       lpeversion="1" />
    <linearGradient
       inkscape:collect="always"
       xlink:href="#linearGradient14215"
       id="linearGradient14217"
       x1="120.50814"
       y1="-9.1876792"
       x2="122.67414"
       y2="-9.1876792"
       gradientUnits="userSpaceOnUse"
       gradientTransform="matrix(0.51124293,0,0,0.49081359,8.5825314,7.8930001)" />
    <linearGradient
       inkscape:collect="always"
       xlink:href="#linearGradient44323"
       id="linearGradient44325"
       x1="164.89267"
       y1="10.852809"
       x2="193.77589"
       y2="24.328892"
       gradientUnits="userSpaceOnUse"
       gradientTransform="translate(-165.45049,-4.4222223)" />
  </defs>
  <g
     inkscape:label="Calque 1"
     inkscape:groupmode="layer"
     id="layer1">
    <rect
       style="fill:url(#linearGradient44325);fill-opacity:1;stroke:#000000;stroke-width:0;stroke-linecap:round;stroke-linejoin:round;stroke-miterlimit:4.6;stroke-dasharray:none;stroke-opacity:0.0987654;paint-order:stroke fill markers"
       id="rect44168"
       width="99.425728"
       height="49.012684"
       x="-1.2579994"
       y="-0.92131615" />
    <rect
       style="fill:#ffaaaa;fill-opacity:1;stroke:#808080;stroke-width:0.0140047;stroke-linecap:round;stroke-linejoin:round;stroke-miterlimit:4.6;stroke-dasharray:none;stroke-opacity:1;paint-order:normal"
       id="rect36907"
       width="69.635872"
       height="33.130955"
       x="24.603027"
       y="5.3133926" />
    <rect
       style="fill:#383517;fill-opacity:1;stroke:#000000;stroke-width:0;stroke-linecap:round;stroke-linejoin:round;stroke-miterlimit:4.6;stroke-dasharray:none;stroke-opacity:0.0987654;paint-order:stroke fill markers"
       id="rect39800"
       width="69.635872"
       height="7.8579941"
       x="24.603027"
       y="30.586336" />
    <rect
       style="fill:#e6e6e6;fill-opacity:1;stroke:#808080;stroke-width:0.0105568;stroke-linecap:round;stroke-linejoin:round;stroke-miterlimit:4.6;stroke-dasharray:none;stroke-opacity:1;paint-order:normal"
       id="rect37160"
       width="19.014406"
       height="28.3752"
       x="62.777512"
       y="10.52422"
       ry="0" />
    <path
       style="fill:#666666;fill-opacity:1;stroke:#808080;stroke-width:0.00936778;stroke-linecap:round;stroke-linejoin:round;stroke-miterlimit:4.6;stroke-dasharray:none;stroke-opacity:1;paint-order:normal"
       d="M 19.046683,7.6583697 103.78239,7.5680702 93.668052,-0.92131612 28.042383,-0.65037855 Z"
       id="path36966"
       sodipodi:nodetypes="ccccc" />
    <rect
       style="fill:#551600;fill-opacity:1;stroke:#000000;stroke-width:0;stroke-linecap:round;stroke-linejoin:round;stroke-miterlimit:4.6;stroke-dasharray:none;stroke-opacity:0.0987654;paint-order:stroke fill markers"
       id="rect37056"
       width="16.141386"
       height="26.546589"
       x="64.242233"
       y="12.170274" />
    <rect
       style="fill:#cccccc;fill-opacity:1;stroke:#000000;stroke-width:0;stroke-linecap:round;stroke-linejoin:round;stroke-miterlimit:4.6;stroke-dasharray:none;stroke-opacity:0.0987654;paint-order:stroke fill markers"
       id="rect37605"
       width="1.0680341"
       height="6.1589575"
       x="65.188156"
       y="22.516031"
       ry="0.53094518" />
    <rect
       style="fill:#551600;fill-opacity:1;stroke:#000000;stroke-width:0;stroke-linecap:round;stroke-linejoin:round;stroke-miterlimit:4.6;stroke-dasharray:none;stroke-opacity:0.0987654;paint-order:stroke fill markers"
       id="rect37775"
       width="30.759329"
       height="18.476892"
       x="27.166281"
       y="11.047597" />
    <rect
       style="fill:#cccccc;fill-opacity:1;stroke:#000000;stroke-width:0;stroke-linecap:round;stroke-linejoin:round;stroke-miterlimit:4.6;stroke-dasharray:none;stroke-opacity:0.0987654;paint-order:stroke fill markers"
       id="rect39485"
       width="7.9337277"
       height="7.8887105"
       x="28.264381"
       y="-28.58461"
       transform="scale(1,-1)" />
    <rect
       style="fill:#cccccc;fill-opacity:1;stroke:#000000;stroke-width:0;stroke-linecap:round;stroke-linejoin:round;stroke-miterlimit:4.6;stroke-dasharray:none;stroke-opacity:0.0987654;paint-order:stroke fill markers"
       id="rect39485-2"
       width="7.9337277"
       height="7.8887105"
       x="49.076221"
       y="-28.372271"
       transform="scale(1,-1)" />
    <rect
       style="fill:#cccccc;fill-opacity:1;stroke:#000000;stroke-width:0;stroke-linecap:round;stroke-linejoin:round;stroke-miterlimit:4.6;stroke-dasharray:none;stroke-opacity:0.0987654;paint-order:stroke fill markers"
       id="rect39485-8"
       width="7.9642439"
       height="7.8887105"
       x="38.594269"
       y="20.619478" />
    <rect
       style="fill:#cccccc;fill-opacity:1;stroke:#000000;stroke-width:0;stroke-linecap:round;stroke-linejoin:round;stroke-miterlimit:4.6;stroke-dasharray:none;stroke-opacity:0.0987654;paint-order:stroke fill markers"
       id="rect39485-5"
       width="7.9337277"
       height="7.8887105"
       x="28.325397"
       y="12.017959" />
    <rect
       style="fill:#cccccc;fill-opacity:1;stroke:#000000;stroke-width:0;stroke-linecap:round;stroke-linejoin:round;stroke-miterlimit:4.6;stroke-dasharray:none;stroke-opacity:0.0987654;paint-order:stroke fill markers"
       id="rect39485-3"
       width="7.9337277"
       height="7.8887105"
       x="49.076817"
       y="11.714639" />
    <rect
       style="fill:#cccccc;fill-opacity:1;stroke:#000000;stroke-width:0;stroke-linecap:round;stroke-linejoin:round;stroke-miterlimit:4.6;stroke-dasharray:none;stroke-opacity:0.0987654;paint-order:stroke fill markers"
       id="rect39485-1"
       width="7.9337277"
       height="7.8887105"
       x="38.654659"
       y="11.911199" />
    <rect
       style="fill:#e6e6e6;fill-opacity:1;stroke:#000000;stroke-width:0;stroke-linecap:round;stroke-linejoin:round;stroke-miterlimit:4.6;stroke-dasharray:none;stroke-opacity:0.0987654;paint-order:stroke fill markers"
       id="rect40112"
       width="28.196037"
       height="2.7007456"
       x="58.081478"
       y="38.444267" />
    <path
       d="m -25.71665,29.490239 c 0.166276,-0.101101 0.28895,0.483292 0.373456,1.382439 0.03269,0.34842 0.06275,0.7493 0.08448,1.16515 0.05996,1.064 0.09273,2.28534 0.11177,3.3306 v 0.61443 1.3637 0.40462 c 0,0 0,-0.0936 0.02729,-0.2585 0.126789,-1.18988 0.3006,-2.36927 0.52067,-3.53291 0.08067,-0.52676 0.235279,-1.02692 0.455239,-1.47237 0.03096,-0.0506 0.07015,-0.0903 0.11449,-0.11611 0.1363,-0.0674 0.215356,0.21356 0.256249,0.68936 0.05079,1.04563 0.04257,2.09539 -0.02456,3.13952 -0.05996,1.24009 -0.147198,2.29659 -0.147198,2.29659 0,0 0.163549,-0.64439 0.41435,-1.55478 0.08181,-0.30346 0.174455,-0.63316 0.27259,-0.97783 0.371415,-1.37458 0.806654,-2.71468 1.303029,-4.01246 0.04359,-0.10492 0.08725,-0.20232 0.128112,-0.28848 0.144481,-0.30721 0.272598,-0.50577 0.376193,-0.55073 0.185357,-0.0787 0.185357,0.42335 0.08727,1.20262 -0.03269,0.26975 -0.07903,0.56946 -0.13357,0.88791 -0.365281,2.18792 -1.109481,5.2975 -1.109481,5.2975 0.454071,-1.26144 0.972394,-2.47679 1.55109,-3.63782 0.193544,-0.34467 0.365279,-0.56946 0.479776,-0.56572 0.215357,0 0.490674,0.82797 0.16628,1.76459 0.318939,-0.82348 0.592302,-1.67879 0.817793,-2.55884 0.253525,-0.91413 0.479777,-1.6859 0.766,-2.01934 0.06161,-0.0753 0.135488,-0.12928 0.215349,-0.15734 0.316221,-0.0974 0.338032,0.41211 0.199008,1.21385 v 0.0637 c -0.102518,0.53726 -0.226235,1.06625 -0.370735,1.58476 -0.125394,0.46457 -0.272601,0.94786 -0.411618,1.42739 -0.139031,0.47956 -0.321673,1.02654 -0.4716,1.4986 -0.387086,1.18014 -0.708756,2.07178 -0.708756,2.07178 0,0 0.381636,-0.98906 0.83688,-1.98562 0.174454,-0.37464 0.35982,-0.76801 0.545195,-1.10145 0.288961,-0.53949 0.564279,-0.93662 0.744188,-0.9591 0.351655,-0.0449 0.122669,1.27005 -0.117212,2.33405 -0.04359,0.19856 -0.08995,0.37464 -0.13085,0.55822 -0.109031,0.44583 -0.19627,0.74929 -0.19627,0.74929 0,0 0.201723,-0.25475 0.457967,-0.51701 l 0.177192,-0.17234 0.09818,-0.0899 c 0.155629,-0.17496 0.345218,-0.28285 0.545203,-0.31095 h 0.03268 c 0.04636,0.01 0.0884,0.0431 0.117214,0.0936 0.05955,-0.5732 0.07047,-1.15428 0.03266,-1.73086 0,-0.33343 -0.02727,-0.66687 -0.03266,-0.98532 0,-0.79424 0.04637,-1.49858 0.368001,-1.93692 0.321673,-0.43834 0.817797,1.92942 0.817797,2.85855 0.477047,1.41242 0.951374,3.20323 0.951374,3.20323 0,0 -0.613348,-3.91506 -0.831429,-6.38772 -0.106283,-1.18763 -0.119915,-2.04558 0.06813,-1.97438 0.188089,0.0712 0.378907,0.72306 0.610614,1.64843 0.613354,2.43895 1.327548,6.70992 1.327548,6.70992 0,0 -0.509755,-4.12111 -0.389809,-5.76206 0.04359,-0.59944 0.169008,-0.87668 0.433432,-0.52075 0.255207,0.38887 0.453281,0.84145 0.583364,1.33373 0.105083,0.3679 0.196075,0.74292 0.272594,1.12393 0.16416,0.79726 0.29613,1.6065 0.395265,2.42397 0.0164,-0.0277 0.03656,-0.0506 0.05954,-0.0674 0.023,-0.0164 0.04811,-0.0269 0.07397,-0.03 0.41981,-0.0749 1.583802,1.49859 1.583802,1.49859 0,0 -0.567,-1.40493 -0.894118,-2.51014 -0.116738,-0.34354 -0.193113,-0.71033 -0.226261,-1.08647 0,-0.15361 0.03813,-0.23977 0.128123,-0.22854 0.580636,0.0749 2.3307072,3.82515 2.3307072,3.82515 0,0 -3.2248382,-7.9912 -2.0608402,-7.62032 0.272597,0.0899 0.602444,0.54325 0.935008,1.18014 0.23594,0.46307 0.453446,0.94336 0.65152,1.43865 0.2507892,0.61442 0.4906742,1.27005 0.7060272,1.87323 -0.272595,-0.93287 -0.43343,-1.75335 -0.218084,-1.7571 0.07903,0 0.190822,0.10493 0.318949,0.28099 0.6924011,0.94036 1.9327131,3.9188 1.9327131,3.9188 0,0 -1.330279,-7.68399 -0.665127,-7.38802 0.08716,0.0573 0.160113,0.14835 0.2099,0.26226 0.265403,0.59831 0.479447,1.23707 0.637874,1.90319 l 0.02998,0.11243 c 0.57245,2.17295 1.128553,5.11016 1.128553,5.11016 0,0 -0.08181,-5.79951 0.408898,-6.12171 0.01289,-0.008 0.02681,-0.0113 0.04094,-0.0113 0.01411,0 0.02803,0.004 0.04093,0.0113 0.119939,0.0599 0.220802,0.3222 0.308039,0.70059 l 0.02998,0.14236 c 0.316218,1.52107 0.422532,4.53322 0.422532,4.53322 0,0 0,-1.77208 0.02995,-3.67902 0,-0.57696 0.02999,-1.16515 0.0545,-1.71962 0.01595,-0.85795 0.09448,-1.71139 0.234431,-2.547598 0.057287,-0.247274 0.1253912,-0.374641 0.2071756,-0.318454 0.253521,0.161095 0.3543772,2.004352 0.3870889,4.042442 v 0.90664 c 0.1032356,0.15659 0.1945834,0.32743 0.2726008,0.50951 0.5272543,1.37008 0.99158,2.784 1.3902496,4.2335 0,0 -1.4584014,-8.58314 -0.8750342,-8.3621 0.059961,0.0225 0.1281121,0.12744 0.201716,0.29597 0.2227936,0.58858 0.4052986,1.20449 0.5451997,1.83952 0.6160765,2.48015 1.2921148,6.22661 1.2921148,6.22661 0,0 -0.1662741,-1.21759 -0.3025869,-2.59254 -0.1023115,-0.92651 -0.1606004,-1.86163 -0.1744564,-2.79861 0,-0.84295 0.1199335,-1.31875 0.4361539,-0.8954 0.68694994,0.91413 1.11764804,3.37181 1.32209974,4.87039 0.015853,-0.0277 0.035636,-0.0506 0.058102,-0.0671 0.022475,-0.0169 0.047304,-0.0273 0.072747,-0.0303 0.4170866,-0.0749 1.60561106,1.49859 1.60561106,1.49859 0,0 -1.63559356,-3.90007 -1.04132856,-3.82515 0.04419,0.008 0.086649,0.0292 0.12539386,0.0599 0.272598,0.19857 0.7087647,0.86918 1.1203873,1.59225 0.5888092,1.03402 1.1367345,2.17294 1.1367345,2.17294 0,0 -0.348933,-0.83546 -0.7796366,-1.95191 -0.3598263,-0.92912 -0.7769055,-2.0568 -1.0903884,-3.05711 -0.48794746,-1.52106 -0.76055276,-2.76114 -0.2726099,-2.62252 0.2726099,0.0899 0.624252,0.56197 0.9731758,1.2251 0.1635706,0.31095 0.3298502,0.66312 0.4934189,1.03776 0.3107563,0.71183 0.6160624,1.49858 0.8832065,2.24788 -0.2725935,-0.93287 -0.457966,-1.75334 -0.2426137,-1.75708 h 0.043604 c 0.138052,0.0847 0.2595168,0.21279 0.3543769,0.37464 0.7169369,1.03402 1.9081906,3.81764 1.9081906,3.81764 0,0 -0.13902,-0.74929 -0.308038,-1.75335 -0.043604,-0.26225 -0.089937,-0.54323 -0.136288,-0.83546 -0.3516595,-2.20292 -0.7251202,-4.98279 -0.3162241,-4.80296 0.667868,0.29597 2.1017363,7.38803 2.1017363,7.38803 0,0 -0.057278,-2.07929 0,-3.8139 0.00935,-0.62979 0.060886,-1.25694 0.1553791,-1.87324 0.062736,-0.31844 0.1444822,-0.49453 0.2535151,-0.43833 0.1744702,0.0862 0.3162167,0.59569 0.4334357,1.2663 0.1996004,1.35997 0.3334723,2.73679 0.4007229,4.12111 0,0 -0.03265,-1.71587 -0.01905,-3.58162 0,-1.01904 0.029976,-2.08302 0.081814,-2.94097 0.065429,-1.09771 0.1744757,-1.854497 0.3571199,-1.738345 0.1826396,0.116111 0.2944082,1.067735 0.3680002,2.337795 0.04637,0.7905 0.073562,1.70088 0.092724,2.62251 0.3189359,0.45331 0.8177949,1.87324 1.1939848,3.05336 0.297126,0.92538 0.52066,1.68965 0.52066,1.68965 0,0 -1.5701727,-8.58313 -0.9868018,-8.3621 0.5833628,0.22105 2.1589768,8.3621 2.1589768,8.3621 0,0 -0.640606,-4.24474 -0.545196,-5.84447 0,-0.0712 0,-0.1348 0.01906,-0.19481 0.04638,-0.37465 0.158129,-0.52451 0.359844,-0.28848 l 0.03544,0.0412 c 0.35983,0.46829 0.656967,1.34872 0.8914,2.29657 0.202403,0.84633 0.368057,1.70801 0.496123,2.58131 0.01573,-0.0278 0.03544,-0.051 0.05801,-0.0674 0.02254,-0.0169 0.04728,-0.0269 0.07284,-0.03 0.417073,-0.0749 1.63559,1.49857 1.63559,1.49857 0,0 -1.676486,-3.90005 -1.090391,-3.82512 0.212621,0.0262 0.588812,0.53949 0.986807,1.17639 l 0.0164,0.03 c 0.692403,1.12394 1.431149,2.62253 1.431149,2.62253 0,0 -0.774177,-1.7983 -1.461123,-3.64905 l -0.114502,-0.30721 c -0.711481,-1.94817 -1.275767,-3.84762 -0.689671,-3.66405 0.04615,0.0157 0.09098,0.0382 0.13357,0.0674 0.253677,0.2038 0.47519,0.47505 0.651516,0.79799 0.629378,1.13706 1.177134,2.35541 1.635591,3.63781 -0.288958,-0.93286 -0.479778,-1.75334 -0.272602,-1.75708 0.49885,0 2.363427,4.19978 2.363427,4.19978 0,0 -0.258965,-1.29627 -0.51521,-2.80236 l -0.02184,-0.12744 c -0.351652,-2.0718 -0.689669,-4.49575 -0.357103,-4.46579 h 0.03278 c 0.673317,0.29597 2.202589,7.38803 2.202589,7.38803 0,0 4.229008,-0.566306 6.352333,-0.529167 1.496011,0.02617 2.966877,0.579516 4.46237,0.529167 0.955353,-0.03216 1.870423,-0.517269 2.826168,-0.529167 1.102628,-0.01373 2.169706,0.528155 3.272405,0.529167 1.115364,10e-4 2.195527,-0.514487 3.31081,-0.529167 1.335617,-0.01758 3.977728,0.529167 3.977728,0.529167 0,0 1.770517,-0.516715 2.677422,-0.529167 1.053595,-0.01446 2.070006,0.521574 3.12366,0.529167 1.151744,0.0083 2.269503,-0.547469 3.42115,-0.529167 0.955706,0.01519 1.870763,0.498933 2.826168,0.529167 1.446314,0.04577 2.86752,-0.582231 4.313625,-0.529167 0.906466,0.03326 1.770498,0.53997 2.677422,0.529167 0.809544,-0.0096 1.573681,-0.448937 2.379931,-0.529167 0.99139,-0.09865 2.087374,0.358934 3.255364,0.309852 1.227522,-0.05158 2.534577,-0.607483 3.883337,-0.614673 1.361157,-0.0073 2.764789,0.534558 4.172012,0.561654 1.247998,0.02403 2.498822,-0.469744 3.725351,-0.426794 1.377088,0.04822 2.72355,0.635139 4.001002,0.69703 1.563202,0.07573 3.023067,-0.371496 4.309262,-0.29323 0.886477,0.05394 1.690454,0.635311 2.388906,0.682538 1.803397,0.121939 2.903286,-0.318448 2.903286,-0.318448 l -0.01891,1.93099 -120.250003,-0.03661 0.08994,-1.28128 c 0,0 -0.338023,-9.321207 0.269879,-9.692095 z"
       fill="#77b590"
       id="path103-1"
       style="fill:#77b574;fill-opacity:1;stroke-width:0.319576"
       sodipodi:nodetypes="cccccccccccccccccccccccccccccccsccccccccccccccccccccccccccccccccccccccccccccccccscccccccccccccccccccccccccccccccccccccccccccccccccccccccccccccccccccccccccccccccccaaaaacaaaaaasssssssscccccc" />
    <ellipse
       style="fill:#ff2a2a;fill-opacity:1;stroke:#808080;stroke-width:0.018389;stroke-linecap:round;stroke-linejoin:round;stroke-miterlimit:4.6;stroke-dasharray:none;stroke-opacity:1;paint-order:normal"
       id="path29703"
       cx="42.745506"
       cy="28.976826"
       rx="1.0887632"
       ry="0.81684756" />
    <path
       d="m 54.913049,29.202673 -0.370724,-2.139796 c -0.0436,-0.250038 -0.140478,-0.488199 -0.283673,-0.697469 -0.142937,-0.209305 -0.328796,-0.384507 -0.543829,-0.513113 -0.215038,-0.128623 -0.454174,-0.207404 -0.700356,-0.230741 -0.24619,-0.02335 -0.493111,0.0093 -0.72311,0.09571 l -12.8086,4.828087 4.021367,2.882079 z"
       fill="#066d76"
       id="path29-18"
       style="fill:#1a1a1a;stroke-width:0.282441" />
    <path
       d="m 44.270521,28.704123 v 3.484916 0.09456 1.223736 H 33.025 V 28.70411 Z"
       fill="#066d76"
       id="path35-7"
       style="fill:#ff2a2a;fill-opacity:1;stroke-width:0.282441" />
    <path
       d="m 43.148442,33.339347 c 0.09755,-0.414235 0.289903,-0.795957 0.562206,-1.11423 0.272116,-0.317914 0.61628,-0.563926 1.004498,-0.717187 l 9.893627,-3.910139 0.543577,1.829284 c 0.120013,0.403877 0.08569,0.834033 -0.09615,1.202413 -0.181572,0.368308 -0.496933,0.6469 -0.881548,0.779181 l -10.527656,3.608443 z"
       fill="#0f515d"
       id="path45-3"
       style="fill:#1a1a1a;stroke-width:0.282441" />
    <path
       d="m 43.532565,31.105684 3.462049,-3.923781 6.510642,-7.382663 3.754317,-4.253576 v -0.01194 c 0.209099,-0.236417 0.950456,0.220526 0.738979,0.456947 l -3.462041,3.923778 -6.513024,7.38267 -3.737681,4.251586 v 0.01193 c -0.2091,0.236418 -0.950456,-0.220526 -0.73898,-0.456945 z"
       fill="#e5f1fe"
       id="path47-08"
       style="fill:#e6e6e6;stroke-width:0.217273" />
    <path
       d="m 55.89329,17.033722 1.109659,-1.436406 v -1.130447 c 0,-0.158063 0.07508,-0.309674 0.208864,-0.421443 0.133544,-0.111777 0.314837,-0.174575 0.503979,-0.174575 h 0.220981 c 0.165854,0 0.32458,0.05504 0.441967,0.15304 0.117143,0.09798 0.182965,0.230897 0.182965,0.369466 v 1.144355 l -2.060124,2.328442 c -0.53701,0.750977 -1.943688,-0.270192 -0.608291,-0.832432 z"
       fill="#a8a8a8"
       id="path59-2"
       style="fill:#ff2a2a;fill-opacity:1;stroke-width:0.217273" />
    <path
       d="m 67.392,11.002001 c 0,0 -1.821183,2.732477 -2.520522,3.08279 -0.699344,0.350327 -5.28145,0.767018 -5.28145,0.767018 0,0 -1.575406,0.475693 -1.954219,0.623191 -0.378797,0.147514 -0.451506,-1.047618 -0.458773,-1.176683 -0.0068,-0.129059 0.961577,-0.287265 0.961577,-0.287265 0,0 -0.622839,0.143315 -0.404305,-0.04845 0.218547,-0.191746 1.702733,-0.01423 1.702733,-0.01423 0,0 4.389091,-1.106265 4.680455,-1.438151 0.291407,-0.331874 1.792069,-2.662419 1.792069,-2.662419 z"
       fill="#fb919f"
       id="path44-0"
       style="fill:#c87137;fill-opacity:1;stroke-width:0.366489"
       sodipodi:nodetypes="cscsscccscc" />
    <path
       d="M 68.720791,7.4920782 C 67.425173,6.4734485 65.214702,10.289915 65.214702,10.289915 l 2.273887,1.595854 c 0,0 2.804145,-3.1475667 1.232202,-4.3936908 z"
       id="path40-2"
       style="fill:#d45500;stroke-width:0.356063" />
    <path
       style="fill:#005800;fill-opacity:1;stroke-width:0.543397;stroke-linecap:round;stroke-linejoin:round;stroke-miterlimit:4.6"
       d="m 69.384965,7.1265071 c 0,0 -1.199988,0.053374 -1.614574,0.4100488 -0.314729,0.270758 -0.331558,0.7479415 -0.456183,1.1356116 -0.181737,0.5653671 -0.351689,1.1402973 -0.422589,1.7280465 -0.06608,0.548023 0,1.655056 0,1.655056 0,0 0.377547,4.363474 0.422589,4.47976 0.184105,0.475512 0.779893,2.404619 0.779893,2.404619 l 0.271901,-9.5962131 z"
       id="path6312"
       sodipodi:nodetypes="caaacsccc" />
    <path
       d="m 70.936103,4.1526692 c 0,0 0.690369,-1.4390256 0.182781,-2.5121066 C 70.61131,0.56749369 70.749878,0.77322017 69.712462,0.83592358 68.675045,0.89862768 66.994607,1.0601071 66.674043,1.3219169 c -0.320585,0.2618134 -0.532998,1.806108 0.08588,1.9978733 l 0.921423,0.7111936 z"
       fill="#533a71"
       id="path28"
       style="fill:#1a1a1a;stroke-width:0.405196"
       sodipodi:nodetypes="csssccc" />
    <path
       d="M 71.572799,7.3571573 70.909388,4.5804297 c 0,0 0.707929,-0.9108273 0.325023,-1.3238427 -0.382908,-0.413003 -0.614436,0.688731 -0.614436,0.688731 0,0 -0.282655,-0.3976927 -0.388701,-0.8066596 -0.112955,-0.4355777 -0.053,-0.8839437 -0.167855,-0.8782348 -0.222619,0.011139 -2.22622,0.4429818 -2.671457,0.5167401 l -0.445253,0.077485 c 0,0 0.254088,2.828354 0.67262,3.2376792 0.418523,0.409321 1.50018,0.3687528 1.50018,0.3687528 l 0.262687,1.1062659 z"
       fill="#fb919f"
       id="path30"
       style="fill:#c87137;stroke-width:0.405196"
       sodipodi:nodetypes="ccscscccsccc" />
    <path
       d="m 74.787454,14.079029 0.614442,4.985571 -6.991585,1.288551 c 0,0 -1.368458,-6.520383 -1.025611,-8.721868 0.198932,-1.277416 0.40481,-2.4615725 0.797461,-3.3033589 0.284042,-0.6089315 0.665807,-1.0387092 1.213394,-1.1950406 1.304567,-0.3724415 2.929918,-1.1505027 3.702064,0.7532407 0.385491,0.9504248 1.689835,6.1929048 1.689835,6.1929048 z"
       fill="#ff6b6b"
       id="path32"
       style="fill:#d45500;stroke-width:0.405196"
       sodipodi:nodetypes="cccssssc" />
    <path
       style="fill:#006400;fill-opacity:1;stroke-width:0.563861;stroke-linecap:round;stroke-linejoin:round;stroke-miterlimit:4.6"
       d="m 68.614535,8.8239914 c 0.313319,-0.6352335 2.164623,-1.9921576 2.88094,-2.0691877 0.71631,-0.07703 0.94481,-0.082338 1.603506,0.4873322 0.658689,0.5696702 1.136978,2.292873 1.310905,3.1471331 0.173922,0.854258 0.473566,2.05064 0.555288,3.103947 l 0.26025,3.354443 0.241821,2.161161 c -0.002,-0.0056 -3.752639,1.111414 -3.752639,1.111414 l -0.667667,-0.02681 -1.85805,0.259724 c -2.831149,0.32095 -1.314372,-3.68884 -1.313063,-4.91757 0.03508,-0.562674 -0.07319,-1.689628 -0.07319,-1.689628 l -0.05211,-2.075076 c 0,0 0.310583,-1.7247737 0.864024,-2.8468803 z"
       id="path3047"
       sodipodi:nodetypes="sssssccccccccs" />
    <path
       d="m 70.58886,12.458978 c 0,0 -2.721459,2.459049 -3.685539,2.708672 -0.964089,0.249633 -7.063279,0.01816 -7.063279,0.01816 0,0 -1.55099,0.31316 -2.068307,0.406378 -0.517318,0.09323 -1.086165,-0.937487 -1.080838,-1.066784 0.0051,-0.129295 1.037608,-0.410852 1.037608,-0.410852 0,0 -0.354971,0.291246 -0.58407,0.20869 -0.246726,-0.0889 -0.393607,-0.296706 -0.232449,-0.379563 0.310803,-0.159771 2.830687,0.322685 2.830687,0.322685 0,0 5.924121,-0.481053 6.347358,-0.76984 0.423243,-0.288773 2.67488,-2.393524 2.67488,-2.393524 z"
       fill="#fb919f"
       id="path44"
       style="fill:#c87137;stroke-width:0.422455"
       sodipodi:nodetypes="csccccsccccc" />
    <g
       fill="#533a71"
       id="g42"
       transform="matrix(0.445244,0,0,0.36875593,-69.248957,-8.6695356)"
       style="fill:#4d4d4d;fill-opacity:1">
      <path
         d="m 342.74,117.9 -5.18,4.86 c 0,0 -12.68,-11.63 -16,-17.65 -1.881,-3.363 -3.336,-6.9472 -4.33,-10.67 -3.013,2.6277 -5.056,6.192 -5.8,10.12 -1.06,6.34 -4,20 -4,20 H 301 c 0,0 0.53,-24.52 2.75,-30.12 C 305.97,88.84 311,78 311,78 l 13.89,-2.75 c 0,0 2.71,22.75 3.91,26.86 1.2,4.11 13.94,15.79 13.94,15.79 z"
         id="path34"
         style="fill:#006400;fill-opacity:1" />
      <path
         d="m 307.44,123.12499 v 4.62 h -12.82 v -0.73 c -10e-4,-0.441 0.153,-0.868 0.434,-1.208 0.281,-0.34 0.673,-0.57 1.106,-0.652 1.82,-0.35 4.63,-0.93 4.84,-1.21 0.185,-0.232 0.297,-0.514 0.32,-0.81 z"
         id="path36"
         style="fill:#1a1a1a;fill-opacity:1" />
      <path
         d="m 341.89,117.86 3.16,3.36 -9.35,8.78 -0.5,-0.54 c -0.302,-0.321 -0.483,-0.738 -0.51,-1.178 -0.027,-0.44 0.1,-0.876 0.36,-1.232 1.09,-1.5 2.74,-3.84 2.7,-4.2 -0.023,-0.296 -0.135,-0.578 -0.32,-0.81 z"
         id="path38"
         style="fill:#1a1a1a;fill-opacity:1" />
      <path
         d="m 317.09,45.81 c -3.47,-3 -9.39,8.24 -9.39,8.24 l 6.09,4.7 c 0,0 7.51,-9.27 3.3,-12.94 z"
         id="path40"
         style="fill:#ff6600;fill-opacity:1" />
    </g>
    <path
       d="M 69.435623,5.0081783 67.935156,5.255254 c 0.04763,0.1580506 0.166967,0.2948169 0.333043,0.3820242 0.166084,0.087244 0.366434,0.118182 0.55923,0.086408 0.192777,-0.03176 0.363759,-0.1237635 0.476851,-0.2569841 0.113105,-0.1332425 0.160289,-0.297368 0.131343,-0.4584869 z"
       fill="#ffffff"
       id="path46"
       style="stroke-width:0.405196" />
    <rect
       style="fill:#d45500;fill-opacity:1;stroke:#000000;stroke-width:0.0242885;stroke-linecap:round;stroke-linejoin:round;stroke-miterlimit:4.6;stroke-dasharray:none;stroke-opacity:1"
       id="rect9994"
       width="3.1428723"
       height="1.6307341"
       x="69.48056"
       y="16.601624"
       ry="0.49918032" />
    <path
       style="fill:url(#linearGradient14217);fill-opacity:1;stroke-width:0.543382;stroke-linecap:round;stroke-linejoin:round;stroke-miterlimit:4.6"
       d="m 70.193275,2.896892 c 0.01436,0.1489543 0.04113,0.2978711 0.08615,0.4411004 0.03902,0.1241959 0.0972,0.2425135 0.157915,0.3583935 0.05394,0.1029326 0.182618,0.297906 0.182618,0.297906 0,0 0.04377,-0.298621 0.104533,-0.4357497 0.0583,-0.1313148 0.113307,-0.290482 0.244066,-0.3583936 0.06738,-0.034978 0.168595,-0.044271 0.229737,0 0.02777,0.020145 0.02879,0.096491 0.02879,0.096491 l 0.0718,-0.496238 c 0,0 -0.161481,0.042829 -0.244088,0.055138 -0.123322,0.018374 -0.248504,0.028946 -0.373285,0.027569 -0.09619,-0.00105 -0.193999,-0.00455 -0.287154,-0.027569 -0.07058,-0.017465 -0.201007,-0.082706 -0.201007,-0.082706 0,0 -0.0042,0.082883 -7e-6,0.124059 z"
       id="path10575"
       sodipodi:nodetypes="ssscsasccssscs" />
    <rect
       style="fill:#d45500;fill-opacity:1;stroke:#000000;stroke-width:0.0115305;stroke-linecap:round;stroke-linejoin:round;stroke-miterlimit:4.6;stroke-dasharray:none;stroke-opacity:1;paint-order:normal"
       id="rect12215"
       width="3.705946"
       height="0.45247823"
       x="69.222885"
       y="16.554169" />
    <ellipse
       style="fill:#333333;fill-opacity:1;stroke:#000000;stroke-width:0.00909321;stroke-linecap:round;stroke-linejoin:round;stroke-miterlimit:4.6;stroke-dasharray:none;stroke-opacity:1"
       id="path12421"
       cx="-71.182777"
       cy="16.806015"
       rx="0.19116579"
       ry="0.14877746"
       transform="scale(-1,1)" />
    <path
       style="fill:#007400;fill-opacity:1;stroke:none;stroke-width:0.0115305;stroke-linecap:round;stroke-linejoin:round;stroke-miterlimit:4.6;stroke-dasharray:none;stroke-opacity:1;paint-order:normal"
       d="m 70.371589,23.223575 c -0.486945,0.881222 -1.029858,1.141832 -1.518579,2.05413 -0.488721,0.912298 -0.923102,2.476138 -1.167433,3.761981 -0.244331,1.285842 -0.298622,2.293524 -0.35292,3.301331 0.0362,0.816671 0.0724,1.633481 0.09049,2.189508 0.01809,0.556028 0.01809,0.851291 0.01809,1.146683 0,0 0.191155,1.585494 0.191155,1.585494 0.284327,-1.207385 0.568631,-2.414677 0.943846,-3.851808 0.375214,-1.437132 0.841319,-3.104004 1.426397,-4.351506 0.585077,-1.247501 1.289117,-2.075561 1.99315,-2.903614 0.744224,-0.683659 1.488457,-1.367325 1.896753,-1.882865 0.408297,-0.515539 0.480693,-0.863053 0.47167,-1.236613 -0.009,-0.37356 -0.09952,-0.773197 -0.36192,-1.242361 -0.262403,-0.469163 -0.696775,-1.007808 -1.37723,-1.298386 -0.680456,-0.290579 -1.606955,-0.332942 -2.014264,0.266609 -0.407309,0.599551 -0.295238,1.840835 -0.239209,2.461417 z"
       id="path14309"
       inkscape:path-effect="#path-effect14311"
       inkscape:original-d="m 70.427619,23.844157 c 0,0 -1.08581,0.521412 -1.628925,0.78192 -0.434244,1.563971 -0.868632,3.127809 -1.303143,4.691519 -0.05421,1.007937 -0.162894,3.023421 -0.162894,3.023421 0,0 0.07252,1.633475 0.108584,2.450014 1.43e-4,0.295522 0,0.886177 0,0.886177 l 0.191155,1.585494 c 0,0 0.568793,-2.414639 0.85298,-3.622155 0.466237,-1.666741 0.93234,-3.333614 1.398314,-5.000615 0.70417,-0.827923 2.112099,-2.484158 2.112099,-2.484158 0,0 1.488585,-1.367186 2.232672,-2.050976 0.07253,-0.347396 0.144934,-0.694909 0.217191,-1.042558 -0.09036,-0.399527 -0.180848,-0.799166 -0.271487,-1.198942 -0.434259,-0.538539 -0.868633,-1.077183 -1.303142,-1.615968 -0.926423,-0.04223 -1.852922,-0.0846 -2.779621,-0.127096 0.112221,1.241463 0.224286,2.482747 0.336217,3.723923 z"
       sodipodi:nodetypes="csacaccaaccccccc" />
    <path
       style="fill:#007400;fill-opacity:1;stroke:none;stroke-width:0.0115305;stroke-linecap:round;stroke-linejoin:round;stroke-miterlimit:4.6;stroke-dasharray:none;stroke-opacity:1;paint-order:normal"
       d="m 76.391327,26.615718 c -0.190064,-0.147759 -0.443454,0.234517 -0.542981,0.625532 -0.09953,0.391016 -0.04523,0.790668 0.06339,1.199014 0.108617,0.408346 0.27151,0.825364 0.470622,1.216323 0.199112,0.39096 0.434397,0.75585 0.723999,1.138119 0.289603,0.382269 0.633481,0.781907 0.995484,1.129418 0.362002,0.34751 0.74208,0.642897 1.167419,0.920901 0.42534,0.278003 0.895912,0.538638 1.629364,0.862712 0.733452,0.324073 1.729723,0.711585 1.575707,0.398835 -0.154015,-0.31275 -1.458266,-1.325766 -2.381772,-2.075571 -0.923507,-0.749805 -1.466157,-1.236324 -1.864192,-1.627279 -0.398036,-0.390954 -0.651418,-0.686336 -0.859593,-1.051229 -0.208175,-0.364892 -0.371066,-0.799283 -0.515878,-1.355325 -0.144812,-0.556043 -0.271504,-1.233692 -0.461569,-1.38145 z"
       id="path14945"
       inkscape:path-effect="#path-effect14947"
       inkscape:original-d="m 76.454667,26.085662 c -0.253246,0.382402 -0.506643,0.764673 -0.760162,1.146814 0.05435,0.399785 0.108728,0.799426 0.162888,1.198944 0.16303,0.417162 0.325926,0.834179 0.488684,1.251071 0.235429,0.365032 0.470715,0.729922 0.705866,1.094687 0.344029,0.399786 0.687906,0.799425 1.031663,1.198946 0.380225,0.295525 0.760302,0.590912 1.140248,0.886173 0.47072,0.260776 0.941293,0.521409 1.411742,0.78192 0.996452,0.387662 1.992724,0.775171 2.988905,1.162572 -1.304199,-1.01295 -2.608447,-2.02597 -3.912918,-3.039179 -0.542538,-0.486407 -1.085187,-0.972927 -1.627977,-1.459583 -0.253266,-0.295268 -0.506644,-0.590653 -0.76017,-0.886176 -0.162765,-0.434278 -0.325653,-0.86867 -0.488683,-1.303199 -0.126566,-0.677546 -0.253253,-1.355196 -0.380086,-2.03299 z"
       sodipodi:nodetypes="cccccccccccccc" />
    <rect
       style="fill:#007400;fill-opacity:1;stroke:none;stroke-width:0.0151682;stroke-linecap:round;stroke-linejoin:round;stroke-miterlimit:4.6;stroke-dasharray:none;stroke-opacity:1;paint-order:normal"
       id="rect20536"
       width="7.1136513"
       height="0.68199998"
       x="68.489639"
       y="20.040001" />
    <path
       d="m 45.33143,32.189039 c 0,0 -13.535872,-1.156171 -20.14203,0 -0.693441,0.121363 -1.779663,0.510706 -1.979523,0.716475 -0.200129,0.205767 -1.015536,0.686767 -1.238672,1.211545 -0.41339,0.972225 0,3.152473 0,3.152473 0,0.247038 0.09521,-0.346328 0.264988,-0.171797 0.169517,0.174822 0.399718,0.272841 0.639659,0.272841 H 44.47059 Z"
       fill="#ffb942"
       id="path31-8"
       style="fill:#006700;fill-opacity:1;stroke-width:0.282441"
       sodipodi:nodetypes="cacascscc" />
    <path
       d="m 26.096413,31.059881 h 0.915785 c 0.228537,-0.686374 0.659707,-1.282111 1.233115,-1.703974 0.573413,-0.421829 1.260385,-0.64872 1.965186,-0.648927 h 3.017358 v 4.800368 h -7.131444 c -0.31509,0 -0.61767,-0.128962 -0.840348,-0.358522 -0.222957,-0.229271 -0.348226,-0.540795 -0.348226,-0.865214 0,-0.324409 0.125269,-0.635939 0.348226,-0.865203 0.222678,-0.229557 0.525258,-0.358528 0.840348,-0.358528 z"
       fill="#0f515d"
       id="path33-0"
       style="fill:#ff2a2a;fill-opacity:1;stroke-width:0.282441" />
    <path
       d="m 39.933411,26.540365 h -6.460605 c -0.282802,0 -0.553924,0.115642 -0.753783,0.321497 -0.19986,0.205839 -0.312314,0.485024 -0.312314,0.77615 v 1.066111 h 8.590018 v -1.066111 c 0,-0.290606 -0.111897,-0.569371 -0.311205,-0.775141 -0.199303,-0.20577 -0.469858,-0.321757 -0.752111,-0.322506 z"
       fill="#0f515d"
       id="path37-4"
       style="fill:#1a1a1a;stroke-width:0.282441" />
    <path
       d="m 23.209877,32.905514 c 0.530821,-6.47e-4 1.050239,0.161069 1.491709,0.464272 0.441743,0.303506 0.786068,0.734822 0.989545,1.239784 0.203475,0.504976 0.256921,1.060675 0.153377,1.596876 -0.10331,0.536215 -0.359084,1.028853 -0.73458,1.415468 -0.375222,0.386326 -0.853717,0.649697 -1.374511,0.756019 -0.520804,0.106585 -1.060527,0.05156 -1.55099,-0.157913 -0.490467,-0.209495 -0.909383,-0.564006 -1.204167,-1.018821 -0.2945,-0.45453 -0.451487,-0.989303 -0.450928,-1.535826 0,-0.362539 0.06933,-0.721351 0.204035,-1.056082 0.134713,-0.335028 0.332068,-0.639092 0.581204,-0.895306 0.248838,-0.256496 0.544183,-0.459689 0.869567,-0.598401 0.325127,-0.138708 0.673629,-0.21007 1.025739,-0.21007 z m -0.403609,4.152677 c 0.261654,-0.269399 0.147528,-1.126292 0.147528,-1.126292 0,0 -0.83506,-0.117506 -1.093929,0.151891 -0.05682,0.06185 -0.09995,0.135559 -0.127213,0.215799 -0.02724,0.08048 -0.03787,0.165931 -0.03115,0.250764 0.0073,0.08482 0.03093,0.167373 0.0707,0.241887 0.03977,0.07485 0.09437,0.139856 0.160059,0.191437 0.258868,0.272256 0.609588,0.349637 0.871245,0.08026 z m -0.874033,-2.708267 c -0.06565,0.05156 -0.120247,0.116648 -0.160057,0.191441 -0.03977,0.07452 -0.06375,0.157048 -0.0707,0.241881 -0.0063,0.08481 0.0042,0.170234 0.03115,0.250767 0.02724,0.08026 0.07038,0.153896 0.12721,0.215799 0.261645,0.269397 1.093929,0.151894 1.093929,0.151894 0,0 0.114127,-0.859766 -0.147525,-1.126292 -0.261656,-0.266526 -0.615167,-0.192016 -0.87682,0.07734 z m 1.670131,2.708267 c 0.261653,0.269393 0.612373,0.194879 0.87403,-0.07453 0.06565,-0.05156 0.120248,-0.116635 0.160048,-0.191441 0.03976,-0.07452 0.06376,-0.157045 0.0707,-0.241881 0.0063,-0.08481 -0.0041,-0.17023 -0.03115,-0.250766 -0.02727,-0.08026 -0.07037,-0.153896 -0.127204,-0.215797 -0.261653,-0.269399 -1.093929,-0.151897 -1.093929,-0.151897 0,0 -0.102998,0.859773 0.158658,1.129166 z m 0.87403,-2.708267 c -0.05007,-0.06759 -0.113295,-0.123807 -0.185942,-0.164793 -0.07238,-0.04094 -0.152533,-0.06564 -0.234932,-0.07279 -0.08237,-0.0065 -0.165336,0.0043 -0.243559,0.03205 -0.07796,0.02807 -0.149473,0.07247 -0.209597,0.13098 -0.261657,0.269396 -0.14753,1.126292 -0.14753,1.126292 0,0 0.83506,0.117502 1.093929,-0.151894 0.258865,-0.269396 0.200415,-0.624762 -0.06122,-0.897018 z"
       fill="#0f515d"
       id="path39-08"
       style="fill:#333333;stroke-width:0.282441" />
    <path
       d="m 23.209877,33.527417 c 0.411687,0 0.814473,0.125812 1.156842,0.361391 0.342376,0.235567 0.60904,0.570311 0.766869,0.962075 0.157546,0.391477 0.198745,0.822517 0.118303,1.238354 -0.08017,0.415839 -0.278637,0.797865 -0.569791,1.09763 -0.291163,0.29977 -0.66221,0.504107 -1.066104,0.586649 -0.40389,0.08286 -0.822533,0.0404 -1.202763,-0.121805 -0.380514,-0.162486 -0.70563,-0.43705 -0.934436,-0.789546 -0.228813,-0.352506 -0.351008,-0.767199 -0.351008,-1.191066 0,-0.281427 0.05376,-0.560278 0.158388,-0.820216 0.104676,-0.260225 0.258034,-0.496659 0.451482,-0.695552 0.193177,-0.199182 0.422831,-0.357088 0.675574,-0.464853 0.252461,-0.107775 0.523301,-0.163061 0.796644,-0.163061 z m 1.277647,0.828237 c -0.05008,-0.06759 -0.113282,-0.123807 -0.185936,-0.16478 -0.07238,-0.04095 -0.15254,-0.06564 -0.234934,-0.07279 -0.08237,-0.0065 -0.16534,0.0043 -0.243557,0.03205 -0.07796,0.02807 -0.149478,0.07246 -0.209604,0.130967 -0.261652,0.269393 -0.147527,1.126293 -0.147527,1.126293 0,0 0.835064,0.117502 1.093928,-0.151895 0.25888,-0.269396 0.189286,-0.630491 -0.07238,-0.902747 z m -0.874031,2.708263 c 0.261658,0.269397 0.612378,0.194886 0.874031,-0.07452 0.06565,-0.05156 0.120251,-0.116637 0.160061,-0.19144 0.03977,-0.07452 0.06375,-0.157052 0.0707,-0.241884 0.0063,-0.08481 -0.0032,-0.170231 -0.03114,-0.250764 -0.02727,-0.08026 -0.07038,-0.153896 -0.127214,-0.2158 -0.261645,-0.269395 -1.093932,-0.151893 -1.093932,-0.151893 0,0 -0.114123,0.854039 0.14753,1.123432 z m -0.807225,-2.785646 c -0.261653,-0.269383 -0.612376,-0.194873 -0.874033,0.07453 -0.06565,0.05156 -0.120247,0.116631 -0.160057,0.191437 -0.03977,0.07452 -0.06375,0.157048 -0.0707,0.241884 -0.0063,0.08481 0.0042,0.170231 0.03115,0.250764 0.02724,0.08026 0.07038,0.153896 0.12721,0.215799 0.261645,0.269396 1.093929,0.151894 1.093929,0.151894 0,0 0.114127,-0.856909 -0.150315,-1.126305 z m -0.874033,2.708273 c 0.261657,0.269389 0.61238,0.343909 0.874033,0.07453 0.261654,-0.269396 0.147528,-1.126292 0.147528,-1.126292 0,0 -0.83506,-0.117503 -1.093929,0.15188 -0.05682,0.06196 -0.10047,0.135277 -0.128044,0.215517 -0.02727,0.08026 -0.03808,0.165652 -0.03176,0.250488 0.0063,0.08481 0.03031,0.167075 0.06985,0.241881 0.03956,0.07485 0.09384,0.140142 0.159502,0.192016 z"
       fill="#e5f1fe"
       id="path41-4"
       style="fill:#808080;fill-opacity:1;stroke-width:0.282441" />
    <path
       d="m 23.209877,36.413367 c -0.398045,0 -0.720939,-0.33245 -0.720939,-0.742268 0,-0.409827 0.322894,-0.742264 0.720939,-0.742264 0.39805,0 0.720947,0.332437 0.720947,0.742264 0,0.409818 -0.322897,0.742268 -0.720947,0.742268 z"
       fill="#0f515d"
       id="path43-7"
       style="fill:#cccccc;stroke-width:0.282441" />
    <path
       d="M 43.532531,31.105743 H 41.82066 c -0.221572,0 -0.433959,0.09055 -0.5904,0.25191 -0.156715,0.161059 -0.244665,0.379728 -0.244665,0.607855 v 1.553312 h 3.484995 v -1.432953 c 0.0021,-0.128107 -0.02114,-0.255064 -0.06733,-0.373996 -0.04618,-0.118931 -0.115242,-0.226976 -0.20236,-0.318113 -0.08743,-0.09142 -0.191516,-0.163637 -0.306191,-0.213223 -0.114684,-0.04929 -0.237719,-0.07485 -0.362141,-0.07485 z"
       fill="#a8a8a8"
       id="path51-5"
       style="stroke-width:0.282441;fill:#006400;fill-opacity:1" />
    <path
       d="m 43.788621,31.598669 c 0.650514,0.002 1.285718,0.201763 1.825722,0.575186 0.539731,0.373144 0.96032,0.902758 1.208054,1.521791 0.247741,0.619311 0.311766,1.299968 0.183721,1.956541 -0.127771,0.656577 -0.441755,1.259274 -0.902426,1.732425 -0.460395,0.472868 -1.046609,0.794431 -1.6846,0.92454 -0.637986,0.130112 -1.299079,0.0625 -1.899769,-0.194311 -0.600688,-0.256493 -1.114256,-0.690672 -1.475276,-1.247518 -0.361307,-0.556846 -0.553926,-1.211701 -0.553926,-1.881177 0,-0.445636 0.08543,-0.886706 0.251356,-1.298246 0.1659,-0.411539 0.408899,-0.785538 0.715371,-1.100207 0.30619,-0.314686 0.670001,-0.56401 1.06999,-0.733675 0.400267,-0.169662 0.828936,-0.256499 1.261783,-0.255349 z m -0.495474,5.09555 c 0.322894,-0.329574 0.180929,-1.384226 0.180929,-1.384226 0,0 -1.021554,-0.143291 -1.344451,0.186283 -0.322884,0.329577 -0.23103,0.773796 0.08911,1.106233 0.320106,0.332447 0.751553,0.42129 1.071667,0.09175 z M 42.2187,33.369786 c -0.320105,0.329584 -0.411959,0.773793 -0.08911,1.10624 0.322898,0.332437 1.344455,0.186283 1.344455,0.186283 0,0 0.141964,-1.051789 -0.180934,-1.384226 -0.32289,-0.332447 -0.751548,-0.237877 -1.074442,0.09174 z m 2.065393,3.324433 c 0.322884,0.33245 0.751553,0.237877 1.074446,-0.09174 0.322893,-0.329574 0.41196,-0.773787 0.08911,-1.10623 -0.322897,-0.33244 -1.344459,-0.186286 -1.344459,-0.186286 0,0 -0.141963,1.051779 0.180933,1.384229 z m 1.074446,-3.324433 c -0.320108,-0.32958 -0.751562,-0.42415 -1.074446,-0.09175 -0.322893,0.332434 -0.180933,1.384229 -0.180933,1.384229 0,0 1.021561,0.146148 1.344458,-0.186286 0.322881,-0.332446 0.231027,-0.776656 -0.08911,-1.106243 z"
       fill="#0f515d"
       id="path53-6"
       style="fill:#333333;stroke-width:0.282441" />
    <path
       d="m 43.788621,32.355263 c 0.505487,0 0.999569,0.154192 1.419602,0.443351 0.420324,0.289166 0.747668,0.700144 0.941118,1.180747 0.19346,0.480613 0.244116,1.009655 0.145581,1.520068 -0.09878,0.510422 -0.342095,0.97899 -0.699504,1.34698 -0.357402,0.367973 -0.812518,0.618454 -1.308263,0.720186 -0.495749,0.101496 -1.0096,0.04928 -1.476396,-0.149875 -0.466802,-0.199185 -0.865959,-0.536215 -1.146814,-0.968965 -0.280864,-0.432746 -0.430624,-0.941157 -0.430624,-1.461609 0,-0.697842 0.26918,-1.367026 0.748503,-1.860249 0.47905,-0.493503 1.129003,-0.770634 1.806797,-0.770634 z m 1.569918,1.014523 c -0.320108,-0.32958 -0.751562,-0.42415 -1.074446,-0.09175 -0.322893,0.332434 -0.180933,1.384229 -0.180933,1.384229 0,0 1.021561,0.146148 1.344458,-0.186286 0.322881,-0.332446 0.231027,-0.776656 -0.08911,-1.106243 z m -1.074446,3.324433 c 0.322884,0.33245 0.751553,0.237877 1.074446,-0.09174 0.322893,-0.329574 0.41196,-0.773787 0.08911,-1.10623 -0.322897,-0.33244 -1.344459,-0.186286 -1.344459,-0.186286 0,0 -0.141963,1.051779 0.180933,1.384229 z m -0.990946,-3.416136 c -0.320107,-0.329574 -0.75155,-0.237877 -1.074447,0.09174 -0.322894,0.329591 -0.411959,0.7738 -0.08911,1.106247 0.322898,0.332433 1.344455,0.186282 1.344455,0.186282 0,0 0.139176,-1.054651 -0.183709,-1.387098 z M 42.2187,36.602509 c 0.322897,0.329587 0.751553,0.42416 1.074447,0.09175 0.322894,-0.332447 0.180929,-1.384229 0.180929,-1.384229 0,0 -1.021554,-0.143294 -1.344451,0.186282 -0.322884,0.329577 -0.23103,0.773797 0.08911,1.106234 z"
       fill="#e5f1fe"
       id="path55-9"
       style="fill:#808080;stroke-width:0.282441" />
    <path
       d="m 43.788621,35.894634 c -0.487405,0 -0.882384,-0.406665 -0.882384,-0.908488 0,-0.501813 0.394979,-0.908478 0.882384,-0.908478 0.487402,0 0.882383,0.406665 0.882383,0.908478 0,0.501823 -0.394981,0.908488 -0.882383,0.908488 z"
       fill="#0f515d"
       id="path57-6"
       style="fill:#cccccc;stroke-width:0.282441" />
    <rect
       style="fill:#1a1a1a;fill-opacity:1;stroke:none;stroke-width:0.0143754;stroke-linecap:round;stroke-linejoin:round;stroke-miterlimit:4.6;stroke-dasharray:none;stroke-opacity:1;paint-order:normal"
       id="rect22364"
       width="3.2153952"
       height="0.25578195"
       x="28.496756"
       y="29.991844" />
    <rect
       style="fill:#1a1a1a;fill-opacity:1;stroke:none;stroke-width:0.0143754;stroke-linecap:round;stroke-linejoin:round;stroke-miterlimit:4.6;stroke-dasharray:none;stroke-opacity:1;paint-order:normal"
       id="rect22364-8"
       width="3.2153952"
       height="0.25578195"
       x="28.496756"
       y="31.209555" />
    <rect
       style="fill:#1a1a1a;fill-opacity:1;stroke:none;stroke-width:0.0143754;stroke-linecap:round;stroke-linejoin:round;stroke-miterlimit:4.6;stroke-dasharray:none;stroke-opacity:1;paint-order:normal"
       id="rect22364-6"
       width="3.2153952"
       height="0.25578195"
       x="28.496756"
       y="30.639673" />
    <rect
       style="fill:#008000;fill-opacity:1;stroke:#808080;stroke-width:0.0258559;stroke-linecap:round;stroke-linejoin:round;stroke-miterlimit:4.6;stroke-dasharray:none;stroke-opacity:1;paint-order:normal"
       id="rect25050"
       width="14.044015"
       height="2.8748548"
       x="26.293325"
       y="34.28051"
       ry="1.2983215" />
    <ellipse
       id="path32098"
       style="fill:#006400;stroke:#808080;stroke-width:0.253207"
       cx="6.4254589"
       cy="37.928925"
       rx="0.0012086899"
       ry="0.001319734" />
    <path
       d="m 57.490281,38.150211 h -0.05979 v 0.600482 z"
       fill="#3c6448"
       id="path39-61"
       style="stroke-width:1.01634" />
    <path
       d="m 84.409492,41.001443 c 0,0 0,-0.828611 0,-2.237116 l -0.04574,0.807783 c 0.02746,0.890702 0.04574,1.429333 0.04574,1.429333 z"
       fill="#3c6448"
       id="path45-6"
       style="stroke-width:0.972643" />
    <g
       fill="#49a56e"
       id="g97"
       transform="matrix(0.21382234,0,0,0.23768046,-0.87018384,8.6552074)"
       style="fill:#4fb35a;fill-opacity:1">
      <path
         d="m 55.51,126.58 c 0,0 2.62,-11.41 4.87,-17.91 -1.3002,0.612 -2.4687,1.471 -3.44,2.53 0.44,4.41 -1.43,15.38 -1.43,15.38 z"
         id="path63-95"
         style="fill:#4fb35a;fill-opacity:1" />
      <path
         d="m 26.3001,124.77 c 0,0 2,-7.84 4.14,-13.64 v -0.29 c -0.23,-7.5 -0.94,-16.49 -3.09,-15.74 -1.77,0.62 -2.38,5.47 -2.54,13.32 1.79,0.87 1.49,16.35 1.49,16.35 z"
         id="path65-49"
         style="fill:#4fb35a;fill-opacity:1" />
      <path
         d="m 47.08,106.24 c 4.26,-1 -7.56,20.34 -7.56,20.34 0,0 6.42,-10 8.55,-10.21 0.33,0 0.47,0.2 0.47,0.61 0.29,-1.05 0.6,-2.18 0.91,-3.35 2,-7.54 3.95,-16.71 1.48,-16.1 -1.93,0.48 -4.78,6 -7.29,11.87 1.24,-1.72 2.42,-2.93 3.44,-3.16 z"
         id="path67-41"
         style="fill:#4fb35a;fill-opacity:1" />
      <path
         d="m 33.66,105.05 c 2.44,-0.79 -2.44,19.72 -2.44,19.72 0,0 4.55,-8 7.09,-10.46 0,-0.307 0,-0.613 0,-0.92 -0.24,-5.85 -1,-12.06 -2.92,-11.51 -1,0.28 -1.81,1.8 -2.46,3.86 0.1733,-0.294 0.4264,-0.533 0.73,-0.69 z"
         id="path69-5"
         style="fill:#4fb35a;fill-opacity:1" />
      <path
         d="m 15.45,104.26 c 2.14,-0.59 -3.21,22.32 -3.21,22.32 1.4625,-3.869 3.1658,-7.643 5.1,-11.3 0.34,-1.23 0.67,-2.5 1,-3.78 0.12,-5.44 0.49,-10.36 1.42,-10.79 0.3,-0.14 0.55,0.19 0.76,0.85 0.49,-3.17 0.47,-5.28 -0.53,-5.07 -1.28,0.27 -3.25,3.93 -5.28,8.56 0.29,-0.45 0.52,-0.73 0.74,-0.79 z"
         id="path71-2"
         style="fill:#4fb35a;fill-opacity:1" />
      <path
         d="m 96.81,108.11 c 0,-0.06 0,-0.1 0,-0.16 l -2.29,4.7 c 0.8073,3.106 1.4449,6.254 1.91,9.43 l 0.1,-0.39 c 0,-0.84 0,-2.12 0,-3.64 -0.29,-0.88 -0.33,-1.5 0,-1.64 0.07,-2.78 0.19,-6.05 0.41,-8.89 l -0.19,0.38 z"
         id="path73-92"
         style="fill:#4fb35a;fill-opacity:1" />
      <path
         d="m 87.17,124.77 c 0,0 -2.73,-8.3 -4.07,-14.14 -0.6151,1.448 -1.1558,2.927 -1.62,4.43 2.1229,3.099 4.0243,6.343 5.69,9.71 z"
         id="path75-5"
         style="fill:#4fb35a;fill-opacity:1" />
      <path
         d="m 72.8899,125.53 c 0,0 -0.32,-0.84 -0.72,-2 l -1,0.65 c 0.98,0.67 1.72,1.35 1.72,1.35 z"
         id="path77-68"
         style="fill:#4fb35a;fill-opacity:1" />
      <path
         d="m 78.9999,126.58 c 0,0 -1.18,-2.38 -2.6,-5.53 l -0.47,0.22 c 1.7,2.67 3.07,5.31 3.07,5.31 z"
         id="path79-3"
         style="fill:#4fb35a;fill-opacity:1" />
      <path
         d="m 67.56,118.21 c -0.1387,1.539 -0.0984,3.09 0.12,4.62 0.106,-0.135 0.2599,-0.225 0.43,-0.25 h 0.06 c 0.7336,0.075 1.4292,0.363 2,0.83 l 0.36,0.24 c 0.34,-0.49 0.72,-1.06 1.13,-1.67 -0.88,-2.84 -1.72,-6.35 -0.43,-6.23 0.67,0.06 1.67,1.12 2.73,2.56 0.25,-0.43 0.49,-0.85 0.71,-1.26 -0.53,-1.28 -1.05,-2.57 -1.51,-3.81 -2.0105,1.487 -3.8845,3.15 -5.6,4.97 z"
         id="path81-8"
         style="fill:#4fb35a;fill-opacity:1" />
      <path
         d="m 59.8201,126.58 c 0,0 1.74,-4.78 3.49,-8.55 0,-2.49 1.82,-8.79 3,-7.63 1.18,1.16 1.39,3.05 1.35,5.17 1.39,-2.15 2.8,-4.43 4,-6.58 l 0.08,-0.13 c -0.51,-2.14 -0.43,-3.51 0.73,-3.24 0.293,0.075 0.5638,0.219 0.79,0.42 2.17,-4.27 3,-7.43 0.46,-7 -3.14,0.56 -7.25,5.28 -10.9,10.47 -0.75,6.62 -3,17.07 -3,17.07 z"
         id="path83-63"
         style="fill:#4fb35a;fill-opacity:1" />
      <path
         d="m 7.92993,126.58 c 0,0 2.47997,-10 4.73997,-16.62 -0.31,0.79 -0.63,1.59 -0.93,2.38 -1,2.61 -1.92997,5.16 -2.68997,7.32 -0.51,3.67 -1.12,6.92 -1.12,6.92 z"
         id="path85-7"
         style="fill:#4fb35a;fill-opacity:1" />
      <path
         d="m 47.7199,119.88 c -1.2,3 -3.28,6.7 -3.28,6.7 0,0 4.28,-4.21 5.81,-4 0.095,0.008 0.1873,0.036 0.2715,0.08 0.0842,0.045 0.1585,0.106 0.2185,0.18 0.3638,-2.182 0.8478,-4.342 1.45,-6.47 -3,3.48 -5.47,6.82 -5.47,6.82 0,0 0.41,-1.31 1,-3.31 z"
         id="path87-8"
         style="fill:#4fb35a;fill-opacity:1" />
      <path
         d="m 0.679986,116.37 c 2.140004,-0.2 -3.819996,10.21 -3.819996,10.21 0,0 4.35,-4.21 5.89,-4 0.09348,0.008 0.18427,0.036 0.2668,0.081 0.08253,0.044 0.15508,0.105 0.2132,0.179 0.75,-4 2.33,-10.59 4.85,-13 1.17,-1.13 1.58,0.14 1.6,2.39 v -0.32 c 0.75001,-5.62 0.67001,-10.36 -2.31,-8.18 -2,1.49 -3.72,4.19 -5.07,7.17 -0.81984,1.844 -1.531052,3.733 -2.130004,5.66 0.154824,-0.098 0.328573,-0.163 0.51,-0.19 z"
         id="path89-4"
         style="fill:#4fb35a;fill-opacity:1" />
      <path
         d="m 92.09,124.77 c 0,0 -0.31,-2.83 -0.54,-6.13 l -1,2 c 0.93,2.36 1.54,4.13 1.54,4.13 z"
         id="path91-1"
         style="fill:#4fb35a;fill-opacity:1" />
      <path
         d="m 21.7,122.77 c 0,0 0.39,-8 1.55,-12.1 -0.53,0.66 -1.09,1.44 -1.67,2.29 0.16,5.04 0.12,9.81 0.12,9.81 z"
         id="path93-7"
         style="fill:#4fb35a;fill-opacity:1" />
      <path
         d="m 89.57,118 c 0.5506,-3.115 0.9113,-6.261 1.08,-9.42 0.13,-4 -0.48,-6.63 -2.8,-4.89 -0.6682,0.517 -1.2695,1.115 -1.79,1.78 -0.4599,0.581 -0.8809,1.193 -1.26,1.83 1.8171,3.461 3.4104,7.035 4.77,10.7 z"
         id="path95-70"
         style="fill:#4fb35a;fill-opacity:1" />
    </g>
    <rect
       style="fill:#ffaaaa;fill-opacity:1;stroke:#808080;stroke-width:0.0230187;stroke-linecap:round;stroke-linejoin:round;stroke-miterlimit:4.6;stroke-dasharray:none;stroke-opacity:1;paint-order:normal"
       id="rect36931"
       width="18.20471"
       height="8.052084"
       x="-130.93388"
       y="22.05571"
       ry="1.3881205" />
    <rect
       style="fill:#b3b3b3;fill-opacity:1;stroke:#000000;stroke-width:0;stroke-linecap:round;stroke-linejoin:round;stroke-miterlimit:4.6;stroke-dasharray:none;stroke-opacity:0.0987654;paint-order:stroke fill markers"
       id="rect39485-0"
       width="0"
       height="13.653535"
       x="80.345795"
       y="85.247063" />
  </g>
</svg>
